<svg transform="scale(1)" version="1.1" id="Layer_1" xmlns="http://www.w3.org/2000/svg" xmlns:xlink="http://www.w3.org/1999/xlink" x="0px" y="0px" viewBox="0 0 500 500" xml:space="preserve" class="show_show__wrapper__graphic__5Waiy "><title>React</title><style type="text/css">
	.st0{fill:#FFFFFF;}
	.st1{fill:#111111;}
	.st2{fill:#6c63ff;}
</style><g id="ground"><path class="st0" d="M343.7,279.8c-39.5-4.8-89.3,10.3-138.3,15.2c-59.6,6-118.2,11.8-172.9,26.6c-9.2,2.5-19.3,8.7-15.3,20.6
		c2.8,8.4,11.3,13.4,18,16.5c40.5,18.6,75.4,28.1,105.1,36.1c19.8,5.4,37.9,10.2,59,10.4c27.9,0.3,66.4-7.8,109.2-17.6
		c11.3-2.6,118.1-26,125.7-33c21.7-17.1,7.7-17.2,0-27.4C425.4,315.5,369.5,282.9,343.7,279.8z"></path><path class="st1" d="M200.6,406h-1.3c-21.3-0.2-39.7-5.2-59.2-10.4c-28.8-7.8-64.6-17.5-105.2-36.2c-6.5-3-15.4-8-18.4-16.9
		c-1.4-4.2-1.2-8,0.6-11.4c3.3-6.1,10.9-9,15.2-10.1c54.8-14.8,114.9-20.8,173-26.6c17.5-1.8,35.2-4.8,52.3-7.8
		c31.2-5.4,60.7-10.5,86.2-7.5s81.8,35.4,91.1,47.8c1.8,2.2,3.9,4.2,6.1,6c3,2.5,5.7,4.7,5.6,7.9c0,3.6-3.6,8-11.9,14.5
		c-4.7,4.3-45.6,15.1-121.5,32.1l-4.5,1C267.9,397.6,228.9,406,200.6,406z M327.3,279.6c-21.3,0-44.8,4.1-69.4,8.4
		c-17.1,3-34.9,6-52.4,7.8c-58.1,5.8-118.1,11.8-172.8,26.6c-4,1.1-11.3,3.8-14.3,9.4c-1.6,3-1.8,6.4-0.5,10.2
		c2.8,8.4,11.4,13.2,17.6,16c40.5,18.6,74.8,27.9,105,36.1c19.4,5.2,37.7,10.2,58.8,10.4c28.2,0.3,67.7-8.2,109.1-17.6l4.5-1
		c94.2-21,117.7-28.9,120.8-31.8c7.7-6.1,11.3-10.3,11.4-13.4c0-2.5-2.2-4.4-5.1-6.8c-2.4-1.8-4.5-3.9-6.4-6.3
		c-9.2-12.2-65-44.1-90.1-47.2C338.2,279.9,332.8,279.6,327.3,279.6z"></path><path class="st1" d="M204.1,397.8h-1c-21.3-0.7-39.3-7.1-58.3-13.9L37.4,345.3c-0.3-0.1-0.4-0.4-0.3-0.7c0.1-0.3,0.4-0.4,0.7-0.3
		l107.4,38.5c18.9,6.8,36.8,13.2,57.9,13.9c20.7,0.7,104.9-21.4,166.4-37.5c24.5-6.4,45.6-11.9,58.5-15c0.3-0.1,0.6,0.1,0.7,0.4
		c0.1,0.3-0.1,0.6-0.4,0.7c0,0,0,0,0,0c-12.9,3-34,8.5-58.5,14.9C309.1,376.1,226.4,397.8,204.1,397.8z"></path></g><g id="laptop"><path class="st1" d="M128.9,221c-0.7,4.7,0.6,9.7,1.9,14.4c5.9,21.5,11.6,42.4,17.2,62.8c1.5,5.6,3.5,11.9,8.6,14.8
		c3.8,2.3,8.4,2,12.7,1.7c29.8-2.5,58.6-7,86.8-11.3c3-0.5,6.1-1,8.3-3.1c4-3.9,2.9-10.8,1.5-16.4L253.3,233
		c-1.3-5.4-2.9-11.1-6.8-14.9c-4.8-4.6-11.6-4.9-17.9-5c-28.3-0.3-57.7,1.3-87.6-0.9C134.9,211.6,130,214,128.9,221z"></path><path class="st0" d="M145,239.7l13.9,53c1.2,4.6,2.7,9.7,6.7,12.3c3.6,2.4,8.1,2,12.2,1.5l65.1-7.5c5.6-0.6,11.9-1.7,15.2-6.5
		c3.7-5.4,2-13,0.1-19.6l-11-38c-1.5-5.2-3.3-10.9-7.7-13.8c-3.5-2.4-7.8-2.4-11.9-2.2l-44.6,1.3c-6.9,0.2-14.3,1.2-21.4,0.2
		c-4.2-0.6-7.9-2.2-11.9-0.5C141.9,223.4,142.9,231.9,145,239.7z"></path><path class="st1" d="M161.7,320.8c1.2,4,5.5,6.8,10,8.3s9.3,1.9,13.9,2.7c13.2,2.5,24.9,9,37.9,10.8c10.1,1.4,20.4-0.2,30.2-2.2
		c14.3-2.8,28.3-6.3,42.1-9.7l26.6-6.6c2.8-0.7,5.9-1.7,7-4.1c0.9-2-0.2-4.4-2-5.8s-4.2-2-6.5-2.6l-21.3-5.4
		c-9.2-2.3-18.6-4.7-28.4-5.2c-13-0.6-25.9,2.1-39,4.1c-10.9,1.7-22.1,2.9-33.3,3.9c-5.7,0.5-11.4,0.9-17.1,1.3
		c-4.5,0.3-9.9,0-14.1,1.4S160.5,316.7,161.7,320.8z"></path><path class="st0" d="M261.8,319.1c-1.5,0.4-3.2,1-3.6,2c-0.3,0.8,0.4,1.6,1.3,2.1c1,0.4,2.2,0.7,3.3,0.8c8,0.8,16.1-1.2,23.7-3.2
		c2.7-0.7,4.7-2.4,1.8-3.8c-1.9-0.9-5.4-1.2-7.7-1.2C274.5,315.6,267.5,317.6,261.8,319.1z"></path><path class="st0" d="M215.6,324c-0.7,0-1.3,0-2,0c-4.4-0.3-8.7-1-13-2.1l-21-4.7c-3.6-0.8-7-1.7-8.7-3.8c0-0.1,0-0.2,0-0.2
		c0-0.1,0.1-0.2,0.2-0.2c19.6-2.3,39.1-4.3,57.9-6.3l16.3-1.7c2.3-0.2,4.6-0.6,7.1-0.9c6.4-0.9,12.9-1.8,18.9-1.2
		c8.8,0.7,17.5,2.1,26,4.3c0.7,0.1,1.4,0.4,1.9,0.9c0.2,0.3,0.3,0.6,0.3,1c-0.2,0.6-0.6,1.2-1.2,1.5c-1,0.5-2.2,0.7-3.3,0.8
		c-20,2.3-40.2,5.6-60.1,9.9l-0.9,0.2C227.9,322.6,221.8,324,215.6,324z M171.5,313.4c1.7,1.8,5,2.6,8.2,3.3l21,4.7
		c4.2,1.1,8.6,1.8,12.9,2.1c6.9,0.3,13.6-1.1,20.2-2.6l0.9-0.2c19.9-4.3,40.1-7.6,60.1-9.9c1.1-0.1,2.1-0.3,3.1-0.7
		c0.5-0.2,0.8-0.7,1-1.2c0-0.2,0-0.5-0.2-0.6c-0.5-0.4-1-0.6-1.7-0.7c-8.5-2.1-17.2-3.5-25.9-4.2c-5.9-0.5-12.5,0.4-18.8,1.2
		c-2.5,0.3-4.8,0.6-7.1,0.9l-16.3,1.7V307v0.2l0,0C210.3,309.1,190.9,311.1,171.5,313.4L171.5,313.4z"></path><path class="st0" d="M231.5,331.1c-6.4,0.1-12.9-0.6-19.1-2.1c-0.1,0-0.2-0.1-0.2-0.3s0.1-0.2,0.3-0.2c8.3,2,18.1,2.5,29.1,1.6
		c9.5-1,18.9-2.4,28.3-4.4l52.7-10.1c0.1,0,0.2,0,0.2,0.2c0,0,0,0,0,0c0,0.1,0,0.2-0.1,0.2c0,0,0,0,0,0l-52.7,10.1
		c-9.4,2-18.8,3.4-28.3,4.4C238.1,330.9,234.7,331.1,231.5,331.1z"></path><path class="st2" d="M157.7,245.3c-0.6,0.1-1-0.3-1.1-0.9c-0.1-0.6,0.3-1,0.9-1.1c4.9-1,9.8-1.7,14.8-1.9c0.5,0,1,0.4,1,0.9
		c0,0.6-0.4,1-0.9,1c0,0,0,0-0.1,0c-4.8,0.2-9.7,0.8-14.4,1.8L157.7,245.3z"></path><path class="st1" d="M173.9,243.2c-0.5,0-0.9-0.4-1-0.9c-0.1-0.5,0.3-1,0.9-1.1c0,0,0,0,0,0l13.8-1.3c0.6-0.1,1,0.4,1.1,0.9
		s-0.4,1-0.9,1.1l-13.7,1.3L173.9,243.2z"></path><path class="st2" d="M158.9,250.1c-0.6,0-1-0.4-1.1-0.9s0.4-1,0.9-1.1l13.6-1.5c0.6-0.1,1,0.3,1.1,0.9s-0.3,1-0.9,1.1l-13.6,1.5
		H158.9z"></path><path class="st1" d="M175.4,249.1c-0.6,0-1-0.4-1-1c0-0.6,0.4-1,1-1l13.6-1.1c0.6,0,1,0.4,1.1,0.9s-0.4,1-0.9,1.1L175.4,249.1
		L175.4,249.1z"></path><path class="st1" d="M176.8,254.6c-0.6,0-1-0.4-1-1s0.4-1,1-1l0,0l14.2-0.8c0.6,0,1,0.4,1.1,0.9c0,0,0,0,0,0c0,0.6-0.4,1-0.9,1
		c0,0,0,0,0,0L176.8,254.6L176.8,254.6z"></path><path class="st1" d="M178.4,260.8c-0.6,0-1-0.4-1-1c0-0.6,0.4-1,1-1l44.5-4.2c0.6-0.1,1,0.4,1.1,0.9s-0.4,1-0.9,1.1l0,0l-44.5,4.2
		H178.4z"></path><path class="st2" d="M195.5,265.6c-0.6,0-1-0.4-1.1-0.9c0-0.6,0.4-1,0.9-1.1l26.7-2.7c0.5-0.1,1,0.3,1.1,0.9c0,0,0,0,0,0
		c0.1,0.5-0.3,1-0.9,1.1c0,0,0,0,0,0l-26.7,2.7L195.5,265.6z"></path><path class="st2" d="M197.2,272.3c-0.6,0-1-0.4-1-1c0-0.6,0.4-1,1-1l25.1-2.4c0.6-0.1,1,0.4,1.1,0.9s-0.4,1-0.9,1.1l-25.1,2.4
		H197.2z"></path><path class="st2" d="M199,279.6c-0.6,0-1-0.4-1.1-1c0-0.6,0.4-1,0.9-1l51.2-5.6c0.6-0.1,1,0.3,1.1,0.9c0.1,0.6-0.3,1-0.9,1.1
		l-51.2,5.6L199,279.6z"></path><path class="st2" d="M225.2,282c-0.6,0.1-1-0.4-1.1-0.9s0.4-1,0.9-1.1c7.9-1.4,15.8-2.3,23.9-2.5c0.6,0,1,0.4,1,1s-0.4,1-1,1
		c-7.9,0.2-15.7,1-23.5,2.5L225.2,282z"></path><path class="st2" d="M226.9,288.9c-0.6,0-1-0.4-1.1-1c0-0.6,0.4-1,0.9-1l22.5-2.1c0.6-0.1,1,0.4,1.1,0.9s-0.4,1-0.9,1.1
		L226.9,288.9L226.9,288.9z"></path><path class="st2" d="M228.8,296.7c-0.6,0-1-0.4-1-1c0-0.6,0.4-1,1-1l18.4-1.7c0.6,0,1,0.4,1.1,0.9s-0.4,1-0.9,1.1L228.8,296.7
		L228.8,296.7z"></path><path class="st2" d="M181.2,207.8c-0.6,0-1-0.4-1-1c0-0.6,0.4-1,1-1l32.5-2.7c0.6,0,1,0.4,1.1,0.9s-0.4,1-0.9,1.1L181.2,207.8
		L181.2,207.8z"></path><path class="st1" d="M178,232.6c-2.3,0-4.6-0.1-6.9-0.2c-0.6,0-1-0.5-0.9-1.1s0.5-1,1.1-0.9c11.4,0.6,22.8-0.3,33.9-2.6
		c0.6-0.1,1.1,0.2,1.2,0.8s-0.2,1.1-0.8,1.2C196.4,231.8,187.2,232.7,178,232.6z"></path><path class="st2" d="M194.8,237.6c-2.2,0-4.4-0.1-6.6-0.3c-0.6-0.1-1-0.5-0.9-1.1c0.1-0.6,0.5-1,1.1-0.9c6.2,0.6,12.5,0.3,18.7-1
		c0.6-0.1,1.1,0.2,1.2,0.8c0.1,0.6-0.2,1.1-0.8,1.2C203.4,237.2,199.1,237.6,194.8,237.6z"></path><path class="st2" d="M119.5,97.6c-0.6,0-1-0.4-1-1s0.4-1,1-1c5.2-0.5,10.5-0.5,15.8-0.1c0.6,0,1,0.5,0.9,1.1s-0.5,1-1.1,0.9
		c-5.1-0.4-10.3-0.3-15.4,0.1H119.5z"></path><path class="st2" d="M135.4,102.8L135.4,102.8l-14.5-0.1c-0.6,0-1-0.4-1-1s0.4-1,1-1l0,0l14.5,0.1c0.6,0,1,0.4,1,1
		C136.4,102.4,136,102.8,135.4,102.8C135.4,102.8,135.4,102.8,135.4,102.8z"></path><path class="st1" d="M153,104.2L153,104.2l-14.6-0.6c-0.6,0-1-0.5-1-1s0.5-1,1-1l14.6,0.6c0.6,0,1,0.4,1,1S153.6,104.2,153,104.2
		L153,104.2z"></path><path class="st1" d="M155.1,110.6L155.1,110.6l-15.2-0.9c-0.6,0-1-0.5-0.9-1.1s0.5-1,1.1-0.9l15.1,0.9c0.6,0,1,0.5,1,1
		S155.7,110.6,155.1,110.6z"></path><path class="st1" d="M189.2,117.5L189.2,117.5l-47.5-1.1c-0.6,0-1-0.4-1-1s0.4-1,1-1l47.5,1.1c0.6,0,1,0.4,1,1
		S189.8,117.5,189.2,117.5z"></path><path class="st2" d="M188.4,123.8L188.4,123.8l-28.4-0.4c-0.6,0-1-0.4-1-1s0.4-1,1-1l28.4,0.4c0.6,0,1,0.4,1,1
		S189,123.8,188.4,123.8L188.4,123.8z"></path><path class="st2" d="M188.6,131.2L188.6,131.2l-26.7-0.6c-0.6,0-1-0.4-1-1s0.4-1,1-1l0,0l26.7,0.6c0.6,0,1,0.4,1,1
		S189.1,131.2,188.6,131.2z"></path><path class="st2" d="M218.4,139L218.4,139l-54.6-0.4c-0.6,0-1-0.4-1-1s0.4-1,1-1l54.6,0.4c0.6,0,1,0.4,1,1S219,139,218.4,139
		L218.4,139z"></path><path class="st2" d="M217,144.5L217,144.5c-8.4-0.7-16.8-0.8-25.2-0.3c-0.6,0-1-0.4-1.1-0.9c0,0,0,0,0,0c0-0.6,0.4-1,0.9-1.1
		c0,0,0,0,0,0c8.5-0.5,16.9-0.4,25.4,0.3c0.6,0,1,0.5,0.9,1.1c0,0,0,0,0,0C217.9,144.1,217.5,144.5,217,144.5z"></path><path class="st2" d="M217.5,152.1L217.5,152.1l-23.9-0.5c-0.6,0-1-0.4-1-1s0.4-1,1-1l23.9,0.5c0.6,0,1,0.4,1,1
		S218,152.1,217.5,152.1L217.5,152.1z"></path><path class="st2" d="M215.2,160.5L215.2,160.5l-19.6-0.5c-0.6,0-1-0.4-1-1s0.4-1,1-1l19.6,0.5c0.6,0,1,0.4,1,1
		S215.7,160.5,215.2,160.5L215.2,160.5z"></path><path class="st2" d="M170.8,166.2c-0.6,0-1-0.4-1-1c0-0.6,0.4-1,1-1l33.1-1.6c0.6,0,1,0.4,1.1,0.9s-0.4,1-0.9,1.1l-33,1.6H170.8z"></path><path class="st2" d="M172.4,172.5c-0.6,0-1-0.4-1-1s0.4-1,1-1l22-0.5c0.6,0,1,0.4,1,1s-0.4,1-1,1h-0.6h-0.1L172.4,172.5
		L172.4,172.5z"></path><path class="st2" d="M178.9,178.6c-1.7,0-3.3,0-5-0.1c-0.6,0-1-0.4-1-1s0.4-1,1-1c6.1,0.1,12.1,0,18-0.4c0.5,0,1,0.4,1.1,0.9
		c0,0.5-0.4,1-0.9,1.1C187.7,178.5,183.3,178.6,178.9,178.6z"></path><path class="st2" d="M156.8,183.6c-0.1,0-0.1,0-0.2,0c-4.9-1-10-1.4-15-1.1c-0.5,0-1-0.4-1-0.9c0-0.6,0.4-1,0.9-1c0,0,0,0,0,0
		c5.2-0.2,10.3,0.2,15.4,1.2c0.6,0.1,1,0.5,0.9,1.1S157.4,183.7,156.8,183.6L156.8,183.6z"></path><path class="st1" d="M159.1,184.4c-0.6,0-1-0.4-1-1s0.4-1,1-1l13.2-0.4c0.6,0,1,0.4,1,1s-0.4,1-1,1L159.1,184.4L159.1,184.4z"></path><path class="st2" d="M143.3,188.9c-0.6,0-1-0.4-1-1s0.4-1,1-1l14.7-0.2c0.6,0,1,0.4,1,1s-0.4,1-1,1L143.3,188.9L143.3,188.9z"></path><path class="st1" d="M160.4,189.4c-0.6,0-1-0.4-1-1s0.4-1,1-1l14.6-0.6c0.5,0,1,0.4,1,0.9c0,0.5-0.4,1-0.9,1.1l-2.1,0.1
		c-0.1,0-0.3,0-0.4-0.1L160.4,189.4L160.4,189.4z"></path><path class="st1" d="M173.4,194.9c-3.9,0-7.8-0.2-11.8-0.5c-0.6,0-1-0.5-0.9-1.1c0,0,0,0,0,0c0-0.5,0.5-1,1.1-0.9
		c11.5,1,23.1,0.5,34.6-1.4c0.6-0.1,1.1,0.3,1.2,0.8s-0.3,1.1-0.8,1.2C189,194.3,181.2,195,173.4,194.9z"></path><path class="st2" d="M187.9,200.4c-2.9,0-5.9-0.2-8.8-0.6c-0.6-0.1-0.9-0.6-0.9-1.1c0.1-0.6,0.6-0.9,1.1-0.9
		c6.3,0.9,12.7,0.8,19-0.4c0.6-0.1,1.1,0.3,1.2,0.8c0.1,0.6-0.3,1.1-0.8,1.2l0,0C195.2,200.1,191.5,200.5,187.9,200.4z"></path></g><g id="coffee"><path class="st0" d="M174.6,365.2c2.2-3.8,6.5-5.2,10.6-4.8c-0.8-5.7,4.1-7.3,8.5-6.9c6.4,0.6,12.8-0.6,19.3-0.1
		c2.5,0.2,5.2,0.5,7.1,2.2c2.4,2.1,2.9,5.7,3,9c0.2,5.1-0.1,10.5-2.6,15c-3.4,5.9-9.8,9.4-16.5,9.1c-6.7-0.4-12.9-4.1-16.4-9.8
		c-4.8,2.5-10.7,0.6-13.2-4.2C172.8,371.7,172.9,368.1,174.6,365.2L174.6,365.2z M184.2,375.1c0.9,0.1,1.8-0.4,2.2-1.3
		c0.1-0.5,0.1-1,0-1.5c-0.4-2-0.3-5.8-2.9-6.2c-2.2-0.4-4,2.3-4,4.3C179.6,373,181.6,375,184.2,375.1z"></path><path class="st1" d="M204.7,389.4H204c-6.8-0.4-12.9-3.9-16.7-9.6c-5.3,2.3-11.6-0.1-13.9-5.5c-1.3-3.1-1.1-6.6,0.5-9.5l0,0
		c2-3.5,5.9-5.4,10.5-5.2c-0.1-1.7,0.4-3.4,1.6-4.6c1.6-1.7,4.5-2.5,7.8-2.2c3.3,0.2,6.7,0.2,10,0c3.1-0.2,6.2-0.3,9.3-0.1
		c2.7,0.2,5.5,0.6,7.5,2.4c2.7,2.3,3.1,6.1,3.3,9.5c0.2,4.9,0,10.5-2.7,15.4C217.8,385.8,211.5,389.4,204.7,389.4z M187.6,378
		c0.3,0,0.5,0.1,0.6,0.4c3.4,5.5,9.3,9.1,15.8,9.4c6.5,0.2,12.6-3.1,15.9-8.7c2.5-4.5,2.7-9.9,2.5-14.6c-0.1-3.1-0.5-6.5-2.7-8.4
		c-1.8-1.5-4.4-1.8-6.6-2c-3-0.1-6.1-0.1-9.1,0.1c-3.4,0.3-6.8,0.3-10.2,0c-2.8-0.3-5.2,0.4-6.5,1.7c-1,1.2-1.4,2.8-1.1,4.3
		c0.1,0.4-0.2,0.8-0.6,0.8c-0.1,0-0.1,0-0.2,0c-4.4-0.5-8.1,1.2-9.9,4.4l0,0c-2.5,4.3-1,9.9,3.3,12.4c2.7,1.6,6,1.6,8.7,0.2
		C187.4,378.1,187.5,378,187.6,378z M174.6,365.2L174.6,365.2z M184.1,375.8c-1.4,0-2.8-0.6-3.8-1.6c-1-1-1.7-2.4-1.7-3.8
		c0.1-1.6,0.8-3.1,2-4.1c0.8-0.7,1.9-1.1,2.9-0.9c2.7,0.4,3.1,3.5,3.4,5.6c0.1,0.4,0.1,0.9,0.2,1.2c0.2,0.6,0.2,1.3,0,1.9
		c-0.5,1.1-1.6,1.8-2.9,1.8L184.1,375.8z M183.1,366.8c-0.5,0-1,0.2-1.4,0.6c-0.9,0.8-1.4,1.8-1.4,3c0,1,0.5,2,1.2,2.7
		c0.7,0.7,1.7,1.2,2.8,1.2l0,0c0.6,0,1.3-0.3,1.5-0.8c0.1-0.4,0.1-0.7,0-1.1c-0.1-0.4-0.1-0.8-0.2-1.3c-0.3-2.3-0.6-4.1-2.1-4.3
		C183.3,366.9,183.2,366.9,183.1,366.8L183.1,366.8z"></path><path class="st0" d="M202.1,363.2c-3.1,0-6.1-0.3-9.1-0.8c-1.5-0.3-4-1-4.2-3.1c0-1.5,1.1-2.7,2.5-3c1.3-0.2,2.6-0.2,3.9,0.2
		c0.2,0,0.3,0.2,0.3,0.4c0,0.2-0.2,0.3-0.4,0.3c-1.2-0.3-2.4-0.4-3.6-0.2c-1.1,0.2-1.9,1.2-2,2.3c0.1,1.6,2.3,2.2,3.6,2.5
		c7.1,1.4,14.4,1,21.3-1c0.9-0.2,1.8-0.7,2.5-1.3c0.6-0.6,0.9-1.5,0.5-2.3c-0.2-0.4-0.6-0.6-1.1-0.6c-0.3,0-0.6,0.1-0.8,0.4
		c-0.1,0.2-0.3,0.2-0.5,0.1c0,0,0,0,0,0c-0.2-0.1-0.2-0.3-0.1-0.5c0.3-0.5,0.9-0.7,1.4-0.7c0.7,0,1.3,0.4,1.7,1
		c0.5,1.1,0.2,2.3-0.6,3.1c-0.8,0.7-1.8,1.2-2.8,1.5C210.5,362.6,206.3,363.2,202.1,363.2z"></path></g><g id="character"><path class="st0" d="M324.3,247.6c-2.8,2.3-5.7,4.6-9.2,5.8s-7.5,1.1-10.5-0.9c-4.4-3-5.1-9.1-5.5-14.4l-4.9-70.6
		c-0.3-4.1-0.5-8.3,1-12.1c3.3-7.8,13-10.5,21.4-10.9c14.6-0.7,30.2,3.2,40.2,13.9C382.8,186.1,345.4,230,324.3,247.6z"></path><path class="st1" d="M310.5,254.9c-2.3,0-4.5-0.6-6.4-1.9c-4.7-3.2-5.5-9.4-5.8-15l-4.9-70.6c-0.3-3.9-0.6-8.4,1.1-12.4
		c1.3-3.2,6.1-10.6,22.1-11.4c16.8-0.8,31.7,4.4,40.8,14.1c6.4,6.8,9.7,15.9,8.9,25.2c-1.6,25.2-26.9,52.8-41.6,65.1l-0.5-0.6
		l0.5,0.6c-2.6,2.2-5.7,4.6-9.4,5.9C313.8,254.6,312.2,254.9,310.5,254.9z M320,145.1c-1.1,0-2.1,0-3.2,0.1
		c-5,0.2-17.1,1.7-20.8,10.4c-1.5,3.7-1.2,8-1,11.8l4.8,70.6c0.4,5.2,1.1,11,5.2,13.9c2.5,1.8,6.2,2.1,9.8,0.8s6.4-3.5,9-5.6
		c14.5-12.1,39.5-39.3,41-64c0.7-8.9-2.4-17.7-8.5-24.1C348.1,150.1,335,145.1,320,145.1z"></path><path class="st1" d="M278.5,158.5c-13.1-11.2-24.2-25.3-30.1-41.5c-3.2-8.7-4.4-19.6,2-26.3c5.4-5.6,14.1-6.1,21.7-5.1
		c26.3,3.3,50,20.2,64.2,42.6c3,4.7,5.6,9.7,9.8,13.3c5.8,5,13.8,6.8,20,11.3c9.9,7.1,14.2,20.3,12.5,32.3s-8.7,22.8-17.4,31.3
		s-19.1,14.9-29.5,21.3c-2.9,0-6.1-48-9.9-52.1c-4.5-5-16-8.2-21.9-11.8C292.4,169.3,285.3,164.2,278.5,158.5z"></path><path class="st0" d="M312.9,197c1.5-2.1,3.8-3.7,6.3-4.3c5.9-1.4,11.8,2.3,13.2,8.2c1.4,5.9-2.3,11.8-8.2,13.2
		c-1.8,0.4-3.6,0.4-5.4-0.1"></path><path class="st1" d="M321.7,215.1c-1,0-2.1-0.1-3.1-0.4c-0.4-0.1-0.6-0.5-0.5-0.9c0,0,0,0,0,0c0.1-0.4,0.5-0.6,0.9-0.5
		c5.5,1.6,11.2-1.6,12.7-7s-1.6-11.2-7-12.7c-1.8-0.5-3.6-0.5-5.4-0.1c-2.4,0.6-4.4,2-5.9,4c-0.3,0.3-0.7,0.4-1.1,0.1
		c-0.3-0.2-0.4-0.7-0.2-1c1.6-2.3,4-3.9,6.7-4.6c6.3-1.6,12.7,2.2,14.4,8.5c1.6,6.3-2.2,12.7-8.5,14.4
		C323.9,215,322.8,215.1,321.7,215.1L321.7,215.1z"></path><path class="st1" d="M343.8,256.8c9.7,3.9,16.9,12.2,22.9,20.8c19.8,28.6,29.5,62.8,38.9,96.3c1.8,6.3,3.4,13.5,0,19.1
		s-10.3,7.2-16.6,8.3c-15.8,2.5-31.9,3-47.8,1.4c-6.3-0.6-13.2-1.9-17.3-6.8c-5.8-6.9-3.4-17.1-2.3-26c2.5-20.8-3.9-41.1-7.9-61.3
		c-2.5-12.4-8.9-38,2.6-47.9C323.5,254.5,335.2,253.3,343.8,256.8z"></path><path class="st2" d="M431,257c-12.6,2.5-25.5,6.5-34.7,15.5c-11,10.7-15,26.6-18.5,41.5c-7.4,31.9-14.8,63.7-22.1,95.5
		c26.1,0.6,52.2-0.2,78.3-2.6c5.5-0.5,11.2-1.1,15.8-4.2c5.3-3.6,8.1-9.8,10.6-15.8c10.3-25.3,18.2-51.4,23.6-78.1
		c3.2-15.6,17.5-54.1-7.3-56.1C461.8,251.6,445.6,254,431,257z"></path><path class="st0" d="M380.8,399.6c-0.1,0-0.1,0-0.2,0c-0.3-0.1-0.4-0.4-0.3-0.7c0,0,0,0,0,0c6-16.2,10.2-33.4,14.2-49.9
		c2.7-11.2,5.5-22.9,8.9-34.1c2.4-7.9,5.4-17,11.1-24.5c8.9-11.6,22.4-16.8,32.1-19c12.3-2.9,25.2-3,37.6-3.1l0,0
		c0.3,0,0.6,0.3,0.6,0.6c0,0.3-0.2,0.6-0.6,0.6c-12.4,0.1-25.1,0.1-37.3,3c-9.5,2.3-22.7,7.3-31.5,18.6c-5.6,7.3-8.6,16.2-10.9,24.1
		c-3.4,11.2-6.2,22.8-8.9,34c-4,16.6-8.1,33.8-14.2,50.1C381.2,399.4,381,399.6,380.8,399.6z"></path><path class="st1" d="M304.7,198.7c-0.2,2.3-0.7,4.6-1.6,6.7c-0.3,0.8-0.9,1.6-1.7,1.4c-0.6-0.2-0.8-0.9-0.8-1.6
		c-0.1-2.1,0.3-4.1,1.2-5.9c0.3-0.7,0.8-1.2,1.5-1.5c0.7-0.2,1.6,0.4,1.4,1.1"></path><path class="st0" d="M240.5,294c-7.3-6-17.1-7.9-26.1-5.1c-8.8,2.9-15.8,11-16.9,20.2c-0.5,4,0.3,8.4,3.3,11s8.6,2.2,10.2-1.4
		c-1.6,2.3-2.3,5-2,7.8c2.2,2,5.8,1.2,8.3-0.3s4.7-3.8,7.4-5c7.4-3,23.7,7.5,27.3-2C254.9,311.2,246.1,298.6,240.5,294z"></path><path class="st1" d="M212.3,328.4c-1.4,0-2.8-0.5-3.9-1.4c-0.1-0.1-0.2-0.3-0.2-0.5c-0.2-1.5,0-3.1,0.4-4.6
		c-0.4,0.2-0.8,0.3-1.3,0.4c-2.5,0.5-5-0.1-7-1.7c-2.8-2.5-4.1-6.7-3.6-11.7c1.4-9.7,8.1-17.8,17.4-20.8c8.8-2.9,19.4-0.8,26.8,5.3
		l0,0c5.7,4.6,14.8,17.7,11.7,26c-2.4,6.3-9.4,4.8-16.3,3.2c-4.2-0.9-8.6-1.9-11.4-0.8c-1.6,0.7-3.1,1.7-4.4,2.8
		c-0.9,0.7-1.9,1.4-2.9,2.1C216.1,327.8,214.2,328.3,212.3,328.4z M209.6,326.1c2,1.5,5,0.8,7.2-0.6c1-0.6,1.9-1.3,2.8-2
		c1.4-1.2,3.1-2.2,4.8-3c3.2-1.3,7.8-0.3,12.3,0.7c6.5,1.5,12.7,2.8,14.6-2.3c2.8-7.5-5.9-20-11.2-24.3c-7.1-5.8-17.1-7.8-25.4-5
		c-8.6,2.8-15.4,10.9-16.4,19.5c-0.2,2.1-0.4,7.3,3.1,10.4c1.6,1.3,3.7,1.8,5.7,1.3c1-0.2,1.9-0.7,2.6-1.5c0.2-0.4,0.5-0.8,0.7-1.2
		c0.2-0.3,0.7-0.4,1-0.2c0.3,0.2,0.4,0.6,0.3,0.9c-0.2,0.5-0.5,0.9-0.8,1.3C209.9,322,209.5,324,209.6,326.1L209.6,326.1z"></path><path class="st2" d="M317,287.9c-0.4,15.6-2.8,31.1-7,46.1c-2.8,10-8.4,21.5-18.7,22.8s-18.8-8.5-22.1-18.3s-3.6-20.7-8.5-29.9
		c-4.3,2.3-24.8,1.8-27.1,6c-1.7,3.1-0.9,7,0,10.4c3.9,14.2,10.1,27.6,18.3,39.8c5.9,8.7,13.7,17.2,24,18.9
		c8.5,1.4,17.1-2.1,24.2-6.9c16.1-10.9,27.1-28.2,33.2-46.7c5.8-17.7,11-41.6,6-60.2c-1.5-5.7-4.1-11.1-10.8-9.2
		C317.4,263.6,317.2,279.1,317,287.9z"></path><path class="st1" d="M310.5,228.2c0.3-0.6,0.7-1.3,1.3-1.4c0.9-0.1,1.4,1,1.3,1.9c-0.3,1.5-1.2,2.9-2.4,3.8
		c-1.8,1.5-3.9,2.7-6.1,3.4c-0.6,0.2-1.3,0.4-2,0.3c-1-0.1-2.3-1.3-1.5-2.4c0.5-0.7,2.1-0.4,2.9-0.6
		C306.7,232.6,309.2,230.8,310.5,228.2z"></path><path class="st1" d="M198.3,312.9c-0.1,0-0.1,0-0.2,0c-0.3-0.1-0.4-0.4-0.3-0.7c0,0,0,0,0,0c5.5-13.3,20.7-19.7,34.1-14.3
		c0.6,0.3,1.2,0.5,1.8,0.8c0.2,0.1,0.3,0.4,0.2,0.7c0,0,0,0,0,0c-0.1,0.2-0.4,0.3-0.7,0.2c-12.4-6.2-27.5-1.2-33.7,11.2
		c-0.3,0.6-0.5,1.1-0.8,1.7C198.7,312.8,198.5,312.9,198.3,312.9z"></path></g><g id="book"><path class="st0" d="M43.3,314.7c19.7,2.1,39.2,5.9,58.3,11.1c1.7,0.5,3.7,1.1,4.8,2.7c0.8,1.4,1.2,3.1,1,4.7
		c-0.1,5.1-0.1,10.3-0.2,15.4c-13.6-6.1-27.8-10.6-42.3-13.5c-3.4-0.7-6.8-1.2-10.1-1.7c-2.2-0.3-7.4,0.2-9.3-1.2
		C42.9,330.4,43.3,314.7,43.3,314.7z"></path><path class="st1" d="M107.2,349.4c-0.1,0-0.2,0-0.3-0.1c-13.5-6-27.7-10.6-42.2-13.5c-3.4-0.7-6.8-1.2-10.1-1.7
		c-0.9-0.1-1.8-0.1-2.6-0.1c-2.6,0-5.5-0.1-7.1-1.2c-0.6-0.5-2.5-1.9-2.4-17.5v-0.6c0-0.4,0.4-0.7,0.8-0.7l0,0
		c19.7,2.2,39.3,5.9,58.5,11.1c1.9,0.5,4,1.2,5.2,3c0.9,1.6,1.3,3.3,1.1,5.1l-0.2,15.4c0,0.3-0.1,0.5-0.3,0.6
		C107.5,349.3,107.3,349.4,107.2,349.4z M44,315.6c-0.1,13.6,1.4,15.7,1.8,16.1c1.2,0.9,4.1,0.9,6.2,0.9c0.9,0,1.9,0,2.8,0.1
		c3.3,0.5,6.8,1,10.2,1.7c14.2,2.9,28.1,7.3,41.4,13.1l0.2-14.3c0.2-1.5-0.1-3-0.8-4.3c-1-1.4-2.7-2-4.4-2.4
		C82.6,321.4,63.4,317.7,44,315.6z"></path><path class="st2" d="M106.9,349c-2.8-6.2,2.4-12.6-0.6-18.7c-2.2-4.5-7.5-6-11.9-6.9c-18.1-3.7-35.8-7-53.2-10
		c16-1.3,32.2-2.6,49.2-1.8c17.2,0.9,35.3,4.1,52.9,11.6c4.1,1.6,8,3.8,11.5,6.6c3.6,3,8.6,8.5,5.4,11.6c-3.4,3.2-12.5,3.9-17.2,4.9
		C131.1,348.8,119,349.7,106.9,349z"></path><path class="st2" d="M48.6,312.8c21.2,2,42.2,5.7,62.8,11.1c-0.8-5.7-1.6-11.3-2.5-17c-0.3-1.3-37.1-4.8-40.6-5.3
		c-5.3-0.7-13.5-3.4-18.4-2.2S48,308.3,48.6,312.8z"></path><path class="st0" d="M146.8,319.4c-0.4-3.8-0.8-7.6-1.2-11.4l-33.7-2.7c-1-0.2-1.9,0-2.8,0.5c-0.9,0.8-0.9,2.3-0.8,3.7
		c0.2,3.1-0.5,9.6,1.8,12.4c2.5,3.1,6.8,1.4,9.6,1C122.1,322.6,146.8,320.3,146.8,319.4z"></path><path class="st1" d="M114.3,324.4c-1.8,0.1-3.6-0.7-4.8-2.1c-1.9-2.4-1.9-6.7-1.9-10.1c0-1,0-2-0.1-2.7c-0.1-1.6-0.2-3.3,1-4.3
		c1-0.6,2.2-0.8,3.3-0.6l33.7,2.7c0.4,0,0.6,0.3,0.7,0.7l1.2,11.4l0,0c0,0.2,0,0.4-0.2,0.6c-0.5,0.6-2.4,1.1-23.5,3.3l-4,0.4
		c-0.5,0.1-1.1,0.2-1.8,0.3C116.8,324.2,115.5,324.4,114.3,324.4z M110.8,306c-0.5,0-0.9,0.1-1.3,0.3c-0.6,0.5-0.6,1.8-0.5,3
		c0.1,0.8,0.1,1.8,0.1,2.8c0,3,0,7.2,1.6,9.2c1.8,2.2,4.5,1.6,7.1,1.1c0.7-0.1,1.3-0.3,1.9-0.3s2-0.2,4-0.4c5.5-0.6,19.7-2,22.3-2.7
		l-1.1-10.3l-33.1-2.7C111.4,306,111.1,306,110.8,306z"></path><path class="st2" d="M146.1,308.2c-7.2,0.2-17-3.9-24.3-5.2c-8.4-1.4-16.8-2.4-25-3c-15.9-1.1-30.7,0.6-45.8,1
		C82.4,306.6,114.2,309,146.1,308.2z"></path><path class="st0" d="M149,332c-13.3,0-26.7-0.9-39.9-2.8c-0.3,0-0.5-0.3-0.4-0.6c0,0,0,0,0,0c0-0.3,0.3-0.5,0.6-0.4c0,0,0,0,0,0
		c13.7,1.9,27.5,2.9,41.4,2.8l0,0c0.3,0,0.5,0.2,0.5,0.5s-0.2,0.5-0.5,0.5H149z"></path><path class="st0" d="M102.6,307.8L102.6,307.8c-11.6-2.4-23.3-3.8-35-4.1c-0.3,0-0.5-0.2-0.5-0.5c0,0,0,0,0,0
		c0-0.3,0.2-0.5,0.5-0.5c0,0,0,0,0,0c11.8,0.3,23.5,1.7,35.1,4.1c0.3,0.1,0.4,0.3,0.4,0.6c0,0,0,0,0,0
		C103.1,307.6,102.9,307.8,102.6,307.8z"></path></g><g id="apple"><path class="st1" d="M86.6,292.5c1,3.1,2.5,6.3,5.1,8.4s6.5,2.8,9.2,1c2.1,2.4,5.7,3,8.8,2.1c3-1.1,5.7-2.9,7.8-5.3
		c4-4.2,7.3-9.1,9.5-14.5c1.8-4.3,2.9-9,1.7-13.5s-5.3-8.4-9.9-8.1c-3.8,0.2-7.3,3.1-11.1,2.4c-3-0.5-5.2-3.2-7.9-4.7
		c-3.1-1.5-6.7-1.4-9.7,0.3C80.6,265.9,83.9,284.2,86.6,292.5z"></path><path class="st0" d="M107.6,271.8c-1.1,0-2.2-0.2-3.2-0.6c-0.9-0.3-3.8-1.5-3.7-3.9c0.1-1.5,1.4-2.6,2.9-2.6
		c1.1,0.1,2.1,0.8,2.4,1.9c0.1,0.3-0.1,0.6-0.4,0.6c-0.3,0.1-0.6-0.1-0.6-0.4c-0.3-0.9-1.2-1.4-2.1-1.1c-0.7,0.2-1.2,0.8-1.2,1.5
		c-0.1,1.4,1.5,2.4,3,2.9c1.4,0.6,3,0.7,4.4,0.3c1.4-0.4,2.3-1.7,2.2-3.1c0-0.3,0.1-0.5,0.4-0.6c0.3,0,0.5,0.1,0.6,0.4
		c0.2,1.9-1,3.7-2.9,4.2C108.8,271.7,108.2,271.8,107.6,271.8z"></path></g><g id="html"><path class="st1" d="M115.4,129.7c0.7-1.1,2.1-1.7,3.4-1.4c1.3,0.3,2.4,1,3.4,1.8c3.8,2.8,7.4,5.7,11,8.7c1.4,1.2,2.8,2.6,2.8,4.4
		c0,1.4-1.1,2.7-2.1,3.7l-8.3,9c-1,1.4-2.4,2.4-4,3.1c-1.6,0.5-3.8-0.1-4.3-1.7s0.8-3.5,2.1-4.8c3.4-3.5,9.6-7.4,5.8-12.6
		C123.2,137.3,113.2,134,115.4,129.7z"></path><path class="st1" d="M97.6,129.7c-0.7-1.1-2.1-1.7-3.4-1.4c-1.3,0.3-2.4,1-3.4,1.8c-3.7,2.8-7.4,5.7-10.9,8.7
		c-1.3,1.2-2.8,2.6-2.8,4.4c0,1.4,1.1,2.7,2.1,3.7l8.3,9c1,1.4,2.4,2.4,4,3.1c1.6,0.5,3.8-0.1,4.3-1.7s-0.8-3.5-2.1-4.8
		c-3.4-3.5-9.6-7.4-5.8-12.6C89.8,137.3,99.8,134,97.6,129.7z"></path><path class="st1" d="M103.3,153.1c0,1.4,0.4,2.7,1.1,3.9c0.7,1.2,2.3,1.7,3.6,1.1c3-1.7,3.1-30.1-0.5-31.4
		C99.7,124.1,103,150.2,103.3,153.1z"></path></g><g id="code-2"><path class="st1" d="M403.3,183.7c-2.3,1-3,3.8-3.4,6.3c-0.5,3.9-0.6,7.8-0.2,11.6c0.3,1.6,0.3,3.2,0.2,4.9c-0.2,1.6-1.1,3.1-2.5,4
		c-1,0.6-2.2,0.6-3.2,1.3c-1.3,1.1-1.7,2.9-1,4.4c0.7,1.5,2,2.6,3.6,3.1c1.2,0.4,2.6,0.6,3.4,1.6c0.4,0.8,0.6,1.7,0.5,2.7l-0.1,6.7
		c0,2.5,0,5.2,1.4,7.3c1.3,1.8,3.4,2.9,5.7,3c2.2,0.1,4.4-0.4,6.4-1.5c1.3-0.5,2.3-1.5,2.9-2.8c0.4-1.3-0.5-3.1-1.9-3
		c-1.7,0.1-2.4,2.6-4.1,3c-0.9,0.2-1.9-0.2-2.5-1c-0.6-0.8-0.9-1.6-1.1-2.5c-3-10.9-0.9-22.6-2.5-33.8c-0.3-1.7-0.5-3.4-0.4-5.1
		c0.1-1.7,1.1-3.3,2.5-4.2c1.5-0.8,3.7-0.3,4.3,1.3c0.3,0.9,0.2,1.9,0.4,2.8c0.6,1.7,2.5,2.6,4.2,2.1c1.7-0.6,2.8-2.3,2.8-4.1
		c-0.1-1.8-0.9-3.4-2.3-4.5c-1.8-1.4-3.8-1.7-5.9-2.2C408.2,184.4,405.9,182.5,403.3,183.7z"></path><path class="st1" d="M439,183.7c2.3,1,3.1,3.8,3.5,6.3c0.6,3.9,0.7,7.8,0.4,11.6c-0.2,1.6-0.3,3.2-0.1,4.9c0.2,1.6,1.1,3.1,2.5,4
		c1,0.5,2.3,0.6,3.2,1.3c1.3,1.1,1.8,2.9,1.1,4.4c-0.7,1.5-2,2.6-3.6,3.1c-1.2,0.4-2.6,0.6-3.3,1.7c-0.4,0.8-0.6,1.8-0.5,2.7
		l0.2,6.7c0.1,2.5,0.1,5.2-1.3,7.3c-1.3,1.8-3.4,3-5.6,3.1c-2.2,0.1-4.4-0.4-6.4-1.4c-1.3-0.5-2.4-1.5-2.9-2.8
		c-0.4-1.3,0.4-3.1,1.8-3.1c1.7,0.1,2.5,2.5,4.2,2.9c0.9,0.1,1.9-0.2,2.5-1c0.5-0.8,0.9-1.6,1.1-2.6c2.9-11,0.6-22.6,2-33.8
		c0.3-1.7,0.4-3.4,0.3-5.1c-0.1-1.7-1.1-3.3-2.6-4.2c-1.5-0.8-3.7-0.2-4.3,1.4c-0.3,0.9-0.1,1.9-0.4,2.8c-0.6,1.7-2.5,2.7-4.2,2.1
		c-1.7-0.6-2.8-2.2-2.8-4c0-1.8,0.9-3.5,2.3-4.6c1.7-1.4,3.8-1.7,5.8-2.3C434.2,184.4,436.4,182.5,439,183.7z"></path></g></svg>