<svg transform="scale(1)" version="1.1" id="Layer_1" xmlns="http://www.w3.org/2000/svg" xmlns:xlink="http://www.w3.org/1999/xlink" x="0px" y="0px" viewBox="0 0 500 500" xml:space="preserve" class="show_show__wrapper__graphic__5Waiy "><title>React</title><style type="text/css">
	.st0{fill:#FFFFFF;}
	.st1{fill:#111111;}
	.st2{fill:#6c63ff;}
</style><g id="shadow"><path class="st0" d="M300.4,385c11.9-17,18.1-37.4,30.5-54.1c18.1-24.5,47.2-38.4,70.7-57.9c27.5-22.9,48-56.2,47.7-91.6
		s-25.5-71.3-61-77.1c-23.5-3.8-47,5.2-70.8,6.4c-22,1.1-43.7-4.5-65-10.1s-43-11.1-65-9.8s-44.7,10.5-56.7,28.7
		c-14.9,22.7-9.9,52.7-17.8,78.6c-7.6,25.2-26.8,45.1-43.2,65.9s-31,46-26.9,72c3.9,24.6,24.6,44.5,48.4,52.7
		c16,5.5,33.7,6.6,48.8,14.6c13.8,7.4,20.9,21.3,32.6,31.1c23.1,19.1,59.7,0.5,82.2-11.3C272.6,413.7,288.9,401.3,300.4,385z"></path><path class="st1" d="M197.3,443.2c-9.1,0-17.7-2.3-25-8.3c-4.6-4-8.8-8.4-12.7-13.1c-6-6.9-11.7-13.5-19.8-17.9
		c-9.1-4.9-19.4-7.2-29.3-9.5c-6.5-1.4-13-3.1-19.3-5.1c-26.1-9-45.3-29.9-49-53.3c-3.4-21.7,5.2-44.8,27-72.6
		c3-3.8,6.2-7.7,9.2-11.4c13.6-16.6,27.6-33.8,33.8-54.2c3-10.1,4.2-20.9,5.3-31.4c1.7-16.4,3.5-33.4,12.7-47.4
		c11-16.8,32.4-27.6,57.2-29.1c22.5-1.3,45.2,4.6,65.3,9.9c21,5.5,42.8,11.1,64.8,10c9-0.4,18.1-2,26.9-3.6
		c14.4-2.5,29.4-5.2,44-2.8c16.9,2.8,32.6,12.6,44.1,27.7c11.1,14.4,17.2,32,17.5,50.2c0.3,32.9-17.2,66.6-48,92.2
		c-8.1,6.8-17,13-25.7,18.9c-16.3,11.3-33.1,22.9-44.9,38.9c-6.4,8.6-11.2,18.4-15.8,27.8c-4.4,8.9-8.9,18-14.6,26.2l-0.6-0.4
		l0.6,0.4c-10.5,15-25.9,27.9-45.6,38.2C241,431.1,218,443.2,197.3,443.2z M193.7,91.3c-2.1,0-4.2,0.1-6.2,0.2
		c-24.4,1.4-45.3,12-56.1,28.4c-9,13.7-10.6,29.7-12.4,46.7c-1.1,10.6-2.2,21.5-5.3,31.7c-6.3,20.7-20.4,38-34.1,54.7
		c-3.1,3.7-6.2,7.6-9.2,11.4c-21.6,27.4-30.1,50.1-26.7,71.4c3.6,22.8,22.4,43.3,48,52.1c6.3,2,12.7,3.7,19.2,5.1
		c10,2.3,20.4,4.6,29.7,9.6c8.4,4.5,14.4,11.5,20.3,18.2c3.8,4.7,8,9,12.5,13c23.1,19.1,61-0.7,81.4-11.4
		c19.5-10.2,34.7-22.9,45.1-37.8c5.7-8.1,10.2-17.2,14.5-26c4.7-9.5,9.5-19.4,16-28.1c12-16.2,28.9-27.9,45.2-39.2
		c8.6-6,17.5-12.1,25.6-18.9c30-25,47.7-59,47.5-91c-0.4-17.8-6.4-35.1-17.2-49.2c-11.3-14.8-26.6-24.4-43.2-27.1
		c-14.4-2.3-29.2,0.2-43.5,2.8c-8.9,1.6-18,3.2-27.1,3.6c-22.2,1.1-44.1-4.6-65.2-10.1C234.2,96.5,213.9,91.3,193.7,91.3z"></path><path class="st0" d="M312.8,86.3c6.2-0.5,13.4-2.7,15.1-8.6s-3.5-11.7-8.9-15c-9.7-6-21-8.8-32.4-8.2c-11.2,0.6-26.1,8.8-16.2,20.9
		C279.3,86.1,300.1,87.3,312.8,86.3z"></path><path class="st1" d="M305.3,87.3c-13.6,0-28.4-3-35.4-11.5c-4.2-5.1-3.8-9.3-2.6-11.8c2.7-6.2,11.8-9.9,19.4-10.3
		c11.5-0.6,23,2.3,32.8,8.3c5.6,3.5,11,9.5,9.2,15.9c-2.1,7.2-11.7,8.8-15.7,9.1l0,0C310.5,87.2,307.9,87.3,305.3,87.3z M312.8,86.3
		L312.8,86.3z M289.8,55.1c-1,0-2,0-3,0.1c-7,0.4-15.6,3.8-18.1,9.4c-1.4,3.2-0.6,6.6,2.4,10.3c8,9.7,26.8,11.8,41.7,10.6
		c3.7-0.3,12.6-1.7,14.4-8c1.6-5.5-3.4-11-8.5-14.2C310,58,300,55.1,289.8,55.1z"></path><path class="st0" d="M387.7,309.5c-10.6,8.5-21.6,16.6-31.1,26.2s-17.7,21.1-21.4,34.2s-2.5,27.9,5.2,39.1s22.6,17.6,35.6,13.6
		c14.6-4.5,22.7-19.6,32.2-31.5c10.5-13.2,24.1-23.7,34.6-37c17-21.8,24.4-49.6,20.6-77c-0.7-4.9-1.9-10-5.1-13.8
		c-11.5-13.7-24.1,5-31.9,12.4C414,287.6,401.1,298.9,387.7,309.5z"></path><path class="st1" d="M367.8,424.6c-10.6,0-21.5-5.6-28.1-15.1c-7.4-10.6-9.4-25.5-5.3-39.7c3.3-11.7,10.6-23.3,21.6-34.5
		c7.8-7.9,16.6-14.8,25.2-21.6c2-1.6,4-3.1,6-4.7l0,0c13.3-10.6,26.3-22,38.6-33.8c1.2-1.2,2.6-2.7,4.1-4.3
		c5.5-6,12.4-13.4,19.6-13.2c3.3,0.1,6.5,1.8,9.3,5.2c3.4,4,4.5,9.4,5.2,14.2c3.8,27.6-3.7,55.6-20.8,77.6
		c-5.3,6.7-11.5,12.8-17.5,18.7c-6,5.7-11.7,11.8-17.1,18.2c-2,2.5-3.9,5.1-5.8,7.6c-7.4,10.1-15,20.5-26.8,24.1
		C373.5,424.2,370.7,424.6,367.8,424.6z M449.3,259.1c-6.5,0-13,7.1-18.2,12.8c-1.5,1.6-2.9,3.1-4.2,4.4
		c-12.4,11.8-25.4,23.2-38.8,33.9c-2,1.6-4,3.2-6,4.8c-8.5,6.7-17.3,13.6-25,21.5c-10.8,11-18,22.3-21.2,33.8
		c-3.9,13.8-2,28.2,5.1,38.5c8,11.5,22.6,17.1,34.7,13.3c11.4-3.5,18.8-13.7,26.1-23.6c1.9-2.6,3.8-5.2,5.8-7.7
		c5.4-6.5,11.1-12.6,17.2-18.4c6-5.9,12.1-11.9,17.4-18.6c16.8-21.7,24.2-49.3,20.5-76.5c-0.6-4.5-1.7-9.6-4.9-13.4
		c-2.5-3-5.2-4.6-8.1-4.6L449.3,259.1z M387.7,309.5L387.7,309.5z"></path></g><g id="phone"><path class="st1" d="M239.8,148.1c-13.9-0.7-28.9-1.1-40.4,6.7c-10.7,7.3-16,20.2-20.7,32.3l-77.1,199c-2.4,6.1-4.7,12.8-2.6,18.9
		c2.9,8.1,12.2,11.7,20.4,14.2l68.6,21.1c11.7,3.6,24.2,7.2,36.1,4.2c14.4-3.7,24.7-16.2,32.7-28.9c17.1-27.1,28.2-57.4,39.2-87.4
		c13.6-37,27.2-74.1,40.1-111.4c3.1-9,6.2-18.1,6.7-27.6c0.5-8.6-1.6-18.9-7.4-25.6s-18.5-7.4-26.7-8.9
		C286.1,150.5,262.9,149.3,239.8,148.1z"></path><path class="st0" d="M197.2,172.1c-4.6,6.5-7.5,14-10.3,21.3c-21.7,56.3-43.5,112.5-65.2,168.8c-1.7,4.5-3.5,9.2-2.3,13.9
		c1.7,6.8,8.9,10.5,15.4,13c22.4,8.6,46.1,12.9,69.7,17.1c6,1.1,12.3,2.1,17.9-0.2c7.8-3.2,11.7-11.7,14.9-19.5l81.1-196.2
		c2.3-5.5,4.5-11.9,1.8-17.2c-3.1-5.8-10.6-7.2-17.1-7.9c-21.3-2.3-42.7-3.7-64.2-4.3c-7.7-0.2-16.1-1.9-23.6-1.6
		S201.2,166.3,197.2,172.1z"></path><path class="st0" d="M167.4,408.5c-2-4.6-7.4-6.8-12.1-4.7c-4.6,2-6.8,7.4-4.7,12.1c2,4.6,7.4,6.8,12.1,4.7c4-1.8,6.2-6.1,5.3-10.4
		"></path><path class="st1" d="M159.3,422.1c-5.5,0.1-10-4.2-10.1-9.7c-0.1-5.5,4.2-10,9.7-10.1c4-0.1,7.7,2.3,9.3,5.9c0.2,0.4,0.1,0.8-0.3,1
		s-0.8,0.1-1-0.3c0,0,0-0.1,0-0.1c-1.9-4.3-6.8-6.2-11.1-4.4c-4.3,1.9-6.2,6.8-4.4,11.1c1.9,4.3,6.8,6.2,11.1,4.4
		c3.7-1.6,5.7-5.6,4.9-9.6c-0.1-0.4,0.2-0.8,0.6-0.8c0.4,0,0.7,0.2,0.8,0.5c1,5.1-2.1,10.2-7.1,11.7
		C160.9,422,160.1,422.1,159.3,422.1z"></path><path class="st0" d="M204,434.8c-6.3,0-12.6-1.4-18.2-4.3c-0.2-0.1-0.3-0.2-0.3-0.4c0-0.2,0.1-0.4,0.2-0.5l1.5-0.9
		c0.2-0.1,0.5-0.1,0.7,0.2c0.1,0.2,0.1,0.5-0.2,0.7c0,0,0,0,0,0L187,430c14,6.6,30.5,4.5,42.5-5.2c10.1-8.5,15.3-21.5,19.9-32.9
		l68.4-171.1c6.4-15.9,13-32.4,15.4-49.7c0-0.3,0.3-0.5,0.6-0.4c0.3,0,0.5,0.3,0.4,0.6c0,0,0,0,0,0c-2.5,17.4-9.1,33.9-15.5,49.9
		l-68.4,171.1c-4.6,11.5-9.9,24.6-20.1,33.3C222.8,431.6,213.5,434.9,204,434.8z"></path><path class="st1" d="M206,176.4c-0.1,2.8,1.6,5.4,4.3,6.2c2.2,0.4,4.4-0.3,6.1-1.8c3-2.5,6.1-9.9,1.3-12.2S206.2,171.5,206,176.4z"></path><path class="st1" d="M271.3,173.8c-4.6-0.4-9.5-0.4-13.8,1.5c-1.5,0.6-2.7,1.6-3.7,2.9c-0.9,1.3-1.1,3-0.4,4.5
		c1,1.9,3.4,2.5,5.6,2.9l20.1,3.5c2.7,0.6,5.4,0.8,8.1,0.6c5.4-0.7,10.9-7.8,5.3-12.1c-2.1-1.6-5.9-1.7-8.4-2.1
		C279.8,174.7,275.6,174.2,271.3,173.8z"></path><path class="st1" d="M303.1,179.3c-2,1.7-3.3,4.1-3.5,6.7c-0.2,2.3,0.3,5,2.2,6.3s4.9,0.8,7.1-0.4
		C317.8,186.8,311.8,172.8,303.1,179.3z"></path><path class="st1" d="M183.6,249.5c0,3,1.5,5.7,3.8,7.5c2.2,1.4,4.7,2.4,7.2,2.9c11.4,2.9,23.7,6,37.4,8.1c6,0.9,12.6,1.6,19.7-0.8
		c7.6-2.5,16-9.7,17-17.1c1.1-8-6.3-11.8-13.3-13.6c-13.5-3.6-27-3.6-40.1-2c-8.2,1-15.1-1.2-22.6,2.4
		C188.3,239.1,183.5,243.2,183.6,249.5z"></path><path class="st1" d="M185.2,274.4c0,1.6,0.8,3.1,2.1,4c1.2,0.8,2.6,1.3,4,1.6l24.3,6.5c2,0.7,4.1,0.9,6.1,0.7
		c2.2-0.3,4.6-1.9,5.2-4c0.9-3.1-2.1-5.3-4.8-6.5c-7.8-3.3-15.9-3.3-23.1-5.6C195.4,270.1,185.4,266.5,185.2,274.4z"></path><path class="st1" d="M134.9,365.9c-0.1,2.6,1,5.1,3,6.7c2.3,1.7,5.6,1.5,8.2,0.3c6.9-3.1,8.8-12.4,2.1-17
		C141.9,351.6,134.9,359.7,134.9,365.9z"></path><path class="st1" d="M159.1,376.5c0.1,4.5,4.3,7.9,8.7,8.8c3.9,0.8,8-0.1,11.2-2.5c6.7-5.4,4.9-16.5-3.1-19.6
		C168.3,360.3,158.9,368.8,159.1,376.5z"></path><path class="st1" d="M197.5,389c2.8,3.4,7.2,5,11.5,4.3c5.3-1,9.4-5.6,11-10.7c2.6-8.4-7-15.7-15-13.6
		C196.4,371.3,191.8,382,197.5,389z"></path></g><g id="path"><path class="st1" d="M214.2,99.2c-0.3,0-0.6-0.1-0.8-0.2c-0.7-0.5-0.9-1.4-0.4-2.1c0,0,0,0,0,0c0.7-1.1,1.5-2.3,2.3-3.3
		c0.4-0.7,1.4-0.9,2.1-0.5c0.7,0.4,0.9,1.4,0.5,2.1c0,0.1-0.1,0.1-0.1,0.1c-0.8,1.1-1.5,2.2-2.2,3.2
		C215.2,98.9,214.7,99.2,214.2,99.2z"></path><path class="st1" d="M213.6,202.1c-0.6,0-1.1-0.3-1.3-0.8c-1.3-2.5-2.5-4.8-3.6-7c-0.4-0.7-0.2-1.6,0.5-2.1
		c0.7-0.4,1.6-0.2,2.1,0.5c0,0.1,0.1,0.1,0.1,0.2c1,2.1,2.2,4.4,3.5,6.9c0.4,0.7,0.1,1.6-0.6,2C214.1,202,213.9,202.1,213.6,202.1
		L213.6,202.1z M206.8,188.1c-0.6,0-1.1-0.4-1.4-0.9c-1.1-2.5-2-4.9-2.9-7.3c-0.3-0.8,0.1-1.6,0.9-1.9c0.8-0.3,1.6,0.1,1.9,0.9l0,0
		c0.8,2.3,1.8,4.7,2.8,7.1c0.3,0.8,0,1.6-0.7,2c0,0,0,0,0,0C207.2,188.1,207,188.1,206.8,188.1L206.8,188.1z M201.6,173.4
		c-0.7,0-1.3-0.4-1.4-1.1c-0.7-2.6-1.3-5.2-1.8-7.7c-0.2-0.8,0.4-1.6,1.2-1.8c0.8-0.2,1.6,0.4,1.8,1.2c0.5,2.5,1.1,5,1.8,7.4
		c0.2,0.8-0.3,1.6-1.1,1.9C201.9,173.4,201.7,173.5,201.6,173.4L201.6,173.4z M198.7,158.2c-0.8,0-1.4-0.6-1.5-1.4
		c-0.2-2.6-0.4-5.2-0.4-7.9c0-0.8,0.7-1.5,1.5-1.5l0,0c0.8,0,1.5,0.7,1.5,1.5c0,2.6,0.1,5.1,0.4,7.6c0.1,0.8-0.5,1.5-1.3,1.6
		c0,0,0,0,0,0L198.7,158.2z M198.7,142.7h-0.1c-0.8-0.1-1.4-0.8-1.4-1.6c0,0,0,0,0,0c0.2-2.6,0.6-5.2,1-7.8c0.1-0.8,0.9-1.4,1.8-1.2
		s1.4,0.9,1.2,1.8c-0.4,2.5-0.8,5.1-1,7.6C200.2,142.1,199.5,142.7,198.7,142.7L198.7,142.7z M201.4,127.4c-0.1,0-0.3,0-0.4,0
		c-0.8-0.2-1.3-1-1.1-1.8c0.7-2.5,1.5-5.1,2.4-7.5c0.3-0.8,1.1-1.2,1.9-0.9c0,0,0,0,0,0c0.8,0.3,1.2,1.1,0.9,1.9c0,0,0,0,0,0
		c-0.9,2.4-1.6,4.8-2.3,7.3C202.7,127,202.1,127.4,201.4,127.4L201.4,127.4z M206.7,112.8c-0.2,0-0.4,0-0.6-0.1
		c-0.8-0.3-1.1-1.2-0.7-2c0,0,0,0,0,0c1.1-2.4,2.3-4.8,3.6-7c0.4-0.7,1.3-1.1,2-0.7c0.7,0.4,1.1,1.3,0.7,2c0,0.1-0.1,0.1-0.1,0.2
		c-1.2,2.2-2.4,4.5-3.4,6.8C207.8,112.4,207.3,112.8,206.7,112.8L206.7,112.8z"></path><path class="st1" d="M219.3,212.4c-0.5,0-1.1-0.3-1.3-0.8l-1.9-3.5c-0.4-0.7-0.2-1.6,0.5-2.1c0.7-0.4,1.6-0.2,2.1,0.5
		c0,0.1,0.1,0.1,0.1,0.2l1.9,3.5c0.4,0.7,0.1,1.6-0.6,2C219.8,212.3,219.5,212.4,219.3,212.4z"></path><path class="st1" d="M117.9,195.5c-0.7,0-1.3-0.5-1.5-1.2c-0.3-1.3-0.5-2.7-0.7-4c-0.1-0.8,0.5-1.6,1.3-1.7
		c0.8-0.1,1.6,0.5,1.7,1.3c0.2,1.3,0.4,2.6,0.6,3.9c0.2,0.8-0.4,1.6-1.2,1.8L117.9,195.5z"></path><path class="st1" d="M183.6,249.5c-1.2,0-2.5,0-3.7-0.1c-0.8,0-1.5-0.7-1.4-1.6c0,0,0,0,0,0c0.1-0.8,0.8-1.4,1.6-1.4
		c2.6,0.2,5.2,0.2,7.9,0c0.8-0.1,1.5,0.6,1.6,1.4s-0.6,1.5-1.4,1.6C186.6,249.4,185.1,249.5,183.6,249.5z M171.9,248.5h-0.3
		c-2.7-0.5-5.4-1.1-8-1.9c-0.8-0.2-1.2-1.1-1-1.9s1.1-1.2,1.9-1l0,0c2.5,0.7,5.1,1.4,7.7,1.8c0.8,0.1,1.4,0.8,1.4,1.6
		C173.5,248,172.8,248.6,171.9,248.5L171.9,248.5z M156.5,243.9c-0.2,0-0.4,0-0.6-0.1c-2.5-1.1-5-2.4-7.3-3.8
		c-0.7-0.4-1-1.3-0.5-2.1c0.4-0.7,1.3-1,2.1-0.5c2.3,1.3,4.6,2.5,7,3.6c0.8,0.3,1.1,1.2,0.8,2C157.7,243.5,157.1,243.9,156.5,243.9
		L156.5,243.9z M142.7,235.7c-0.3,0-0.7-0.1-0.9-0.3c-2.2-1.7-4.2-3.5-6.2-5.4c-0.6-0.6-0.5-1.6,0.1-2.1c0.6-0.5,1.5-0.5,2,0
		c1.9,1.8,3.8,3.6,5.9,5.2c0.7,0.5,0.8,1.5,0.3,2.1C143.6,235.5,143.1,235.7,142.7,235.7z M131.3,224.4c-0.5,0-0.9-0.2-1.2-0.6
		c-1.7-2.1-3.3-4.4-4.7-6.7c-0.4-0.7-0.2-1.6,0.5-2.1s1.6-0.2,2.1,0.5c0,0,0,0,0,0c1.4,2.2,2.9,4.4,4.5,6.4c0.5,0.6,0.4,1.6-0.2,2.1
		C131.9,224.3,131.6,224.4,131.3,224.4L131.3,224.4z M122.8,210.7c-0.6,0-1.1-0.3-1.4-0.9c-1.2-2.5-2.2-5-3-7.6
		c-0.3-0.8,0.1-1.6,0.9-1.9c0.8-0.3,1.6,0.1,1.9,0.9c0,0,0,0.1,0,0.1c0.8,2.5,1.8,4.9,2.9,7.3c0.4,0.7,0,1.6-0.7,2c0,0,0,0,0,0
		C123.3,210.7,123.1,210.7,122.8,210.7L122.8,210.7z"></path><path class="st1" d="M196,248.3c-0.8,0.1-1.6-0.5-1.6-1.4s0.5-1.6,1.4-1.6c1.3-0.2,2.6-0.5,3.8-0.9c0.8-0.3,1.6,0.2,1.9,1
		c0.3,0.8-0.2,1.6-1,1.9c-0.1,0-0.1,0-0.2,0c-1.3,0.3-2.7,0.6-4,0.9L196,248.3z"></path><path class="st1" d="M84,295.2c-0.8,0.1-1.6-0.5-1.7-1.3s0.5-1.6,1.3-1.7l0,0c1.3-0.4,2.6-0.7,3.9-1c0.8-0.2,1.6,0.3,1.8,1.1
		c0.2,0.8-0.3,1.6-1.1,1.8c-1.3,0.3-2.6,0.6-3.8,1C84.3,295.2,84.1,295.2,84,295.2z"></path><path class="st1" d="M178.8,292.6c-0.1,0-0.2,0-0.3,0c-2.5-0.5-5-1-7.5-1.4c-0.8-0.1-1.4-0.9-1.2-1.8s0.9-1.4,1.8-1.2
		c2.5,0.4,5.1,0.9,7.6,1.4c0.8,0.1,1.4,0.8,1.3,1.6C180.4,292.1,179.6,292.7,178.8,292.6L178.8,292.6L178.8,292.6z M95.3,292.6
		c-0.8,0.1-1.6-0.5-1.7-1.4s0.5-1.6,1.3-1.6c2.5-0.5,5-1,7.6-1.4c0.8-0.1,1.6,0.4,1.8,1.2s-0.4,1.6-1.2,1.8c-2.5,0.4-5,0.9-7.4,1.4
		L95.3,292.6z M163.7,290h-0.2c-2.5-0.3-5-0.6-7.5-0.8c-0.8-0.1-1.4-0.8-1.4-1.6c0.1-0.8,0.8-1.4,1.6-1.4c2.6,0.2,5.1,0.5,7.6,0.9
		c0.8,0.1,1.5,0.8,1.4,1.6S164.6,290.1,163.7,290L163.7,290z M110.3,290c-0.8,0.1-1.5-0.6-1.6-1.4s0.6-1.5,1.4-1.6l0,0
		c2.5-0.3,5.1-0.6,7.7-0.9c0.8-0.1,1.6,0.5,1.6,1.4c0.1,0.8-0.5,1.6-1.4,1.6c-2.5,0.2-5,0.5-7.5,0.8L110.3,290z M148.5,288.6
		L148.5,288.6c-2.6-0.1-5.2-0.2-7.7-0.3c-0.8,0-1.5-0.7-1.5-1.5c0-0.8,0.6-1.5,1.4-1.5c0,0,0.1,0,0.1,0c2.6,0,5.1,0.1,7.7,0.3
		c0.8,0,1.5,0.7,1.5,1.5C150,288,149.3,288.6,148.5,288.6L148.5,288.6z M125.6,288.6c-0.8,0-1.5-0.6-1.5-1.5c0-0.8,0.6-1.5,1.5-1.5
		l0,0c2.6-0.1,5.1-0.2,7.7-0.3l0,0c0.8,0,1.5,0.7,1.5,1.5c0,0.8-0.7,1.5-1.5,1.5c0,0,0,0,0,0C130.7,288.3,128.1,288.5,125.6,288.6
		L125.6,288.6z"></path><path class="st1" d="M190.1,295.3c-0.1,0-0.3,0-0.4,0c-1.3-0.4-2.6-0.7-3.9-1c-0.8-0.2-1.3-1-1.1-1.8c0.2-0.8,1-1.3,1.8-1.1
		c1.3,0.3,2.6,0.7,3.9,1c0.8,0.2,1.3,1,1.1,1.8C191.4,294.9,190.8,295.3,190.1,295.3L190.1,295.3z"></path><path class="st1" d="M234.1,302.8c-0.8,0-1.4-0.6-1.5-1.4c-0.1-1.4-0.2-2.7-0.3-4c0-0.8,0.6-1.5,1.4-1.6s1.5,0.6,1.6,1.4
		c0.1,1.3,0.2,2.7,0.3,4c0.1,0.8-0.5,1.5-1.4,1.6c0,0,0,0,0,0L234.1,302.8z"></path><path class="st1" d="M301.7,390.5L301.7,390.5c-2.7-0.1-5.2-0.4-7.8-0.9c-0.8-0.2-1.3-0.9-1.2-1.8s0.9-1.3,1.8-1.2
		c2.4,0.5,4.8,0.7,7.3,0.8c0.8,0,1.5,0.7,1.5,1.5S302.5,390.5,301.7,390.5L301.7,390.5L301.7,390.5z M286.8,387.7
		c-0.2,0-0.3,0-0.5-0.1c-2.5-0.8-4.9-1.8-7.2-2.9c-0.7-0.4-1.1-1.3-0.7-2s1.3-1.1,2-0.7c2.2,1.1,4.5,2,6.9,2.8
		c0.8,0.3,1.2,1.1,0.9,1.9C288,387.3,287.5,387.7,286.8,387.7L286.8,387.7z M273.1,381.2c-0.3,0-0.6-0.1-0.8-0.2
		c-2.2-1.4-4.3-2.9-6.3-4.5c-0.7-0.5-0.8-1.5-0.2-2.1s1.5-0.8,2.1-0.2c1.9,1.5,4,3,6.1,4.3c0.7,0.4,0.9,1.4,0.5,2.1
		C274.1,381,273.7,381.2,273.1,381.2L273.1,381.2z M261.2,371.9c-0.4,0-0.8-0.2-1-0.4c-1.8-1.8-3.6-3.7-5.2-5.7
		c-0.5-0.6-0.4-1.6,0.2-2.1c0.6-0.5,1.6-0.4,2.1,0.2c1.6,1.9,3.2,3.7,5,5.5c0.6,0.6,0.6,1.5,0,2.1
		C262,371.7,261.6,371.9,261.2,371.9L261.2,371.9z M251.6,360.2c-0.5,0-1-0.2-1.2-0.7c-1.4-2.1-2.7-4.3-4-6.6c-0.3-0.8,0-1.6,0.7-2
		c0.7-0.3,1.5-0.1,1.9,0.6c1.2,2.2,2.5,4.3,3.9,6.4c0.5,0.7,0.3,1.6-0.4,2.1c0,0,0,0,0,0C252.2,360.1,251.9,360.2,251.6,360.2
		L251.6,360.2z M244.4,346.9c-0.6,0-1.1-0.4-1.4-0.9c-1-2.3-2-4.7-2.9-7.1c-0.3-0.8,0-1.6,0.8-2c0.8-0.3,1.6,0,2,0.8
		c0,0.1,0.1,0.1,0.1,0.2c0.9,2.4,1.8,4.7,2.8,6.9c0.3,0.8,0,1.6-0.8,2C244.8,346.9,244.6,346.9,244.4,346.9L244.4,346.9z
		 M239.2,332.7c-0.7,0-1.3-0.4-1.4-1.1c-0.7-2.4-1.3-4.9-1.9-7.4c-0.2-0.8,0.3-1.6,1.1-1.8c0.8-0.2,1.6,0.3,1.8,1.1
		c0.5,2.5,1.2,4.9,1.8,7.3c0.2,0.8-0.2,1.6-1,1.9C239.5,332.7,239.4,332.7,239.2,332.7L239.2,332.7z M235.9,317.9
		c-0.7,0-1.4-0.5-1.5-1.3c-0.4-2.5-0.8-5-1.1-7.6c-0.1-0.8,0.5-1.6,1.3-1.7c0.8-0.1,1.6,0.5,1.7,1.3c0.3,2.5,0.7,5,1.1,7.4
		c0.1,0.8-0.4,1.6-1.2,1.7c0,0,0,0,0,0L235.9,317.9z"></path><path class="st1" d="M309.3,390.2c-0.8,0-1.4-0.6-1.5-1.3c-0.1-0.8,0.5-1.6,1.3-1.7c0,0,0,0,0,0c1.3-0.1,2.6-0.4,3.8-0.6
		c0.8-0.2,1.6,0.4,1.8,1.2c0.2,0.8-0.4,1.6-1.2,1.8c-1.4,0.3-2.7,0.5-4.1,0.6L309.3,390.2z"></path><path class="st1" d="M256.9,233.2c-0.2,0-0.5-0.1-0.7-0.2c-1.2-0.6-2.4-1.2-3.6-1.9c-0.7-0.4-1-1.3-0.7-2c0.4-0.7,1.3-1,2-0.7
		c0,0,0.1,0,0.1,0c1.1,0.6,2.3,1.2,3.5,1.8c0.7,0.4,1,1.3,0.7,2C258,232.9,257.5,233.2,256.9,233.2L256.9,233.2z"></path><path class="st1" d="M313.3,246.4h-1.4c-0.8,0-1.5-0.7-1.5-1.5c0-0.8,0.7-1.5,1.5-1.5c2.7,0,5.4,0,8.1-0.2c0.8,0,1.5,0.6,1.6,1.4
		c0,0.8-0.6,1.5-1.4,1.6C317.9,246.4,315.6,246.4,313.3,246.4z M303.8,246.1h-0.1c-2.7-0.2-5.5-0.5-8.2-0.9
		c-0.8-0.1-1.4-0.9-1.3-1.7c0.1-0.8,0.9-1.4,1.7-1.3l0,0c2.6,0.4,5.3,0.7,8,0.9c0.8,0,1.5,0.7,1.4,1.6S304.6,246.1,303.8,246.1
		L303.8,246.1z M328.2,245.5c-0.8,0-1.5-0.6-1.6-1.4s0.6-1.5,1.4-1.6c2.7-0.3,5.3-0.7,8-1.2c0.8-0.2,1.6,0.4,1.8,1.2
		s-0.4,1.6-1.2,1.8c-2.7,0.5-5.4,0.9-8.2,1.3L328.2,245.5z M287.6,243.8h-0.3c-2.7-0.6-5.4-1.2-8-1.9c-0.8-0.2-1.3-1-1.1-1.8
		c0.2-0.8,1-1.3,1.9-1.1l0,0c2.6,0.7,5.2,1.3,7.8,1.9c0.8,0.1,1.4,0.8,1.4,1.6S288.5,243.9,287.6,243.8L287.6,243.8z M344.2,242.5
		c-0.8,0.1-1.6-0.5-1.7-1.3s0.5-1.6,1.3-1.7c2.6-0.7,5.2-1.4,7.7-2.3c0.8-0.3,1.6,0.2,1.9,1c0.3,0.8-0.2,1.6-1,1.9
		c-2.6,0.9-5.3,1.6-7.9,2.3C344.5,242.5,344.4,242.5,344.2,242.5L344.2,242.5z M271.9,239.5c-0.2,0-0.3,0-0.5-0.1
		c-2.6-0.9-5.2-1.9-7.7-2.9c-0.8-0.3-1.1-1.2-0.8-2c0,0,0,0,0,0c0.3-0.8,1.2-1.1,1.9-0.8c0,0,0.1,0,0.1,0c2.5,1,5,2,7.5,2.9
		c0.8,0.3,1.2,1.1,0.9,1.9C273.2,239.1,272.6,239.5,271.9,239.5L271.9,239.5z M359.7,237.4c-0.8,0-1.5-0.7-1.5-1.5
		c0-0.6,0.4-1.2,0.9-1.4c2.5-1,5-2.1,7.4-3.3c0.7-0.4,1.6-0.1,2,0.6c0.4,0.7,0.1,1.6-0.6,2c0,0-0.1,0-0.1,0.1
		c-2.5,1.2-5,2.3-7.5,3.4C360.1,237.4,359.9,237.4,359.7,237.4L359.7,237.4z M374.4,230.3c-0.8,0-1.5-0.7-1.5-1.5
		c0-0.5,0.3-1,0.8-1.3c2.3-1.3,4.6-2.7,6.9-4.2c0.7-0.5,1.6-0.3,2.1,0.4s0.3,1.6-0.4,2.1c0,0-0.1,0-0.1,0.1c-2.3,1.5-4.7,2.9-7,4.3
		C374.9,230.2,374.6,230.3,374.4,230.3L374.4,230.3z M388,221.3c-0.8,0-1.5-0.7-1.5-1.5c0-0.5,0.2-0.9,0.6-1.2
		c2.1-1.6,4.3-3.3,6.3-5c0.6-0.5,1.6-0.5,2.1,0.2c0.5,0.6,0.5,1.6-0.2,2.1c-2.1,1.8-4.2,3.5-6.4,5.2
		C388.6,221.3,388.3,221.4,388,221.3z M400.4,210.7c-0.4,0-0.8-0.2-1.1-0.4c-0.6-0.6-0.6-1.5,0-2.1c1.9-1.9,3.8-3.8,5.6-5.8
		c0.5-0.6,1.5-0.7,2.1-0.1c0,0,0,0,0,0c0.6,0.6,0.7,1.5,0.1,2.1c-1.8,2-3.8,4-5.7,5.9C401.1,210.6,400.8,210.7,400.4,210.7
		L400.4,210.7z"></path><path class="st1" d="M411.3,198.6c-0.3,0-0.7-0.1-0.9-0.3c-0.7-0.5-0.8-1.5-0.3-2.1c0,0,0,0,0,0c0.8-1,1.6-2.1,2.4-3.1
		c0.5-0.7,1.4-0.9,2.1-0.4c0.7,0.5,0.9,1.4,0.4,2.1c0,0,0,0.1-0.1,0.1c-0.8,1.1-1.6,2.2-2.5,3.2
		C412.2,198.4,411.8,198.6,411.3,198.6z"></path></g><g id="logo-linkedin"><path class="st2" d="M311.3,356.7c-1.8,2.1-2.1,5-2.4,7.8c-1.1,13.7-1.6,27.5,0.7,41.1c0.5,3,1.2,6.1,3.3,8.3
		c2.4,2.6,6.2,3.3,9.7,3.7c11.8,1.3,23.7,1.3,35.5-0.1c3.4-0.4,7-0.9,9.6-3.1c3.1-2.8,3.8-7.3,4.2-11.4c1.2-11.9,2-24.1-0.1-35.9
		c-0.6-3.2-1.5-6.7-4.1-8.7c-1.9-1.5-4.5-2-6.9-2.4c-5.4-0.9-10.8-1.7-16.2-2.4c-6.5-0.9-13-1-19.5-0.4
		C320.6,353.8,314.6,352.9,311.3,356.7z"></path><path class="st1" d="M322.5,363.9c-1.8,1.5-2.7,3.8-2.5,6.1c0,1.6,0.6,3.2,1.6,4.5c1.5,1.5,3.8,2,5.9,1.2c2-0.9,3.4-2.7,3.6-4.9
		C331.7,366.4,327.1,360.4,322.5,363.9z"></path><path class="st1" d="M321.6,383.5l-0.9,21.5l8.4,0.4c0.3-7.1,1.6-15,0.8-22.1C329.4,377.6,321.9,377.6,321.6,383.5z"></path><path class="st1" d="M333.8,405.4l6.6-0.7c0.9-3,0.4-6.1,0-9.2s-0.3-6.4,1.3-9s5.6-3.9,7.9-1.9c1.5,1.3,1.9,3.4,2.1,5.4
		c0.4,5.2,0.5,10.5,0.3,15.8c1.9,1.9,5.3,0.6,6.6-1.6s1.1-5.1,0.9-7.7l-0.5-5.7c-0.3-3.5-0.7-7.2-2.7-10.1
		c-3.5-4.6-10.1-5.4-14.7-1.9c0.7-0.6-1.4-2.7-1.8-2.9c-1.5-0.7-2.7-0.2-3.9,0.8c-2,1.7-1.7,3.7-1.6,6.1
		C334.4,390.3,334.2,397.9,333.8,405.4z"></path></g><g id="facebook"><path class="st0" d="M208.7,57.6c-1.5,2.6-1.7,5.9-1.9,9c-0.5,12.2-0.6,24.5-0.5,36.7c0,3.8,0.1,7.8,1.7,11.1
		c1.7,3.3,4.6,5.7,8.1,6.9c3.3,1,6.8,1.6,10.3,1.6c11.3,0.7,22.7,1.4,33.9,0.3c3.1-0.3,6.3-0.8,8.7-3c3.1-2.9,3.9-7.7,4.4-12.2
		c1.2-13.4,1.4-26.9,0.6-40.4c-0.2-3.8-0.7-8.1-3.4-10.5c-2-1.7-4.6-2-7.1-2.1c-9.9-0.6-19.9-0.8-29.8-0.7c-5,0-10,0.2-15,0.4
		C215.1,54.9,211.2,53.4,208.7,57.6z"></path><path class="st1" d="M247.4,124.5c-7,0-14.1-0.4-21-0.9c-3.5-0.1-7.1-0.6-10.4-1.7c-3.7-1.2-6.8-3.8-8.6-7.3
		c-1.8-3.6-1.8-7.9-1.8-11.4c-0.1-11-0.1-23.9,0.5-36.8c0.1-3.4,0.4-6.7,2-9.4l0,0c2.1-3.6,5.4-3.4,8.2-3.3c0.8,0.1,1.6,0.1,2.4,0.1
		c4.8-0.2,9.9-0.3,15.1-0.4c9.9-0.1,20,0.1,29.9,0.7c2.8,0.2,5.5,0.4,7.6,2.3c2.8,2.5,3.4,6.7,3.6,11c0.9,13.5,0.7,27-0.6,40.5
		c-0.5,4.8-1.4,9.7-4.6,12.7c-2.6,2.4-6.1,2.9-9.1,3.2C256.2,124.4,251.8,124.6,247.4,124.5z M209.4,57.9L209.4,57.9
		c-1.4,2.4-1.6,5.3-1.8,8.7c-0.5,12.8-0.5,25.7-0.5,36.7c0,3.3,0,7.5,1.6,10.8c1.6,3.1,4.4,5.4,7.7,6.5c3.3,1,6.7,1.5,10.1,1.6
		c11.1,0.7,22.6,1.4,33.8,0.3c2.8-0.3,6-0.8,8.2-2.8c2.8-2.6,3.6-7.2,4.1-11.7c1.2-13.4,1.4-26.9,0.6-40.3c-0.2-3.9-0.7-7.8-3.1-9.9
		c-1.7-1.5-4.1-1.8-6.7-1.9c-9.9-0.5-19.9-0.8-29.8-0.7c-5.1,0-10.2,0.2-15,0.4c-0.9,0-1.7,0-2.6-0.1
		C213.4,55.2,211,55.1,209.4,57.9z"></path><path class="st2" d="M237.9,61.8c-2.3-0.1-4.5,0.7-6.3,2c-2.9,2.4-3.5,6.5-3.7,10.2c-0.8,13.5,0.2,27,1.3,40.4
		c0.1,1.1,1.1,1.8,2.1,1.7c0,0,0.1,0,0.1,0c3-0.4,6.1-0.4,9.1,0c1,0.2,2-0.5,2.1-1.6c0-0.2,0-0.4,0-0.5c-0.9-6.4-1.5-12.9-1.7-19.4
		c0-1,0.7-1.8,1.7-1.9c1.4-0.2,2.8-0.3,4.2-0.2c1,0.1,1.9-0.7,2-1.8c0,0,0-0.1,0-0.1l-0.2-6.3c0-1-0.9-1.8-1.9-1.8
		c-1.6,0-3.3,0.1-4.9,0.4c-1,0.1-2-0.6-2.1-1.6c0,0,0-0.1,0-0.1c-0.1-2.4,1-4.8,2.9-6.2c1.9-1.3,4.3-1.6,6.5-1
		c1,0.3,2.1-0.2,2.4-1.2c0-0.1,0.1-0.2,0.1-0.3c0.2-2.1,0.5-4.1,1-6.1c0.2-1-0.3-1.9-1.3-2.2C247,62.7,242.5,61.9,237.9,61.8z"></path></g><g id="instagram"><path class="st2" d="M82,269.6H49c-7.3,0-13.3,6-13.3,13.3v33c0,7.3,6,13.3,13.3,13.3h33c7.3,0,13.3-6,13.3-13.3v-33
		C95.3,275.5,89.3,269.6,82,269.6z M78.7,303.7c-1.6,5.7-6.3,9.9-12.1,10.9c-5.8,0.8-11.6-1.9-14.7-6.9c-2.9-5.1-2.6-11.5,1-16.1
		c2-2.5,4.9-4.2,8-4.9c4.3-1,8.4-0.6,11.9,2.1C77.7,292.4,80.3,297.6,78.7,303.7L78.7,303.7z M85.4,285.9c-0.6,0.8-1.5,1.3-2.4,1.5
		c-2.4,0.6-4.9-0.8-5.5-3.2c-0.2-0.7-0.2-1.4,0-2.1c0.5-1.8,2-3.1,3.8-3.4c1.8-0.3,3.6,0.6,4.6,2.1
		C86.7,282.4,86.5,284.4,85.4,285.9L85.4,285.9z"></path></g><g id="twitter"><path class="st0" d="M97.9,156.3c-1.5,1.7-1.7,4.1-1.9,6.3c-0.9,11.1-1.3,22.3,0.6,33.3c0.4,2.4,1,5,2.7,6.8c2,2.1,5,2.7,7.9,3
		c9.6,1.1,19.2,1,28.8-0.1c2.8-0.3,5.7-0.7,7.8-2.6c2.5-2.2,3.1-5.9,3.4-9.3c1-9.7,1.6-19.5-0.1-29.1c-0.5-2.6-1.2-5.4-3.3-7.1
		c-1.7-1.1-3.6-1.8-5.6-1.9c-4.4-0.7-8.8-1.3-13.2-1.9c-5.2-0.7-10.5-0.8-15.8-0.3C105.5,154,100.6,153.2,97.9,156.3z"></path><path class="st1" d="M120.5,207.3c-4.5,0-9-0.2-13.4-0.8c-3.1-0.4-6.2-1-8.3-3.3c-1.9-2-2.5-4.7-2.9-7.1c-2-12-1.3-24.2-0.6-33.5
		c0.2-2.5,0.5-4.9,2.1-6.7c2.3-2.6,5.9-2.8,9.2-2.9c0.9,0,1.8,0,2.6-0.1c5.3-0.5,10.7-0.4,16,0.3c4.4,0.6,8.8,1.2,13.2,1.9
		c1.9,0.3,4.1,0.7,5.9,2.1c2.3,1.8,3.1,4.8,3.6,7.5c1.6,9.1,1.2,18.3,0.1,29.3c-0.4,3.6-1,7.4-3.6,9.8c-2.2,2-5.3,2.4-8.2,2.7
		C130.9,207,125.7,207.3,120.5,207.3z M115.8,154c-2.2,0-4.4,0.1-6.6,0.3c-0.8,0.1-1.7,0.1-2.7,0.1c-3,0.1-6.2,0.2-8,2.4l0,0
		c-1.3,1.5-1.6,3.6-1.8,5.9c-0.8,9.2-1.4,21.3,0.6,33.2c0.4,2.2,0.9,4.7,2.5,6.4c1.8,1.9,4.6,2.5,7.4,2.8c9.5,1.1,19.1,1,28.6-0.1
		c2.7-0.3,5.5-0.7,7.4-2.4c2.3-2,2.8-5.5,3.1-8.8c1.1-10.9,1.5-20-0.1-28.9c-0.4-2.4-1.1-5.1-3-6.6c-1.4-1.1-3.2-1.4-5.2-1.8
		c-4.4-0.7-8.8-1.4-13.1-1.9C121.9,154.2,118.9,154,115.8,154z M97.9,156.3L97.9,156.3z"></path><path class="st2" d="M136.6,173.6c1.8-0.2,3.5-0.9,4.9-2c-1.8,4.1-5.2,7.3-9.4,8.7c-0.9,4.6-3.3,8.8-6.7,12
		c-3.5,3.2-8.3,4.6-12.9,3.9c-4.6-0.9-8.6-4.6-9.3-9.3c3.7,1.9,8.2,1.7,11.7-0.5c-9.6-2.9-15-13-12.1-22.7c0-0.1,0.1-0.3,0.1-0.4
		c-0.2,0.6,3.4,3.5,4,3.9c1.5,1.3,3.1,2.4,4.8,3.4c3.2,1.9,7.3,3.6,11,3.8C119,164.9,134.2,166,136.6,173.6z"></path></g><g id="blabla"><path class="st0" d="M436,201.7c-1.1-10.1-8.5-18.7-17.3-23.9c-9.7-5.8-22.7-11.1-33.6-6.9c-10.6,4.1-19.8,10.8-25.8,20.7
		c-3.3,5.5-5.5,12-4.7,18.3c0.8,5.9,4.2,11.2,8.3,15.5c2,2.1,4.3,4.1,6.7,5.8c-0.8,3-1.6,5.9-2.4,8.8c-0.6,2.6-0.9,6,1.4,7.2
		s5-0.8,6.8-2.8l6.5-6.9c5.5,1.9,11.3,2.7,17.1,2.4c13.4-0.8,26.3-8.4,32.9-20.1C435.1,214.4,436.6,208,436,201.7z"></path><path class="st1" d="M370.2,248.3c-0.6,0-1.3-0.2-1.8-0.4c-1.5-0.8-3.1-2.9-1.8-8.1c0.4-1.6,0.8-3.2,1.3-4.7c0.3-1.2,0.7-2.4,1-3.6
		c-2.3-1.7-4.4-3.5-6.4-5.6c-4.9-5.2-7.8-10.5-8.5-16c-1-7.4,2-14.3,4.8-18.8c5.7-9.4,14.5-16.4,26.1-21c9-3.5,20.5-1.1,34.2,7
		c10,5.9,16.6,15.1,17.7,24.5l0,0c0.6,6.5-0.9,13-4.2,18.6c-6.6,11.6-19.7,19.6-33.5,20.4c-5.7,0.3-11.5-0.4-16.9-2.3l-6.2,6.6
		C373.6,247.5,371.6,248.3,370.2,248.3z M393.6,170c-2.8,0-5.6,0.5-8.2,1.5c-11.4,4.4-19.9,11.3-25.4,20.4
		c-2.6,4.3-5.5,10.9-4.6,17.8c0.7,5.1,3.4,10.2,8.1,15.1c2,2.1,4.2,4,6.6,5.7c0.3,0.2,0.4,0.5,0.3,0.8c-0.4,1.4-0.7,2.8-1.1,4.1
		c-0.4,1.6-0.9,3.1-1.2,4.7c-0.6,2.4-0.9,5.4,1,6.4s4.2-0.9,5.8-2.6l6.5-6.9c0.2-0.2,0.5-0.3,0.8-0.2c5.4,1.9,11.1,2.7,16.8,2.4
		c13.3-0.8,25.9-8.6,32.3-19.7c3.2-5.3,4.6-11.5,4-17.7c-1-8.9-7.4-17.7-17-23.4C408.9,172.8,400.6,170,393.6,170z"></path><path class="st2" d="M375.1,182.2c-5.7,4.3-10.1,10-12.7,16.6c-1.7,3.8-2.4,8-2.1,12.1c0.6,6,4.3,11.4,9.2,14.9
		c5,3.4,10.9,5.3,16.9,5.5c6,0.2,12-0.5,17.9-1.9c5.1-1,10.1-2.8,14.8-5.2c4.7-2.5,8.4-6.4,10.8-11.1c2.6-6.2,2.3-13.2-0.8-19.2
		c-3.1-5.9-8.1-10.6-14.2-13.4C402.2,174.3,386.7,173.7,375.1,182.2z"></path><path class="st0" d="M376.4,210.6c-1.8,3.1-3,7.3-0.7,10.1c2.1,2.5,6.1,2.3,8.7,0.5c1.8-1.1,2.8-3,2.9-5.1c-0.1-2-2.1-3.9-4.1-3.5
		c5.9-6.9,13.4-12.2,21.9-15.5c0.8-0.4,1.6-0.5,2.4-0.4c0.9,0.1,1.5,0.8,1.6,1.6c0,0.7-0.6,1.3-0.8,2c-0.5,1.4,0.8,2.9,2.3,3.3
		c1.5,0.2,3,0,4.4-0.6c3.4-1.2,7.2-3.3,7.7-6.9c0.4-3.1-2-5.9-4.9-7.1c-4-1.6-7.2-0.8-10.9,0.6c-4,1.4-8,2-11.9,3.9
		C387.1,197.2,380.7,203.2,376.4,210.6z"></path><path class="st1" d="M380.1,223.4c-1.9,0.1-3.7-0.7-4.9-2.1c-3-3.6-0.5-8.8,0.6-10.9l0,0c4.3-7.6,10.9-13.7,18.7-17.4
		c2.4-1.1,4.9-2,7.5-2.6c1.5-0.4,3-0.8,4.5-1.4c3.7-1.3,7.2-2.2,11.5-0.5c3,1.2,5.9,4.3,5.4,7.9c-0.4,3.2-3.1,5.6-8.1,7.5
		c-1.5,0.7-3.2,0.9-4.8,0.7c-1.1-0.3-2-1-2.5-1.9c-0.4-0.7-0.5-1.6-0.3-2.3c0.1-0.3,0.3-0.6,0.4-0.9c0.2-0.3,0.3-0.6,0.4-0.9
		c0-0.4-0.5-0.8-1-0.9c-0.7,0-1.4,0.1-2,0.4c-7.9,3-14.9,7.8-20.6,14.1c0.5,0.1,0.9,0.4,1.4,0.7c1.1,0.8,1.8,2.1,1.9,3.4
		c0,2.3-1.2,4.5-3.2,5.8C383.5,222.8,381.8,223.4,380.1,223.4z M413.3,188.9c-2.2,0.1-4.3,0.6-6.3,1.4c-1.5,0.5-3.1,1-4.6,1.4
		c-2.5,0.6-4.9,1.5-7.3,2.5c-7.6,3.6-13.9,9.5-18.1,16.8l0,0c-1,1.8-3.2,6.4-0.8,9.2c1.8,2.2,5.5,1.9,7.7,0.4c1.5-1,2.5-2.6,2.5-4.4
		c-0.1-0.9-0.6-1.8-1.3-2.3c-0.5-0.4-1.2-0.6-1.9-0.5c-0.3,0.1-0.6-0.1-0.8-0.3c-0.2-0.3-0.1-0.6,0.1-0.9c6-7,13.6-12.4,22.2-15.7
		c0.9-0.4,1.8-0.6,2.8-0.5c1.2,0.1,2.2,1.1,2.3,2.4c0,0.6-0.2,1.1-0.5,1.6c-0.1,0.2-0.2,0.4-0.3,0.6c-0.1,0.4,0,0.8,0.2,1.1
		c0.3,0.6,0.9,1,1.6,1.2c1.3,0.2,2.7,0,3.9-0.6c4.5-1.6,6.9-3.7,7.2-6.3c0.4-2.8-2-5.3-4.5-6.3C416.1,189.2,414.7,188.9,413.3,188.9
		z M376.4,210.6L376.4,210.6z"></path></g></svg>