<svg transform="scale(1)" version="1.1" id="Layer_1" xmlns="http://www.w3.org/2000/svg" xmlns:xlink="http://www.w3.org/1999/xlink" x="0px" y="0px" viewBox="0 0 500 500" xml:space="preserve" class="show_show__wrapper__graphic__5Waiy "><title>React</title><style type="text/css">
	.st0{fill:#FFFFFF;}
	.st1{fill:#111111;}
	.st2{fill:#6c63ff;}
</style><g id="shadow"><path class="st0" d="M94.2,409.6c-3.4,1.8-6.5,4.3-9,7.3c-2.4,3.1-3.7,7.1-2.8,11c1.2,5.4,6.4,8.9,11.4,11.5
		c11.5,6,24.1,10.3,37,10.7s26.3-3.2,36.1-11.7c3-2.6,5.9-6.1,5.8-10.1s-3.3-7.3-6.9-8.9s-7.6-2-11.6-2.5c-2.2-0.1-4.4-0.8-6.3-2
		c-1.8-1.3-3-3.8-2.2-5.8c0.6-1.4,1.8-2.3,2.6-3.6c6.5-11.2-16-7.1-19.6-6.8C116.5,399.7,104.7,403.5,94.2,409.6z"></path><path class="st1" d="M132.8,450.9c-0.7,0-1.4,0-2.1,0c-11.8-0.4-24.4-4-37.3-10.8c-4.8-2.5-10.4-6.1-11.8-12c-0.8-3.7,0.3-8,3-11.6
		c2.6-3.4,6.3-5.8,9.2-7.5c10.6-6.2,22.5-10,34.8-11c0.4,0,1-0.1,1.7-0.2c8.1-1,16.8-1.6,19.2,2c1,1.5,0.8,3.5-0.6,6
		c-0.4,0.6-0.8,1.1-1.2,1.6c-0.5,0.5-1,1.2-1.3,1.9c-0.7,1.8,0.4,3.9,1.9,4.9c1.8,1.1,3.9,1.7,6,1.9l1.6,0.2c3.4,0.4,7,0.9,10.2,2.4
		c4.3,2,7.2,5.7,7.4,9.6c0.1,3.6-1.9,7.2-6,10.7C158.5,446.6,146,450.9,132.8,450.9z M140.2,398.5c-3.2,0.1-6.5,0.3-9.7,0.8
		c-0.8,0.1-1.4,0.2-1.8,0.2c-12,1-23.7,4.7-34.1,10.8l0,0c-3.4,1.8-6.3,4.2-8.8,7.1c-2.4,3.2-3.5,7.1-2.7,10.3
		c1.2,5.3,6.5,8.6,11,11c12.8,6.7,25.1,10.3,36.7,10.6c13.6,0.5,26.6-3.7,35.6-11.5c3.8-3.2,5.6-6.5,5.5-9.5c-0.2-4-3.6-7-6.5-8.3
		s-6.5-1.8-9.8-2.2l-1.6-0.2c-2.4-0.2-4.7-0.9-6.7-2.1c-2-1.4-3.4-4.2-2.4-6.7c0.4-0.8,0.9-1.6,1.6-2.3c0.4-0.4,0.8-0.9,1.1-1.4
		c1.1-1.9,1.4-3.4,0.7-4.4C147.2,399,143.8,398.5,140.2,398.5z M94.2,409.6L94.2,409.6z"></path><path class="st0" d="M238.3,394.9c-7.4,2.8-13.7,10.2-12.5,18c0.7,4.9,4.2,9.1,8.3,11.8s9,4.1,13.8,5.5
		c40.9,11.5,83.1,18.9,125.6,19.1c9.1,0,18.4-0.3,27.1-2.9s17-7.8,21.8-15.5c1.9-3.2,3.2-7,2.4-10.5c-1.6-6.8-9.7-9.5-16.6-10.7
		c-13.5-2.4-27.3-3.6-41-4.9l-70.8-6.4c-10.4-0.9-21.3-1-31.5-3.5C255.9,392.9,247.2,391.5,238.3,394.9z"></path><path class="st1" d="M375,450h-1.5c-39.6-0.2-80.8-6.4-125.8-19.2c-5.2-1.5-9.8-2.9-14-5.6c-4.8-3.1-8-7.6-8.7-12.3
		c-1.2-8.5,5.8-16.1,13-18.8l0,0c9.5-3.6,18.8-1.9,26.9,0.1c7.4,1.8,15.2,2.3,22.9,2.8c2.8,0.2,5.7,0.4,8.5,0.6l70.8,6.3
		c13.5,1.2,27.4,2.5,41,4.9c10,1.8,15.8,5.6,17.2,11.3c1,4.2-0.8,8.3-2.5,11.1c-4.4,7.3-12.3,12.9-22.2,15.9
		C392.1,449.7,383,450,375,450z M250,393.6c-3.9,0-7.7,0.6-11.4,2l0,0c-6.7,2.5-13.2,9.5-12.1,17.2c0.6,4.2,3.5,8.4,8,11.2
		c3.9,2.6,8.5,4,13.6,5.4c44.8,12.7,85.8,18.9,125.3,19.1c8.3,0,17.9-0.1,26.9-2.8c9.5-2.8,17.1-8.2,21.3-15.2
		c1.5-2.5,3.2-6.3,2.3-10c-1.2-5.1-6.6-8.5-16-10.1c-13.5-2.4-27.4-3.6-40.9-4.9l-70.8-6.4c-2.8-0.2-5.7-0.4-8.5-0.6
		c-7.7-0.5-15.6-1-23.1-2.8C259.9,394.4,254.9,393.7,250,393.6z M238.4,394.9L238.4,394.9z"></path></g><g id="clap"><path class="st1" d="M244.7,54.8c-0.5-1.3-1.2-2.5-2.1-3.6c-1-1-2.5-1.7-3.4-1.2c-1.2,0.7-0.4,2.9,0.5,4.6
		c1.3,2.5,7.3,16.3,9.3,15.7C251.4,69.6,245.7,57.2,244.7,54.8z"></path><path class="st1" d="M219.8,73.2c-1.3-0.6-2.6-1.3-3.7-2.2c-1.1-0.8-2.1-1.8-2.6-3.1c-0.6-1.8,1.2-2.5,3.2-1.9
		c2.3,0.8,4.4,2,6.2,3.5c4.1,3,9,6.5,12.4,10.1C233.5,81.2,223,74.8,219.8,73.2z"></path><path class="st1" d="M202.9,95.9c-1.8-1.8-1.5-3.4-0.1-3.8s3.7,0,5.9,0.5c3.2,0.7,19.5,2.8,15.5,6.4
		C221.7,101.2,208.7,97.7,202.9,95.9z"></path></g><g id="character-in-phone"><path class="st0" d="M255.9,85.4c3.7-4.8,9.5-6.4,14.9-7.7c18.2-4.4,104-18.1,125.7-20c6.8-0.6,14.2-1,19,3.1
		c5.5,4.7,5.8,13.6,5.7,21.7c-0.8,98.8-1.6,200.9-2.4,306.3c-0.1,14-0.7,29.5-9.8,38.4c-9.6,9.5-24.9,7.8-38.1,5.7l-41-6.4
		l-38.3-5.2c-11.3-1.5-23.8-3.9-31.4-14.6c-6.9-9.8-7.3-23.3-7.4-35.5c-0.5-91.6-0.9-180.1-1.4-265.4
		C251.5,98.6,251.7,90.8,255.9,85.4z"></path><path class="st1" d="M387.4,435.2c-5.5-0.1-11.1-0.6-16.5-1.6l-41-6.4l-38.3-5.2c-12-1.6-24.3-4.1-31.9-14.9
		c-6.8-9.7-7.5-23.1-7.6-36l-1.4-265.4c0-7.5,0.3-15.2,4.5-20.7l0,0c3.7-4.8,9.4-6.5,15.4-8c18.9-4.6,104.8-18.2,125.8-20
		c7.5-0.6,14.7-0.9,19.6,3.2c5.6,4.8,6,13.6,6,22.3l-2.4,306.3c-0.1,14.8-1,30-10,38.9C403.8,433.5,395.8,435.2,387.4,435.2z
		 M403.4,58.1c-2.2,0-4.5,0.2-6.8,0.4c-21,1.8-106.7,15.4-125.6,20c-5.7,1.4-11.1,3-14.5,7.4c-3.9,5.1-4.2,12.6-4.2,19.8l1.4,265.4
		c0.1,12.6,0.7,25.8,7.3,35.1c7.3,10.3,19.2,12.7,30.9,14.3l38.3,5.2l41,6.4c13.9,2.2,28.3,3.5,37.5-5.5c8.6-8.5,9.4-23.4,9.5-37.9
		l2.4-306.3c0.1-8.3-0.3-16.8-5.4-21.2C412.1,58.8,408,58.1,403.4,58.1L403.4,58.1z M255.9,85.4L255.9,85.4z"></path><g id="phone"><path class="st1" d="M247.1,86.6c3.7-4.8,9.5-6.4,14.9-7.7c18.2-4.4,104-18.1,125.7-19.9c6.8-0.6,14.2-1,19,3
			c5.5,4.6,5.8,13.5,5.7,21.7c-0.8,98.4-1.6,200.2-2.4,305.2c-0.1,14-0.7,29.4-9.8,38.2c-9.6,9.5-24.9,7.8-38.1,5.7l-41-6.4
			l-38.3-5.2c-11.3-1.5-23.8-3.9-31.4-14.6c-6.9-9.8-7.3-23.2-7.4-35.4c-0.5-91.3-0.9-179.4-1.4-264.5
			C242.7,99.8,242.9,92,247.1,86.6z"></path><path class="st0" d="M253.4,90.7c3.4-4.2,8.7-5.6,13.7-6.8c16.6-3.9,94.6-15.9,114.2-17.5c6.1-0.5,12.8-0.9,17.1,2.7
			c4.9,4.1,5.1,11.8,5.1,18.8c-0.9,85.4-1.9,173.1-2.9,263.1c-0.1,11.9-0.7,25.1-8.8,32.9c-8.5,8.3-22.1,7.3-34,5.9l-36.7-4.4
			l-34.6-3.5c-10.3-1-21.6-2.8-28.5-11.8c-6.3-8.3-6.7-19.9-6.8-30.5c-0.6-79.3-1.2-156.4-1.8-231.1
			C249.4,102.3,249.6,95.5,253.4,90.7z"></path><path class="st1" d="M286.6,78.2c1.8-0.5,4.6-0.9,7.2-1.4c8.7-1.4,47.7-7.5,57.1-8.9c2.9-0.4,6-0.9,8-1c2.3-0.1,2.3,0.3,2.2,0.6
			c-1.1,4.3-2.2,8.5-3.3,12.7c-0.1,0.6-0.5,1.2-4.1,2.1c-3.8,1-9.9,1.8-15.2,2.6l-16.9,2.4l-16.5,2.4c-5,0.7-10.5,1.5-14,1.6
			c-3.2,0.1-3.5-0.4-3.6-0.9c-1-3.7-1.9-7.4-2.9-11.1C284.6,79.1,284.6,78.8,286.6,78.2z"></path><path class="st0" d="M328.8,402c1.8,6.8-1.1,14.4-6.2,16.3s-11.4-2.1-13.7-8.6C302.5,391.5,323.9,383.1,328.8,402z"></path><path class="st1" d="M320,419.5c-1.5,0-2.9-0.4-4.3-1c-3.5-1.8-6.2-4.8-7.5-8.6c-2.2-6.2-1.4-12,2-15.8c2.5-2.8,6.3-4.1,10-3.2
			c4.4,1.1,7.7,5.1,9.3,11c1.9,7.1-1.3,15.1-6.7,17.1C321.9,419.3,321,419.5,320,419.5z M318,392.1c-2.5,0-4.9,1.1-6.6,3
			c-3.1,3.4-3.7,8.6-1.8,14.3c1.1,3.4,3.5,6.1,6.7,7.7c1.9,0.9,4,1.1,6,0.4c4.7-1.8,7.4-9,5.8-15.4l0,0c-1.4-5.4-4.4-9-8.2-9.9
			C319.3,392.1,318.7,392.1,318,392.1z"></path></g><g id="character_1"><path class="st0" d="M307.2,392l5,0.4c-0.7-23.2,0.5-46.4,3.6-69.3c0.2-2.2,0.8-4.4,1.8-6.4v-0.1c0.9-1.4,2.9-1.8,4.3-0.9
			c0.8,0.6,1.3,1.5,1.4,2.5c0.8,26,0.6,52-0.5,78.1l10,0.9c-6.5-37.1-4.4-75.3,6.3-111.4c0.4-1.1,0.3-2.3-0.1-3.4
			c-1.5-3.6-6.4-2.3-9.7-0.6c-4,2.1-11,4.3-14.1,7.6c-2.7,2.8-3.1,7.8-3.9,11.6c-2.3,10.1-4,20.3-5.1,30.6
			c-1,10.1-1.5,20.3-1.3,30.5C304.9,364.9,305.3,391.7,307.2,392z"></path><path class="st1" d="M332.8,398L332.8,398l-10.1-0.9c-0.4,0-0.7-0.4-0.7-0.8c1.1-25.9,1.3-52.1,0.5-78c0-1-0.8-1.9-1.8-2.2
			c-1-0.3-2,0.1-2.5,1c-1,1.9-1.6,4-1.7,6.1c-3.1,22.9-4.3,46-3.5,69.2c0,0.2-0.1,0.4-0.2,0.6c-0.2,0.1-0.4,0.2-0.6,0.2l-5-0.4h-0.1
			c-0.9-0.1-2.5-0.4-3-30v-0.6c-0.4-20.6,1.8-41.2,6.4-61.2c0.2-0.8,0.4-1.6,0.5-2.5c0.6-3.4,1.4-7.1,3.6-9.5s6.3-4.1,9.9-5.7
			c1.6-0.7,3.2-1.4,4.4-2s5.2-2.6,8.1-1.5c1.2,0.4,2.1,1.3,2.6,2.5c0.5,1.3,0.6,2.7,0.1,4c-10.6,36-12.8,74.1-6.3,111.1
			c0,0.2,0,0.5-0.2,0.6C333.2,398,333,398,332.8,398z M323.6,395.7l8.3,0.8c-6.3-36.9-4.1-74.8,6.5-110.8c0.3-1,0.3-2-0.1-2.9
			c-0.3-0.8-0.9-1.4-1.7-1.6c-1.9-0.7-4.8,0.3-6.9,1.4c-1.3,0.7-2.9,1.4-4.5,2.1c-3.5,1.5-7.4,3.2-9.4,5.3s-2.6,5.6-3.2,8.7
			c-0.2,0.9-0.3,1.8-0.5,2.6c-4.6,20-6.7,40.4-6.3,60.9v0.6c0.4,23.8,1.5,27.8,1.9,28.5l3.9,0.3c-0.6-22.9,0.6-45.9,3.6-68.6
			c0.2-2.3,0.8-4.6,1.9-6.7c0.9-1.5,2.6-2.1,4.2-1.7c1.7,0.4,2.8,1.9,2.9,3.6C324.9,344,324.7,370,323.6,395.7L323.6,395.7z"></path><path class="st1" d="M298.9,214.9c-8.4,15.2-22.1,26.8-38.5,32.6c-0.5,0.1-1,0.4-1.3,0.9c-0.2,0.5-0.2,1,0,1.5l4,16.1
			c11.6-7.5,22.4-16.1,32.2-25.9c4.2-4.3,8.4-9.1,10.1-15c1.2-4,1.2-8.4,0-12.4C303.5,207.6,300.3,212.4,298.9,214.9z"></path><path class="st1" d="M308.3,209.5c-2.3,1.2-3.8,3.4-4.1,6c-0.2,2.5-0.1,5.1,0.4,7.5c3,19.3,3.6,39,1.6,58.5
			c-0.2,1.8-0.4,3.7,0.4,5.4c1.3,2.7,4.8,3.6,7.8,3.9c11.3,1.2,22.7-1,32.8-6.1c2.1-1.1,4.3-2.4,5.5-4.5c1.1-2.1,1.4-4.5,0.8-6.8
			c-0.6-2.2-1.5-4.4-2.6-6.5l-10.4-20.8c-4.2-8.4-8.4-16.8-13.3-24.8c-2.2-3.7-4.7-7.6-8.2-10.1
			C316.4,209.4,311.3,208.2,308.3,209.5z"></path><path class="st1" d="M314.6,215.5c7.3,7.1,15.7,13.1,22.6,20.5s12.5,16.9,12.4,27.1c0,6.8-2.7,13.4-6.3,19.2s-8.3,10.8-13,15.8
			c1.9,2.1,4.1,4,6.5,5.4c2.5,1.5,5.4,1.8,8.2,0.9c1.7-0.8,3.3-2,4.5-3.5c7.7-8.1,14.1-18,15.2-29.2c1.2-12.2-4.2-24.3-12.1-33.7
			c-7.5-8.8-17.6-14-25.6-22c-2.6-2.6-4.2-5.4-8-6.6C313.9,207.7,310.1,211.2,314.6,215.5z"></path><path class="st2" d="M324.5,279c-1.8-1.8-4.1-3.8-6.5-3c-2.6,0.8-3.3,4.2-4.6,6.6c-2.6,4.6-8.6,6.6-11,11.4c-1.2,2.3-1.2,5,0,7.4
			c1.2,2.3,3.5,3.9,6.1,4c2,0,4.1-0.9,6.1-0.4c3.6,0.8,5.2,5.5,8.8,6.6c3,0.9,6-1,8.5-2.9l8.8-6.5c1.6-1.2,3.9-3.4,2.5-5.6
			c-1-1.5-3.7-2.5-5-3.8C333.5,288.2,329,283.6,324.5,279z"></path><path class="st1" d="M312.6,305.9c-0.2,0-0.4-0.1-0.5-0.4c-0.1-0.2,0.1-0.5,0.4-0.5c6-1.2,11.5-4,16.1-8c0.2-0.2,0.5-0.2,0.6,0
			s0.2,0.5,0,0.6C324.5,301.8,318.8,304.6,312.6,305.9L312.6,305.9z"></path><path class="st0" d="M301.8,217.3c-0.2-1.1,1.3-1.8,2.2-1.3c0.9,0.6,1.5,1.6,1.7,2.6c0.7-3,3.7-4.8,6.7-4.1
			c0.6,0.1,1.2,0.4,1.7,0.7l3.7-8.3c0.6-1,0.8-2.1,0.7-3.2c-0.4-1.8-2.5-2.6-4.3-2.3c-1.7,0.5-3.3,1.4-4.6,2.6
			c0.9-0.7-2.7-2.4-3.5-2.2c-1.3,0.4-1.9,2.1-2.5,3.3C301.6,208.8,300.9,213.1,301.8,217.3z"></path><path class="st1" d="M305.7,219.4c-0.3,0-0.6-0.2-0.7-0.5c-0.2-0.9-0.6-1.7-1.3-2.2c-0.3-0.1-0.7-0.1-1,0.1
			c-0.2,0.1-0.2,0.3-0.2,0.3c0.1,0.4-0.2,0.8-0.6,0.9c-0.4,0.1-0.8-0.1-0.9-0.5c0,0,0,0,0,0c-1-4.3-0.3-8.8,1.9-12.7
			c0.1-0.2,0.2-0.4,0.3-0.6c0.5-1.2,1.2-2.6,2.6-3c0.8-0.2,3.1,0.7,4.1,1.6c1.2-1,2.6-1.7,4.1-2.1c2.1-0.4,4.6,0.7,5.1,2.9
			c0.2,1.3-0.1,2.5-0.7,3.7l-3.7,8.3c-0.1,0.2-0.3,0.4-0.5,0.4c-0.2,0.1-0.4,0-0.6-0.1c-2.2-1.4-5.2-0.8-6.6,1.4
			c-0.3,0.5-0.5,1-0.6,1.5C306.4,219.2,306.1,219.4,305.7,219.4L305.7,219.4z M303.3,215.1c0.4,0,0.7,0.1,1.1,0.2
			c0.6,0.3,1,0.8,1.4,1.4c0.7-1.2,1.7-2.1,3-2.6c1.6-0.6,3.4-0.6,5,0.1l3.4-7.6c0.5-0.8,0.7-1.8,0.6-2.7c-0.3-1.3-2-2-3.4-1.7
			c-1.6,0.5-3.1,1.3-4.2,2.5l0,0c-0.3,0.3-0.8,0.2-1.1-0.1c-0.2-0.2-0.2-0.5-0.1-0.8c-0.8-0.6-1.7-1-2.6-1.2
			c-0.7,0.2-1.2,1.3-1.6,2.2c-0.1,0.2-0.2,0.5-0.3,0.7c-1.7,3-2.4,6.4-2.1,9.9C302.5,215.2,302.9,215.1,303.3,215.1z"></path><path class="st1" d="M305.7,219.1c-0.2,0-0.4-0.1-0.4-0.3c-0.2-1-0.7-1.8-1.5-2.4c-0.4-0.2-0.9-0.1-1.3,0.1
			c-0.2,0.1-0.3,0.4-0.3,0.6c0.1,0.2-0.1,0.5-0.3,0.6c-0.2,0.1-0.5-0.1-0.6-0.3c0,0,0,0,0,0l0,0c-0.9-4.2-0.3-8.7,1.9-12.5l0.3-0.6
			c0.5-1.1,1.2-2.5,2.5-2.8c0.8-0.2,3.2,0.8,4,1.8c1.2-1.1,2.6-1.8,4.1-2.2c2-0.4,4.3,0.6,4.8,2.7c0.1,1.2-0.1,2.4-0.7,3.5l-3.7,8.3
			c-0.1,0.1-0.2,0.2-0.3,0.3c-0.1,0-0.3,0-0.4-0.1c-2.4-1.5-5.5-0.8-7,1.5c-0.3,0.5-0.5,1-0.7,1.6C306.2,219,306,219.1,305.7,219.1
			L305.7,219.1z M303.3,215.4c0.3,0,0.6,0.1,0.9,0.2c0.7,0.4,1.2,1,1.5,1.7c1.4-3,5-4.2,8-2.8c0.1,0,0.1,0.1,0.2,0.1l3.5-7.9
			c0.5-0.9,0.7-1.9,0.6-2.9c-0.3-1.5-2.2-2.2-3.7-2c-1.7,0.5-3.2,1.3-4.4,2.5l0,0c-0.2,0.2-0.5,0.1-0.6-0.1c0,0,0,0,0,0
			c-0.1-0.2-0.1-0.4,0-0.6c-0.8-0.8-1.9-1.3-3-1.4c-0.9,0.2-1.4,1.4-1.9,2.4l-0.3,0.7c-1.8,3.2-2.5,6.9-2.1,10.5
			C302.4,215.5,302.9,215.4,303.3,215.4z"></path><path class="st2" d="M281.9,172.1c-0.4,11.4,0.7,22.9,4.4,33.7c0.4,1.5,1.1,2.9,2.1,4.1c1,1.2,2.6,1.8,4.1,1.5
			c1.6-0.4,2.6-2,3.4-3.4c9.9-16.9,19.9-34,24.8-52.9c0.7-2.7,1.3-5.7-0.2-8.1c-1.2-1.6-2.7-2.8-4.5-3.5c-6.9-3.3-14.3-5.5-21.9-6.4
			c-2.4-0.3-6.7-0.8-8.3,1.4s-1.3,7.7-1.7,10.4C283,156.6,282.2,164.3,281.9,172.1z"></path><path class="st1" d="M286.3,149.6c-4.3,0.5-9-1.3-11.3-4.9s-1.6-9.2,2-11.6c-4.1-2.1-7.1-6-7.9-10.6c-0.8-4.6,1.3-9.2,5.2-11.8
			c3.9-2.3,9.6-1.6,12.4,2c1.5-6.9,8.3-11.3,15.2-9.9c5.9,1.2,10.1,6.4,10.1,12.4c7.2-1.4,14.2,3.3,15.6,10.5c0.2,1,0.3,2,0.2,3
			c5.6-2.6,12.2-0.2,14.8,5.4c2,4.4,1,9.6-2.5,12.9c4.6-0.1,8.1,4.7,8.5,9.3c0.8,8.1-5.1,15.3-13.3,16.1c-0.8,0.1-1.7,0.1-2.5,0
			c0.3,4.1-0.5,8.4-3.2,11.5s-7.6,4.3-11,2.1c-2,0.8-4.2,1.6-6.4,1.4s-4.4-1.9-4.5-4.1s1.9-3.9,3.2-5.6c1.4-2,2.4-4.3,3.1-6.6
			c1.6-4.6,3.2-9.3,4.8-13.9c-3.5-1.6-5.5-5.4-4.9-9.3c-0.3,1.5-6.2,1.1-7.1,0.9c-2.8-0.5-4.4-2.1-6.8-3.4c-2.1-1.1-3.5-0.7-5.4,0.5
			C292,147.7,289.6,149.3,286.3,149.6z"></path><path class="st2" d="M311.6,169.8c1.3-0.7,2.6-1.3,4-1.6c1.4-0.4,2.9-0.2,4.2,0.5c2,1.4,2.7,4.1,1.6,6.3c-1.2,2.1-3.4,3.4-5.8,3.4
			c-2.4,0-4.7-1-6.4-2.6"></path><path class="st1" d="M288.5,165.6c0.2,0.3,0.4,0.6,0.7,0.8c0.3,0.2,0.7,0.2,1,0c0.3-0.3,0.5-0.8,0.4-1.3c-0.1-1-0.4-2-0.8-2.9
			c-0.2-0.4-0.5-0.8-0.9-0.8c-0.3,0-0.5,0.2-0.6,0.4C287.4,162.8,287.9,164.7,288.5,165.6z"></path><path class="st1" d="M298.2,165.1c0.1,0.2,0.3,0.5,0.5,0.6c0.2,0.2,0.5,0.3,0.7,0.2c0.4-0.1,0.6-0.6,0.7-1
			c0.2-1.1,0.1-4.6-1.7-4.3S297.7,164.1,298.2,165.1z"></path><path class="st1" d="M285.8,170.6c-0.6,0-1.2,0-1.8-0.1c-1.1,0-2.2-0.3-3.1-0.9c-0.8-0.6-1.3-1.6-1.5-2.6
			c-0.2-0.9-0.2-1.9-0.1-2.8c0.1-1.7,0.4-3.4,1.6-4.5c1-0.7,2.1-1.1,3.3-1.1l0,0h0.3c2.4-0.2,5.3-0.6,7.6,0.1c2,0.6,2.3,3.8,2.4,5.6
			c0.1,1.8-0.6,3.6-2,4.7c-1.1,0.7-2.3,1.2-3.6,1.2C287.9,170.5,286.9,170.6,285.8,170.6z M284.4,159.6c-1,0-2,0.3-2.8,0.9
			c-1,0.9-1.2,2.4-1.3,3.8c-0.1,0.8-0.1,1.7,0.1,2.5c0.1,0.8,0.5,1.5,1.1,2c0.8,0.5,1.7,0.7,2.6,0.7c1.6,0.1,3.2,0.1,4.8-0.1
			c1.1-0.1,2.2-0.4,3.2-1.1c1.1-1,1.7-2.5,1.6-4c0-1-0.2-4.3-1.7-4.8c-2.1-0.6-5-0.3-7.2-0.1L284.4,159.6z"></path><path class="st1" d="M301.5,170.2c-0.8,0-1.5,0-2.2-0.1c-1.2,0-2.5-0.3-3.5-1c-0.8-0.7-1.3-1.7-1.4-2.7c-0.1-0.9-0.1-1.9,0.1-2.9
			c0.2-1.6,0.5-3.3,1.7-4.3c0.9-0.6,1.9-0.9,2.9-1c2.4-0.4,5-0.8,7.5-0.1c1.1,0.1,2,0.8,2.4,1.9c0.4,1.3,0.4,2.6,0.1,3.9
			c-0.2,1.5-0.8,3-1.7,4.2c-1,1.1-2.4,1.8-3.9,2C302.8,170.1,302.2,170.2,301.5,170.2z M303.6,158.7c-1.5,0-2.9,0.2-4.4,0.4l0,0
			c-0.9,0.1-1.7,0.3-2.5,0.8c-1,0.8-1.2,2.2-1.4,3.7c-0.1,0.9-0.2,1.8-0.1,2.6c0.1,0.8,0.5,1.6,1,2.1c0.9,0.6,1.9,0.8,3,0.8
			c1.3,0.2,2.7,0.2,4,0c1.3-0.2,2.5-0.8,3.3-1.7c0.8-1.1,1.3-2.4,1.5-3.8c0.3-1.1,0.3-2.3,0-3.4c-0.3-0.9-0.7-1-1.7-1.3
			C305.5,158.8,304.6,158.7,303.6,158.7z M299.2,158.7L299.2,158.7z"></path><path class="st1" d="M314.7,168.9c-0.1,0-0.2,0-0.3-0.1c-2.2-1.6-4.2-3.5-6.1-5.5c-0.2-0.2-0.2-0.5,0-0.6c0.2-0.2,0.5-0.2,0.6,0
			c1.8,2,3.8,3.8,6,5.4c0.2,0.1,0.2,0.4,0.1,0.6c0,0,0,0,0,0C314.9,168.8,314.8,168.9,314.7,168.9z"></path><path class="st1" d="M293.6,162.4c-0.2,0-0.4-0.1-0.4-0.3c-0.1-0.2,0-0.5,0.2-0.6c0.6-0.3,1.2-0.3,1.9-0.3c0.2,0,0.4,0.3,0.4,0.5
			c0,0.3-0.3,0.4-0.5,0.4c-0.5-0.1-0.9,0-1.4,0.2C293.7,162.4,293.6,162.4,293.6,162.4z"></path><path class="st1" d="M294.6,195.6c-0.6,0.3-1.2,0.5-1.8,0.8c-0.6,0.3-1,0.8-1.2,1.5c-0.1,0.8,0.2,1.6,0.9,2
			c0.7,0.4,1.5,0.5,2.3,0.2c0.7-0.2,1.4-0.6,2-1.2c1.3-1.1,2.2-2.5,2.5-4.2c0.1-0.9-0.6-3.9-1.9-2.4c-0.5,0.5-0.6,1.3-1.1,1.8
			C295.9,194.7,295.3,195.2,294.6,195.6z"></path></g><g id="phone-2"><path class="st1" d="M247.1,85.8c3.7-4.8,9.5-6.4,14.9-7.7c18.2-4.4,104-18.2,125.7-20c6.8-0.6,14.2-1,19,3
			c5.5,4.6,5.8,13.5,5.7,21.7c-0.8,98.4-1.6,200.2-2.4,305.2c-0.1,14-0.7,29.4-9.8,38.3c-9.6,9.5-24.9,7.8-38.1,5.8l-41-6.4
			l-38.3-5.2c-11.3-1.5-23.8-3.9-31.4-14.5c-6.9-9.7-7.3-23.2-7.4-35.4c-0.5-91.3-0.9-179.4-1.4-264.5
			C242.7,99,242.9,91.2,247.1,85.8z M249.5,107.7c0.6,74.8,1.2,151.8,1.8,231.1c0.1,10.5,0.5,22.2,6.8,30.5
			c6.9,9,18.2,10.7,28.5,11.8l34.6,3.5l36.7,4.4c11.8,1.4,25.4,2.4,34-5.9c8-7.8,8.6-21,8.8-32.9c1-90.1,1.9-177.8,2.9-263.1
			c0.1-7.1-0.1-14.8-5.1-18.8c-4.3-3.5-11-3.2-17.1-2.7c-19.6,1.6-97.6,13.7-114.2,17.6c-5,1.2-10.3,2.6-13.7,6.8
			C249.6,94.7,249.4,101.5,249.5,107.7z"></path><path class="st1" d="M286.6,77.4c1.8-0.5,4.6-1,7.2-1.4c8.7-1.4,47.7-7.6,57.1-9c2.9-0.4,6-0.9,8-1c2.3-0.1,2.3,0.3,2.2,0.6
			c-1.1,4.3-2.2,8.5-3.3,12.7c-0.1,0.5-0.5,1.2-4.1,2.1c-3.8,1-9.9,1.8-15.2,2.6l-16.9,2.4l-16.4,2.4c-5,0.7-10.5,1.5-14,1.6
			c-3.2,0.1-3.5-0.4-3.6-0.9l-2.9-11C284.6,78.3,284.6,77.9,286.6,77.4z"></path><path class="st0" d="M328.8,401.1c1.8,6.8-1.1,14.4-6.2,16.3s-11.4-2.1-13.7-8.6C302.5,390.6,323.8,382.2,328.8,401.1z"></path><path class="st1" d="M319.9,418.6c-1.5,0-2.9-0.4-4.3-1c-3.5-1.8-6.2-4.8-7.5-8.6c-2.2-6.2-1.4-12,2-15.8c2.5-2.8,6.3-4.1,10-3.2
			c4.3,1.1,7.7,5.1,9.3,11c1.9,7.1-1.3,15.1-6.7,17.2C321.9,418.4,320.9,418.6,319.9,418.6z M317.9,391.2c-2.5,0-4.9,1.1-6.6,3
			c-3.1,3.4-3.7,8.6-1.8,14.3c1.1,3.4,3.5,6.1,6.7,7.7c1.9,0.9,4,1.1,6,0.4c4.7-1.8,7.4-9,5.7-15.4l0,0c-1.4-5.3-4.4-8.9-8.2-9.9
			C319.2,391.2,318.6,391.2,317.9,391.2L317.9,391.2z"></path></g><path class="st1" d="M266,344.6c0,9,5.1,17.9,11.5,20.5s13.5-1,17.4-8.2c1.9-3.4,2.8-7.2,2.7-11c-0.4-4.8-2.1-9.4-5-13.3
		c-1.6-2.5-3.8-4.6-6.4-6.1c-4.1-2.1-9.4,0.6-13.1,3C269,332,266.1,338,266,344.6z"></path><path class="st0" d="M276.5,337.3c-1.7-0.4-3.8,0-4.6,2.2c-0.6,1.6-0.2,3.7-0.1,5.5c0.1,1.5-0.1,3,0,4.4c0,1.4,0.5,2.8,1.4,3.9
		c0.7,0.6,1.5,0.9,2.4,0.9l3.8,0.4c0.9,0.2,1.8,0.1,2.5-0.4c1.5-1.2,1.5-4.3,1.2-6.9l5.1,6.3c0.5,0.6,1,1.3,1.7,1.2
		c1.1,0,1.5-1.9,1.6-3.4l0.5-6.2c0.2-1.1,0.1-2.3-0.2-3.4c-0.8-2-3-1.9-4.3-0.8s-2.3,3-3.8,3.8c0.3-1.4,0.4-2.9,0.2-4.4
		c-0.3-1.8-1.3-2.6-2.5-2.7C279.9,337.8,278.2,337.6,276.5,337.3z"></path><path class="st1" d="M305.2,348c0,9.4,5.5,18.6,12.3,21.2s14.5-1,18.6-8.4c2-3.5,3-7.4,2.8-11.4c-0.2-5.2-2.6-10-5.4-13.8
		c-1.8-2.6-4.1-4.8-6.9-6.4c-4.5-2.2-10.1,0.6-14,3.1C308.4,335,305.3,341.2,305.2,348z"></path><path class="st0" d="M320.6,337.1c-0.4,1.5-0.4,3.1-0.2,4.7c0,0.8,0.2,1.6,0.5,2.3c0.2,0.7,0.8,1.2,1.5,1.4
		c0.6,0.1,1.2-0.2,1.5-0.7c0.4-0.5,0.6-1.2,0.8-1.8c0.5-2.1,0.7-5.6-0.5-7.6C322.8,333,321.1,335.2,320.6,337.1z"></path><path class="st0" d="M317.3,342.6c0.4,0.9,0.6,2,1,2.9c0.5,1.5,1.8,2.7,3.3,3.3c1.4,0.4,3-0.1,3.9-1.3c0.8-0.9,1.3-2.3,2.1-3.1
		s2.3-1.1,3,0c0.4,0.8,0.4,1.7,0.2,2.6c-0.8,4.1-4.1,7-7.4,6.7L323,359c0.8,0.1,1.5,0.4,2.1,0.8c0.7,0.6,0.9,1.6,0.7,2.4
		c-0.4,0.6-1.1,1-1.9,0.8c-1.6-0.1-3.2-0.3-4.8-0.7c-0.8-0.2-1.7-0.7-1.7-1.7c0-0.5,0.4-1,0.9-1.1c0.5,0,0.9,0.1,1.4,0.3l0.2-6.4
		c0,0-2.6-2.7-2.9-3.1c-0.8-1.4-1.5-2.8-1.8-4.4c-0.3-1.1-1-2.6-0.8-3.8C314.8,340.2,316.6,341.1,317.3,342.6z"></path><path class="st1" d="M346.4,351.6c0,9.7,5.9,19.2,13.2,22s15.5-1,20-8.6c2.1-3.6,3.2-7.7,3.1-11.8c-0.2-5.4-2.8-10.4-5.8-14.3
		c-2.1-2.8-4.6-5.3-7.4-6.6c-4.8-2.2-10.9,0.6-15.1,3.1C349.8,338.2,346.4,344.6,346.4,351.6z"></path><path class="st0" d="M366.2,343.9c-3.4,0.1-6.6,1.5-9,3.9c-1.5,1.4-2.7,3.2-3.3,5.2c-0.7,2.2-0.6,4.6,0.3,6.7c1,2.1,3,3.5,4.8,3
		s3.1-3,2.3-5.2c-0.1-0.4-0.3-0.8-0.5-1.2c-0.3-1.3,0-2.7,0.9-3.8c0.8-0.8,1.9-1.4,3.1-1.5c1.7-0.3,4,0.2,4.7,2.3
		c0.1,0.6,0.3,1.1,0.5,1.6c0.4,0.7,1.1,1,1.9,0.9c0.7-0.2,1.4-0.5,1.9-1c0.9-0.6,1.7-1.4,2.1-2.4c0.9-2.4-1.5-4.8-3-6
		C371.1,344.8,368.7,343.9,366.2,343.9z"></path></g><g id="character_2"><g id="character"><path class="st1" d="M126.6,412.9c0.6,0,1.1,0.1,1.7,0.3c0.5,0.2,1,0.6,1.1,1.2c0.2,1-0.8,1.9-1.7,2.4c-5.5,3-12.1,3.5-17.6,6.4
			c-2.2,1.2-4.4,2.8-6.9,3.2c-0.4,0.1-0.9,0-1.2-0.2c-0.4-0.5-0.5-1.1-0.2-1.7c1.1-3.7,4.1-5.8,7.4-7.5c3.4-1.8,7.2-3.1,11-3.7
			C122.2,412.9,124.4,412.8,126.6,412.9z"></path><path class="st2" d="M102.1,422.6l2.8,0.8c12-31,6.6-66.6,18.3-97.8c4,16.3,2.8,33.5,0.2,50.1s-6.8,33-8.7,49.6l5.2,1
			c11.5-39.1,19.2-79.1,23.1-119.6c0.3-2.6-1.7-4.9-4.3-5.2c-0.8-0.1-1.7,0.1-2.5,0.4l-21.2,9.9c-8.6,4-11.7,4.8-10.4,14.8
			c2.5,20.5,3.1,41.1,1.7,61.7C105.5,399.8,104.1,411.2,102.1,422.6z"></path><path class="st1" d="M141.8,429.7c1.7,0.8,3.5,2.3,3.2,4.1c-0.3,1.5-2,2.3-3.5,2.7c-8.3,2.1-17.1-0.2-23.4-6
			c-1-0.8-1.7-1.9-2.2-3.1c-0.5-1.2-0.2-2.6,0.6-3.6c2.3-2.3,8,1.2,10.7,1.8C132.3,426.6,137,427.3,141.8,429.7z"></path><path class="st1" d="M108.7,228.7c-6.8,7.7-11.3,17.3-12.8,27.5c-1.6,11,0.9,23.7,7.3,31.3c1.6,1.9,3.9,3.4,5.5,1.9
			c0.8-1,1.3-2.1,1.5-3.3c1.7-6.1,3.3-12.2,4.9-18.3c3.1-11.6,6.3-23.2,9.4-34.8c1.1-4,4.4-11.3,3.6-15.7c-1.1-6-5.8-0.8-7.8,0.8
			C116.1,221.2,112.2,224.7,108.7,228.7z"></path><path class="st1" d="M118.8,224.8c2-3.6,4.2-7.1,7.1-9.4s6.6-3.3,9.8-1.5c4.3,2.4,6.8,8.8,8.2,14.7c5.2,21.2,3.2,42.8,6.8,61.7
			c0.8,4.5,1.9,9.5-0.1,13.3c-1.8,3.4-5.4,4.3-8.6,5.3c-12.8,3.7-24.5,11.8-37.6,12.1c-4.1,0.1-11.2-1.1-11.8-7.5
			c-0.6-6,1.9-13.3,3.1-19.1c2.9-14.6,6.4-29.7,11.8-44.5C110.5,241.2,114.3,232.8,118.8,224.8z"></path><path class="st0" d="M146.5,192.2c-0.4,3.8-1,7.9-3.5,10.8c-3.6,4.1-10.4,4.4-15.3,1.9s-8.4-7.1-11.3-11.8
			c-4.2-6.7-7.8-13.8-10.6-21.2c-3.4-9.1-5.7-19.4-1.9-28.3c3.6-8.5,12.1-14,20.8-17.2c4.8-1.8,9.8-2,14,1.3c2.9,2.3,3.8,6.6,4.8,10
			c3.4,11.1,4.4,22.9,4.2,34.5C147.7,178.9,147.2,185.6,146.5,192.2z"></path><path class="st1" d="M134.5,207.3c-2.5,0-4.9-0.6-7.2-1.7c-5.2-2.7-8.8-7.6-11.6-12.1c-4.2-6.7-7.8-13.9-10.6-21.4
			c-4.5-11.8-5.1-21.3-1.9-28.8c4.1-9.6,13.8-14.9,21.2-17.6c5.9-2.1,10.9-1.7,14.8,1.4c2.7,2.1,3.7,5.7,4.6,8.8
			c0.1,0.5,0.3,1,0.4,1.5c3.1,10.1,4.5,21.4,4.3,34.7c-0.1,6-0.5,12.6-1.3,20.1l0,0c-0.4,4-1.1,8.2-3.7,11.2
			C141.2,206.1,137.9,207.4,134.5,207.3z M131.2,125.9c-2.1,0-4.3,0.5-6.3,1.2c-7.1,2.6-16.5,7.6-20.3,16.8
			c-3.1,7.2-2.4,16.2,1.9,27.7c2.8,7.4,6.3,14.4,10.5,21.1c2.7,4.3,6.2,9.1,11,11.5c4.3,2.2,10.8,2.4,14.4-1.7
			c2.4-2.7,2.9-6.5,3.4-10.4l0,0c0.8-7.5,1.2-14,1.3-19.9c0.2-13.1-1.2-24.4-4.2-34.2c-0.1-0.5-0.3-1-0.5-1.5
			c-0.9-3.1-1.8-6.2-4.1-8.1C136.3,126.8,133.8,125.9,131.2,125.9L131.2,125.9z M146.5,192.2L146.5,192.2z"></path><path class="st1" d="M113.4,187.5c-8.4,3.6-18.6-0.1-25-6.6s-9.7-15.5-12-24.4c-1-3.8-1.9-7.9-0.5-11.6c1.6-4.4,6.2-7.2,10.9-8
			s9.4,0,14.1,0.8c9.3-22.2,28.7-38.3,47.9-52.8c3.2-2.4,6.4-4.8,10.2-6s8.3-1,11.3,1.6c3.4,2.8,4.2,7.7,4.3,12.1
			c0.1,16-7.5,31.5-19,42.7c-7.3,7-15.8,12.7-25.2,16.7c-4.7,2-9.4,3.7-14.2,5.1c-5,1.6-3.9,6.9-3.9,11.6
			C112.1,170.3,113.5,187.4,113.4,187.5z"></path><path class="st0" d="M118.8,172.3c-2.5-1.3-5.3-1.9-8.1-1.4c-1.9,0.2-3.6,1.1-4.8,2.6c-1.8,2.5-0.7,6.3,1.8,8.1s5.8,2,8.9,1.4"></path><path class="st1" d="M113.4,184.1c-2.2,0.1-4.4-0.6-6.2-1.9c-2.6-1.9-4.1-6.2-2-9.2c1.3-1.6,3.2-2.7,5.3-2.9c3-0.5,6,0.1,8.6,1.5
			c0.4,0.2,0.5,0.6,0.3,1c-0.2,0.4-0.6,0.5-1,0.3c-2.3-1.3-5-1.7-7.6-1.4c-1.7,0.2-3.2,1-4.3,2.3c-1.6,2.2-0.4,5.6,1.7,7.1
			c2.8,2,6.4,1.6,8.3,1.2c0.4-0.1,0.8,0.2,0.9,0.6c0.1,0.4-0.2,0.8-0.6,0.9C115.6,183.9,114.5,184.1,113.4,184.1z"></path><path class="st1" d="M113.4,183.8c-2.1,0.1-4.2-0.6-6-1.8c-2.5-1.9-3.9-5.9-1.9-8.7c1.3-1.6,3.1-2.6,5.1-2.8
			c2.9-0.4,5.8,0.1,8.4,1.5c0.2,0.1,0.3,0.4,0.2,0.6c-0.1,0.2-0.4,0.3-0.6,0.2c0,0,0,0-0.1,0c-2.4-1.3-5.1-1.8-7.8-1.4
			c-1.8,0.2-3.4,1-4.5,2.4c-1.7,2.4-0.5,5.9,1.7,7.5c2.8,2.1,6.6,1.7,8.5,1.3c0.2,0,0.5,0.1,0.5,0.3c0,0,0,0,0,0
			c0.1,0.2-0.1,0.5-0.3,0.5c0,0,0,0,0,0C115.5,183.6,114.4,183.8,113.4,183.8z"></path><path class="st1" d="M134.1,192.4c-0.4-0.4-0.8-0.8-1.3-1.2c-0.5-0.4-1.1-0.6-1.8-0.6c-0.9,0-1.6,0.7-1.7,1.6
			c-0.2,1.9,1.4,4.1,3.9,5.4c1.2,0.6,2.5,0.9,3.9,0.9c1.2,0.1,2.3-0.5,2.9-1.4c0.4-1-0.3-2-1.7-2.5
			C136.7,194.2,135.3,193.5,134.1,192.4z"></path><path class="st1" d="M142.1,168.2c0,0.4,0.2,0.8,0.4,1.1c0.2,0.3,0.6,0.5,1,0.5c0.5-0.1,0.8-0.5,1-1c0.6-1.4,1.2-5.1-0.6-5.8
			C141.6,162,142,167.1,142.1,168.2z"></path></g><path class="st0" d="M238.5,246c1.7-0.8,3.5-1.3,5.3-1.4c1.9-0.1,3.7,0.4,5.2,1.6c1.1,0.8,1.7,2.1,1.6,3.4
		c-0.3,1.3-1.2,2.4-2.4,3.1c-1.2,0.7-2.2,1.6-3,2.6c4,2.4,7.9,5,11.7,7.9c1.4,1,2.8,2.2,3.9,3.5c1.2,1.3,1.8,3,1.9,4.8
		c0,2.9-2.2,5.4-4.9,6.5c-2.7,0.9-5.7,1-8.4,0.2c-1.4,2.6-4.3,3.9-7.1,4.9c-2.4,0.8-5.1,1.5-7.5,0.5c-2.1-0.9-3.5-2.8-4.6-4.8
		c-1.9-3.2-3.3-6.7-4.1-10.4c-0.8-3.8-0.5-7.7,0.7-11.3c1.1-3.1,4-5.9,6.5-7.9C234.9,247.9,236.7,246.8,238.5,246z"></path><path class="st1" d="M237.3,284.7c-1,0-1.9-0.2-2.8-0.5c-2.4-1-3.9-3.1-5-5.1c-2-3.3-3.4-6.9-4.1-10.6c-0.8-3.9-0.5-7.9,0.7-11.7
		c1.2-3.3,4.4-6.3,6.8-8.2c1.7-1.3,3.5-2.4,5.4-3.2l0,0c1.8-0.8,3.7-1.3,5.6-1.4c2-0.1,4,0.5,5.7,1.8c1.3,1,2,2.5,1.9,4.1
		c-0.4,1.5-1.3,2.8-2.7,3.6l-0.6,0.4c-0.6,0.4-1.2,0.9-1.8,1.4c3.8,2.3,7.5,4.8,11,7.5c1.5,1,2.8,2.2,4,3.6c1.3,1.5,2,3.3,2.1,5.3
		c-0.2,3.2-2.3,6-5.3,7.2c-2.7,0.9-5.6,1.1-8.4,0.3c-1.6,2.5-4.6,3.8-7.2,4.7C240.8,284.3,239.1,284.6,237.3,284.7z M244.1,245.3
		h-0.3c-1.7,0.1-3.4,0.6-5,1.3l0,0c-1.8,0.8-3.5,1.8-5.1,3.1c-2.3,1.8-5.2,4.6-6.3,7.6c-1.2,3.5-1.4,7.3-0.6,10.9
		c0.7,3.6,2.1,7,4,10.2c1,1.8,2.4,3.7,4.3,4.5c2.1,0.9,4.7,0.2,6.9-0.6c2.6-0.9,5.4-2.1,6.7-4.5c0.2-0.3,0.5-0.4,0.8-0.4
		c2.6,0.8,5.4,0.7,8-0.1c2.5-0.9,4.2-3.1,4.4-5.8c-0.1-1.6-0.7-3.1-1.7-4.3c-1.1-1.3-2.4-2.4-3.8-3.4c-3.7-2.8-7.6-5.4-11.6-7.8
		c-0.2-0.1-0.3-0.3-0.3-0.5c0-0.2,0-0.4,0.1-0.6c0.7-1,1.6-1.9,2.7-2.5l0.5-0.4c1-0.6,1.7-1.5,2-2.6c0-1.1-0.5-2.1-1.3-2.7
		C247.3,245.8,245.7,245.3,244.1,245.3z M238.5,246L238.5,246z"></path><path class="st1" d="M133.5,212.9c-1.5,0.7-1.7,2.5-1.4,3.9c0.6,2.9,1.8,5.6,3.4,8.1c10.9,18.6,30.6,33.1,53.8,39.7
		c11.3,3.2,23.2,4.6,35.1,5.9c0.6,0.1,1.2,0.1,1.8-0.1c0.7-0.4,1.2-1.1,1.4-1.9c1.3-4,2.2-8,2.9-12.1c0.3-1.2,0.2-2.5-0.4-3.7
		c-1.1-1.7-3.8-2-6.1-2.2c-18.9-1.2-38.6-2.1-55.1-9.8c-6-2.9-11.6-6.5-16.8-10.8c-2.6-2.1-5.1-4.3-7.5-6.5c-2-1.8-4.2-3.5-5.4-5.8
		C138.3,215.8,136.8,211.5,133.5,212.9z"></path><path class="st1" d="M248.3,277.6h-0.1c-5.6-1.9-10.4-5.4-13.9-10.2c-0.1-0.2-0.1-0.5,0.1-0.6c0.2-0.1,0.5-0.1,0.6,0.1
		c3.4,4.6,8.1,8,13.5,9.8c0.2,0.1,0.4,0.3,0.3,0.6C248.7,277.5,248.5,277.7,248.3,277.6L248.3,277.6z"></path><path class="st2" d="M240.3,253.8c-1.6,1.2-2.8,2.7-3.6,4.5c-0.8,1.8-0.7,3.9,0.2,5.6c1.6,2.6,5.2,3.2,8.1,2.3s5.1-3.1,7.3-5.2
		c1.6,2.5,3.7,5.2,6.7,5.3c2.2,0.1,4.3-1.4,5.6-3.2c2.6-3.7,3-10.8-0.8-14c-1.6-1.4-4.9-0.8-6.9-0.8c-2.8,0.1-5.6,0.5-8.3,1.2
		C245.6,250.4,242.7,251.9,240.3,253.8z"></path></g></svg>