<svg transform="scale(1)" version="1.1" id="Layer_1" xmlns="http://www.w3.org/2000/svg" xmlns:xlink="http://www.w3.org/1999/xlink" x="0px" y="0px" viewBox="0 0 500 500" xml:space="preserve" class="show_show__wrapper__graphic__5Waiy "><title>React</title><style type="text/css">
	.st0{fill:#FFFFFF;}
	.st1{fill:#111111;}
	.st2{fill:#6c63ff;}
</style><g id="coding-tab"><g id="presentation"><path class="st0" d="M55,37.5c0.7,48.8,1.4,381.3,2.1,430c0.1,5.2,0.9,11.4,6.7,13.6c2.6,1,5.6,0.9,8.5,0.8l43.4-1.6
			c46.4-1.7,92.7,0.5,138.9-1.2c9.7-0.3,21-1.4,26.1-8.2c2.9-3.8,2.9-8.4,2.8-12.8c-0.7-44.5,0.9-379.7,0.1-424.3
			c-0.1-4.9-0.3-10.1-4-14c-5.5-5.8-16.1-5.9-25.2-5.6c-38.6,1.2-79.5,3.5-118.2,2.7c-19.2-0.4-38.4-0.6-57.6-1.4
			C61.6,14.8,54.8,25,55,37.5z"></path><path class="st1" d="M69.8,482.8c-2.1,0.1-4.2-0.2-6.2-0.9c-6.2-2.4-7.1-8.9-7.2-14.3c-0.3-24.4-0.7-121.2-1-214.8
			C55,159,54.6,62,54.3,37.5l0,0c-0.1-7.2,2-13.1,6.1-17c4.2-4.1,10.4-6,18.3-5.7c13.9,0.6,28.1,0.9,41.8,1.1
			c5.3,0.1,10.5,0.2,15.8,0.3c28.6,0.6,58.5-0.5,87.5-1.6c10.1-0.4,20.6-0.8,30.7-1.1c9.5-0.3,20.1-0.1,25.8,5.9
			c4,4.2,4.1,10.1,4.2,14.5c0.4,22.3,0.1,118.9-0.1,212.2s-0.4,189.8-0.1,212c0.1,4.1,0.1,9.2-2.9,13.3c-5.1,6.8-16.4,8.1-26.7,8.5
			c-23.1,0.8-46.6,0.7-69.4,0.6s-46.3-0.2-69.5,0.6l-43.4,1.6C71.5,482.8,70.7,482.8,69.8,482.8z M55.8,37.5
			c0.3,24.4,0.7,121.4,1,215.2c0.3,93.6,0.7,190.4,1,214.8c0.1,4.9,0.8,10.9,6.2,13c2.5,1,5.6,0.9,8.2,0.8l43.4-1.6
			c23.2-0.8,46.8-0.7,69.6-0.6s46.2,0.2,69.3-0.6c10-0.4,20.8-1.6,25.5-7.9c2.8-3.7,2.7-8.5,2.6-12.4c-0.4-22.3-0.1-118.8,0.1-212.1
			s0.4-189.9,0.1-212.2c-0.1-5.3-0.4-10-3.8-13.5c-5.3-5.5-15.5-5.7-24.7-5.4c-10.1,0.3-20.6,0.7-30.7,1.1c-29,1.1-59,2.2-87.6,1.6
			c-5.2-0.1-10.5-0.2-15.7-0.3c-13.7-0.3-27.9-0.5-41.9-1.1c-7.4-0.3-13.1,1.4-17.1,5.3S55.7,30.7,55.8,37.5L55.8,37.5z"></path></g><path class="st1" d="M283.8,51.8c0-6.1-0.1-12-0.2-17.9c-0.1-4.9-0.3-10.1-4-14c-5.5-5.8-16.1-5.9-25.2-5.6
		c-38.6,1.2-79.5,3.5-118.2,2.7c-19.2-0.4-38.4-0.6-57.6-1.4c-17-0.7-23.7,9.4-23.6,22l0.2,14.3L283.8,51.8z"></path><path class="st0" d="M77.1,32.3c-1,3.2-0.1,6.6,2.4,8.9c2.5,2.2,6.1,2.7,9.1,1.4c3-1.5,4.8-4.6,4.6-7.9
		C92.5,25.6,80,23.2,77.1,32.3z"></path><path class="st0" d="M98.5,31.3c-1,4.3,1.3,8.7,5.5,10.2c4.3,1.2,8.8-1.1,10.3-5.3C117.6,26,101.4,20.6,98.5,31.3z"></path><path class="st0" d="M120,29.2c-0.6,2-0.7,4.1-0.2,6.2c0.9,4.2,5,6.9,9.2,6c4.2-0.9,6.9-5,6-9.2C134,24.9,122.5,20.3,120,29.2z"></path><path class="st1" d="M75,348l-0.3-2c9.9-1.4,19.8-1.9,29.8-1.7v2C94.7,346.1,84.8,346.6,75,348z"></path><rect class="st2" x="107.9" y="343.7" transform="matrix(0.9995 -3.071296e-02 3.071296e-02 0.9995 -10.5281 3.9134)" width="28.5" height="2"></rect><rect class="st1" x="74.9" y="354.6" transform="matrix(0.9993 -3.838781e-02 3.838781e-02 0.9993 -13.5837 3.6649)" width="27.6" height="2"></rect><rect class="st2" x="107.8" y="355.2" transform="matrix(1 -9.948213e-03 9.948213e-03 1 -3.5375 1.2301)" width="28.1" height="2"></rect><rect class="st2" x="121.4" y="352.7" transform="matrix(1.692891e-02 -0.9999 0.9999 1.692891e-02 -246.8655 483.4504)" width="2" height="29.2"></rect><rect class="st2" x="107.9" y="377.4" transform="matrix(0.9999 -1.396218e-02 1.396218e-02 0.9999 -5.2675 2.2051)" width="94.9" height="2"></rect><rect class="st2" x="140.2" y="389.2" transform="matrix(0.9999 -1.692889e-02 1.692889e-02 0.9999 -6.5816 2.9176)" width="57.6" height="2"></rect><polygon class="st2" points="140.2,405 140.2,403 194.3,402.7 194.3,404.7 194.1,404.7 	"></polygon><rect class="st2" x="140.2" y="416.8" transform="matrix(0.9999 -1.256604e-02 1.256604e-02 0.9999 -5.2346 2.5086)" width="113.6" height="2"></rect><path class="st1" d="M194.4,429.2l-0.1-2c17.9-1.3,35.8-1.4,53.7-0.3l-0.1,2C230,427.8,212.2,427.9,194.4,429.2z"></path><rect class="st1" x="218.6" y="416.9" transform="matrix(9.773646e-03 -1 1 9.773646e-03 -224.7428 657.5355)" width="2" height="50.6"></rect><rect class="st1" x="214" y="437.7" transform="matrix(1.849939e-02 -0.9998 0.9998 1.849939e-02 -247.2963 664.7988)" width="2" height="41.3"></rect><rect class="st2" x="140.2" y="269.7" transform="matrix(0.999 -4.431684e-02 4.431684e-02 0.999 -11.8259 8.0091)" width="69.1" height="2"></rect><polygon class="st2" points="140.2,285 140.2,283 185.6,282.3 185.7,284.3 184.5,284.3 184.5,284.3 	"></polygon><path class="st2" d="M154.5,296.6c-4.8,0-9.6-0.1-14.3-0.2l0.1-2c12.3,0.4,24.8,0.3,37.1-0.4l0.1,2
		C169.8,296.4,162.1,296.6,154.5,296.6z"></path><path class="st1" d="M103.5,305.4c-9.4-1.9-19-2.8-28.7-2.5l-0.1-2c9.8-0.3,19.5,0.5,29.1,2.5L103.5,305.4z"></path><rect class="st2" x="107.9" y="304.7" transform="matrix(0.9999 -1.326411e-02 1.326411e-02 0.9999 -4.0439 1.6328)" width="26.4" height="2"></rect><rect class="st1" x="88.2" y="299.3" transform="matrix(1.919872e-03 -1 1 1.919872e-03 -224.6222 402.1506)" width="2" height="28.6"></rect><polygon class="st2" points="107.9,316.2 107.8,314.2 137.1,313.7 137.2,315.7 132.9,315.9 132.9,315.8 	"></polygon><path class="st2" d="M137.6,327c-10,0-19.9-0.5-29.8-1.5l0.2-2c23.7,2.3,47.5,1.9,71.1-1.3l0.3,2C165.4,326.1,151.5,327,137.6,327z
		"></path><path class="st2" d="M161.2,338.1c-7.1,0-14.1-0.5-21.1-1.6l0.3-2c13.1,2,26.5,2.1,39.7,0.3l0.3,2
		C174,337.7,167.6,338.1,161.2,338.1z"></path><path class="st1" d="M75,72l-0.3-2c9.9-1.4,19.8-1.9,29.8-1.7v2C94.7,70.1,84.8,70.7,75,72z"></path><rect class="st2" x="107.8" y="67.6" transform="matrix(0.9995 -3.053851e-02 3.053851e-02 0.9995 -2.0395 3.7606)" width="28.5" height="2"></rect><rect class="st1" x="74.8" y="78.5" transform="matrix(0.9993 -3.838781e-02 3.838781e-02 0.9993 -2.9876 3.4612)" width="27.6" height="2"></rect><rect class="st2" x="107.8" y="79.2" transform="matrix(1 -9.948213e-03 9.948213e-03 1 -0.7914 1.2166)" width="28.1" height="2"></rect><rect class="st2" x="121.4" y="76.7" transform="matrix(1.692891e-02 -0.9999 0.9999 1.692891e-02 29.0876 212.1095)" width="2" height="29.2"></rect><rect class="st2" x="107.8" y="101.3" transform="matrix(0.9999 -1.396218e-02 1.396218e-02 0.9999 -1.4135 2.178)" width="94.9" height="2"></rect><rect class="st2" x="140.2" y="113.2" transform="matrix(0.9999 -1.692889e-02 1.692889e-02 0.9999 -1.9088 2.8777)" width="57.6" height="2"></rect><rect class="st2" x="140.2" y="126.8" transform="matrix(1 -6.108614e-03 6.108614e-03 1 -0.7776 1.0241)" width="54.1" height="2"></rect><rect class="st2" x="140.2" y="140.8" transform="matrix(0.9999 -1.239152e-02 1.239152e-02 0.9999 -1.7417 2.452)" width="113.6" height="2"></rect><path class="st1" d="M194.4,153.1l-0.1-2c17.9-1.3,35.8-1.4,53.7-0.3l-0.1,2C230,151.7,212.2,151.8,194.4,153.1z"></path><rect class="st1" x="218.6" y="140.9" transform="matrix(9.773646e-03 -1 1 9.773646e-03 51.265 384.2186)" width="2" height="50.6"></rect><rect class="st1" x="214" y="161.7" transform="matrix(1.849939e-02 -0.9998 0.9998 1.849939e-02 28.6698 393.9058)" width="2" height="41.3"></rect><rect class="st2" x="140.2" y="191.3" transform="matrix(0.999 -4.449121e-02 4.449121e-02 0.999 -8.3842 7.9644)" width="69.1" height="2"></rect><polygon class="st2" points="140.2,206.6 140.2,204.6 185.6,203.9 185.7,205.9 184.5,205.9 184.5,205.9 	"></polygon><path class="st2" d="M154.5,218.2c-4.8,0-9.6-0.1-14.4-0.2l0.1-2c12.3,0.4,24.8,0.3,37.1-0.4l0.1,2
		C169.8,218,162.1,218.2,154.5,218.2z"></path><path class="st1" d="M103.5,227c-9.4-1.9-19-2.8-28.7-2.5l-0.1-2c9.8-0.3,19.5,0.5,29.1,2.5L103.5,227z"></path><rect class="st2" x="107.9" y="226.3" transform="matrix(0.9999 -1.326411e-02 1.326411e-02 0.9999 -3.0043 1.6258)" width="26.4" height="2"></rect><rect class="st1" x="88.2" y="220.9" transform="matrix(1.919872e-03 -1 1 1.919872e-03 -146.2518 323.9307)" width="2" height="28.6"></rect><polygon class="st2" points="107.9,237.9 107.8,235.9 137.1,235.3 137.2,237.3 132.9,237.6 132.9,237.4 	"></polygon><path class="st2" d="M137.6,248.6c-10,0-19.9-0.5-29.8-1.5l0.2-2c23.7,2.3,47.5,1.9,71.1-1.3l0.3,2
		C165.4,247.7,151.5,248.6,137.6,248.6z"></path><path class="st2" d="M161.2,259.8c-7.1,0-14.1-0.5-21.1-1.6l0.3-2c13.1,2,26.5,2.1,39.7,0.3l0.3,2
		C174,259.3,167.6,259.8,161.2,259.8z"></path></g><g id="character_with-laptop"><path class="st2" d="M335.5,460.3c1,1.6,2.4,3,4.1,4c1.8,0.9,4.4,1.1,5.9-0.1c-18.2-41.1-36.5-83.2-36.5-126.9
		c16.7,3.7,31,14.4,37.1,27.9s4,29.3-5.5,41.3c-2.2,2.8-4.9,5.5-6.3,8.6s-1.5,7,1.2,9.5c9.4-9.2,18.9-18.5,25.3-29.3
		s9.4-23.5,5.3-35.1c-4.1-11.4-14.6-20.3-25.6-27.9c-8.9-6.1-18.6-11.6-29.8-14.2c-9.2-2.2-26.4-3.4-31.6,5.4
		c-4.8,8.1,1.3,20.9,3.5,28.9c7,24.5,16.8,48.1,29.1,70.4C318.7,435.8,326.7,448.3,335.5,460.3z"></path><path class="st0" d="M424.2,323.5c-1.5,6-7.5,10-13.6,10.7s-12.2-1.4-17.6-4.3c-3.3-1.8-6.8-4.3-7.2-8.1c-0.4-3.9,2.8-7.2,5.9-9.8
		c4.1-3.4,8.5-6.7,13.6-8C417.6,300.8,427.2,311.3,424.2,323.5z"></path><path class="st1" d="M408.2,335.2c-4.8,0-9.9-1.5-15.5-4.5c-4.8-2.5-7.2-5.4-7.6-8.7c-0.4-4.4,3-7.9,6.1-10.4
		c4.1-3.4,8.6-6.8,13.9-8.2c5.9-1.6,11.5-0.2,15.5,3.7c4.2,4.1,5.8,10.4,4.3,16.6l0,0c-1.5,5.9-7.3,10.5-14.2,11.3
		C409.8,335.1,409,335.2,408.2,335.2z M409.8,304.2c-1.5,0-2.9,0.2-4.3,0.6c-5,1.3-9.4,4.6-13.3,7.9c-2.8,2.3-6,5.5-5.6,9.1
		c0.3,2.8,2.5,5.2,6.8,7.5c6.4,3.4,12,4.8,17.2,4.2c6.3-0.7,11.6-4.9,12.9-10.2l0,0c1.4-5.8,0-11.5-3.9-15.2
		C417,305.6,413.5,304.2,409.8,304.2L409.8,304.2z M424.2,323.5L424.2,323.5z"></path><path class="st1" d="M351.3,252.8c7.2,3.7,15.2,6.2,20.8,12.5s7.4,18,1.2,24.2s-15.7,2.8-22.5-2c-19.5-14-32.8-36.5-44.9-58.8
		c-2.4-4.4-9.1-15.5-3.2-19.8c5.2-3.8,10.5,3.1,12.9,6.9C325.4,231.5,335.3,244.7,351.3,252.8z"></path><path class="st0" d="M279.1,184.9c0.9,3.3,2.4,6.5,4.5,9.3c2.2,2.7,5.4,4.7,8.8,4.7c6.2-0.1,10.4-6.3,12.9-12
		c9-20.1,12.1-42.2,15.1-64c0.5-3.5,0.8-7.4-1.5-10.1c-2.2-2.5-5.8-2.9-9.1-3c-8.5-0.3-17,0-25.5,0.7c-2.8,0.2-5.7,0.6-8.1,2.1
		c-4.9,3-3.6,9.4-3.6,14.2c0,6.6,0,13.3,0.3,19.9C273.6,159.6,275.2,172.5,279.1,184.9z"></path><path class="st1" d="M292.3,199.5c-3.7-0.2-7.1-2-9.3-5c-2.1-2.9-3.7-6.1-4.6-9.5c-3.5-11-5.5-23.1-6.2-38.3
		c-0.3-7.1-0.3-14.1-0.3-20c0-0.8,0-1.8-0.1-2.7c-0.2-4.4-0.4-9.5,4-12.2c2.5-1.5,5.4-1.9,8.4-2.2c8.5-0.7,17.1-0.9,25.7-0.6
		c3.7,0.1,7.4,0.6,9.7,3.2c2.5,2.9,2.1,7,1.6,10.7c-3,21.5-6.1,43.8-15.2,64.2c-3.6,8.1-8.3,12.4-13.6,12.5H292.3z M303.1,110.4
		c-6.2,0-12.4,0.3-18.6,0.8c-2.8,0.2-5.6,0.6-7.8,2c-3.7,2.3-3.5,6.7-3.3,10.9c0,0.9,0.1,1.9,0.1,2.7c0,5.9,0,12.8,0.3,19.9
		c0.7,15.1,2.6,27.1,6.1,38c0.9,3.2,2.4,6.3,4.3,9c1.9,2.6,5,4.2,8.2,4.4c5.9-0.1,9.9-6.3,12.3-11.6c9-20.2,12.1-42.4,15.1-63.8
		c0.5-3.3,0.8-7.1-1.3-9.5c-1.9-2.2-5.3-2.6-8.6-2.7C307.6,110.4,305.4,110.4,303.1,110.4z"></path><path class="st1" d="M325.2,110.1c13.6-7.6,24.7-19,31.9-32.8c2.7-5.3,4.8-12,1.4-16.8c-2.3-3.3-6.5-4.7-10.5-5.2
		c-8.5-1-17,1.1-24.9,4.3c-20.2,8.2-37.1,23-48,42c-5.1-0.1-10.4-0.2-15.2,1.4s-9.4,5.3-10.5,10.3c-1,4.5,0.9,9.2,2.8,13.4
		c4.8,10.3,11.1,20.9,21.6,25.2c1.7-5.4,3.1-10.8,4.1-16.4c0.5-2.8,0.9-5.5,1.2-8.3c0.2-1.7-0.1-4.9,1.2-6.3
		c2.2-2.4,10-0.9,13.1-1.1C304.6,118.8,315.4,115.5,325.2,110.1L325.2,110.1z"></path><path class="st1" d="M291.4,140.3c0.1,0.5,0.5,0.8,1,0.8c0.7,0,1.1-0.7,1.3-1.4c0.3-1.1,1.3-5.5-0.6-4.9
		C291.4,135.4,291,139.1,291.4,140.3z"></path><path class="st1" d="M302,141.2c0.4,0.2,1,0.2,1.4-0.1c0.4-0.3,0.7-0.7,0.9-1.1c0.7-1.2,2.6-5.4-0.3-4.7
		C302.2,135.7,300.3,140,302,141.2z"></path><path class="st1" d="M283.8,182c1,0.9,2.5,1.2,3.7,0.6c0.7-0.5,1.3-1.2,1.7-2c0.1-0.2,0.2-0.5,0.1-0.7c-0.1-0.4-0.6-0.4-1-0.5
		c-1.1-0.1-2.2-0.5-3.2-1.1c-0.5-0.3-1.8-1.7-2.5-1.5C280.9,177.2,282.9,181.2,283.8,182z"></path><path class="st0" d="M276.7,146.6c-1.9-1.3-4-2.6-6.3-2.3c-1.7,0.3-3.1,1.3-3.9,2.8c-0.8,1.5-1,3.2-0.6,4.8c0.5,2.3,2,4.3,4.1,5.3
		c2.1,1,4.7,0.7,6.5-0.7"></path><path class="st1" d="M272.7,158.4c-1,0-2.1-0.2-3-0.6c-2.3-1.1-4-3.3-4.5-5.8c-0.4-1.8-0.1-3.7,0.7-5.3c0.9-1.7,2.6-2.8,4.5-3.1
		c2.7-0.4,5.1,1.3,6.8,2.4c0.3,0.2,0.4,0.7,0.2,1c-0.2,0.3-0.7,0.4-1,0.2l0,0c-1.9-1.3-3.8-2.4-5.8-2.2c-1.4,0.2-2.7,1.1-3.3,2.4
		c-0.7,1.3-0.9,2.8-0.6,4.3c0.4,2.1,1.8,3.8,3.7,4.8c1.9,0.9,4.1,0.7,5.8-0.6c0.3-0.3,0.8-0.2,1.1,0.1c0.3,0.3,0.2,0.8-0.1,1.1l0,0
		C275.8,158,274.2,158.5,272.7,158.4z"></path><path class="st1" d="M277,225.5c2.6-6.5,5.8-13.2,10.9-17.1s12.8-4.4,17,0.9c2.8,3.6,3.5,8.8,4.1,13.6
		c3.9,31.1,11.7,61.3,17.7,91.9c0.7,3.7,1.4,7.9-0.5,11.1c-1.4,2.4-31.9,6.7-42.8,5.8c-5.8-0.5-20.6,1.7-23.3-7.4
		c-2.4-8.1-0.1-20,0.6-28.3c1-11.5,2.8-23,5.2-34.3C268.7,249.3,272.3,237.2,277,225.5z"></path><path class="st0" d="M290.3,267.2c3.4-5.3,8-10.1,13.8-12.6c5.8-2.6,12.9-2.7,18.2,0.6c4.7,2.9,7.6,7.9,9.8,12.9
		c3.2,7.4,5.3,15.3,6.1,23.3c0.3,1.7,0.2,3.4-0.3,5.1c-0.5,1.7-1.8,3-3.5,3.3c-1.6,0.2-3.1-0.7-4.4-1.7c-3.9-3-7-6.9-9-11.5
		c-0.6,2.7-1.3,5.5-3,7.6s-4.9,3.4-7.3,2.1s-3.3-4.5-5.5-6.3c-6-4.7-16.4,5.3-20.7-1.9C280.9,282,287.1,272.1,290.3,267.2z"></path><path class="st1" d="M334,300.5c-1.6-0.1-3.1-0.8-4.4-1.9c-3.5-2.6-6.3-6-8.3-9.8c-0.5,2.1-1.4,4.1-2.7,5.9
		c-1.8,2.3-5.4,3.8-8.3,2.3c-1.4-0.9-2.6-2.1-3.4-3.6c-0.6-1-1.3-2-2.2-2.7c-2.5-2-5.9-1.1-9.5-0.1c-4.3,1.1-8.8,2.3-11.4-2
		c-4-6.7,2.8-17.2,5.7-21.8l0,0c3.9-6.1,8.8-10.5,14.2-12.9c6.4-2.8,13.7-2.6,19,0.7c5.3,3.3,8.3,9.1,10.1,13.2
		c3.3,7.5,5.4,15.4,6.2,23.5c0.3,1.8,0.2,3.6-0.3,5.4c-0.6,2-2.2,3.4-4.2,3.8C334.4,300.5,334.2,300.5,334,300.5z M321.1,285.9
		c0.3,0,0.6,0.2,0.7,0.5c1.9,4.4,4.9,8.2,8.8,11.1c1,0.8,2.4,1.7,3.8,1.5c1.4-0.3,2.5-1.4,2.9-2.8c0.4-1.6,0.5-3.2,0.2-4.8
		c-0.8-8-2.9-15.7-6.1-23.1c-1.7-3.9-4.6-9.5-9.5-12.5c-4.9-3-11.6-3.2-17.6-0.6c-5.1,2.3-9.7,6.5-13.5,12.4
		c-2.8,4.3-9.2,14.3-5.7,20.2c2,3.4,5.6,2.4,9.7,1.4c3.8-1,7.7-2,10.8,0.4c1,0.9,1.9,1.9,2.5,3.1c0.7,1.3,1.6,2.3,2.8,3.1
		c2.1,1.1,4.9-0.1,6.4-2c1.7-2,2.3-4.8,2.9-7.3C320.5,286.1,320.7,285.9,321.1,285.9L321.1,285.9z"></path><path class="st0" d="M268.1,304.5c-2.9-0.2-5.8-0.4-8.5,0.8s-4.7,4.1-3.9,6.8c0.9,3,4.6,4.1,7.7,4.7l20.8,4c12,2.3,24,4.6,36.1,5.3
		c12.5,0.8,25.1-0.2,37.6-1.1l50.6-3.8c2.5-0.2,5.1-0.4,7.2-1.9s3.1-4.6,1.6-6.5c-1-1.1-2.4-1.8-3.9-2c-18.8-4.9-38.2-7.5-57.6-7.8
		c-8.4-0.1-16.5,1.2-25,1.7c-10,0.5-20,0.8-30.1,0.8C289.9,305.6,279,305.2,268.1,304.5z"></path><path class="st1" d="M330.1,327.2c-3.2,0-6.5-0.1-9.7-0.3c-12.2-0.7-24.4-3.1-36.2-5.4l-20.9-4c-3.3-0.6-7.2-1.8-8.3-5.2
		c-1-3.2,1.4-6.5,4.3-7.7s6-1,8.8-0.8c10.8,0.7,21.8,1.1,32.7,1.1c10,0,20.1-0.2,30.1-0.8c3.2-0.2,6.4-0.5,9.5-0.8
		c5.2-0.6,10.3-0.9,15.5-0.9c19.5,0.3,38.9,2.9,57.8,7.8c1.6,0.3,3.1,1,4.3,2.2c0.7,1,1,2.2,0.9,3.4c-0.3,1.7-1.2,3.2-2.6,4.2
		c-2.3,1.6-5.2,1.8-7.6,2l-50.6,3.8C348.9,326.5,339.5,327.2,330.1,327.2z M264.8,305.1c-1.7-0.1-3.4,0.2-4.9,0.9
		c-2.2,1-4.2,3.5-3.5,5.9c0.8,2.6,4.2,3.6,7.1,4.2l20.8,4c11.8,2.3,23.9,4.6,36,5.3c12.5,0.8,25.2-0.2,37.5-1.1l50.6-3.8
		c2.3-0.2,4.9-0.4,6.8-1.7c1.1-0.8,1.8-1.9,2-3.2c0.1-0.8-0.1-1.6-0.5-2.3c-1-0.9-2.2-1.5-3.5-1.7c-18.8-4.8-38-7.5-57.4-7.8
		c-5.1,0-10.2,0.3-15.3,0.9c-3.1,0.3-6.3,0.6-9.6,0.8c-10,0.5-20.1,0.8-30.2,0.8c-10.9,0-21.9-0.4-32.8-1.1l0,0
		C267,305.2,265.9,305.1,264.8,305.1L264.8,305.1z"></path><path class="st0" d="M272.4,154.5c-0.1,0-0.1,0-0.2,0c-1.4-0.5-2.6-1.4-3.3-2.6c-0.8-1.4-0.7-3.1,0.4-4.3c0.7-0.6,1.6-0.9,2.5-0.7
		c0.8,0.1,1.4,0.6,1.8,1.3c0.1,0.3,0,0.6-0.3,0.7c0,0,0,0,0,0c-0.3,0.1-0.6,0-0.7-0.3c-0.2-0.4-0.5-0.6-0.9-0.7
		c-0.5-0.1-1.1,0-1.5,0.4c-0.7,0.8-0.8,2.1-0.2,3c0.7,1,1.6,1.8,2.8,2.2c0.3,0.1,0.4,0.4,0.3,0.7
		C272.8,154.4,272.6,154.6,272.4,154.5L272.4,154.5z"></path><path class="st1" d="M226,258.7c-2.6,3.2-4.7,6.8-6.2,10.7c-1.5,3.9-1.6,8.2-0.4,12.1c2,5.5,7.3,9.1,12.7,11.3
		c8.2,3.3,17.1,4,25.9,3.7c8.1-0.2,16.1-1.2,24-3c1.6-0.4,3.5-0.9,4.2-2.5c0.3-1,0.4-2,0.2-3.1c-0.5-4.3-1.1-8.6-1.6-12.9l-30.1,0.8
		c-2.8,0.1-5.9,0-7.8-2c-2.4-2.6-1.5-6.8,0.1-9.9c4.7-9.7,13.4-16.7,21.4-23.9c8.1-7.4,15.8-15.2,23-23.5c3.8-4.4,2.2-8.8-3.6-6.7
		c-5.6,2-10.8,6.1-15.8,9.2c-11.1,6.8-21.6,14.7-31.2,23.5C235.3,247.5,230.4,252.9,226,258.7z"></path><path class="st0" d="M271,238.3c-0.2,0-0.3-0.1-0.4-0.2c-0.2-0.2-0.2-0.6,0-0.8c7.3-6.5,14.1-13.6,20.3-21.1
		c0.2-0.2,0.6-0.3,0.8-0.1c0.2,0.2,0.2,0.6,0,0.8c-6.3,7.5-13.1,14.6-20.4,21.2C271.2,238.2,271.1,238.2,271,238.3z"></path><path class="st0" d="M259.3,297.4c-0.3,0-0.6-0.2-0.6-0.5c0-0.3,0.2-0.6,0.5-0.6c7.6-0.2,14.1-1.4,22.7-3.3
		c1.6-0.4,3.2-0.9,3.8-2.1c0.3-0.9,0.4-1.8,0.1-2.8l-1.6-12.4c-4.7,0.1-8,0.4-11.2,0.6s-6.8,0.5-11.8,0.6c-0.3,0-0.6-0.2-0.6-0.5
		c0-0.3,0.2-0.6,0.5-0.6c0,0,0,0,0,0c5-0.1,8.4-0.4,11.7-0.6s6.8-0.5,11.8-0.6c0.3,0,0.5,0.2,0.6,0.5l1.7,12.9
		c0.2,1.1,0.2,2.3-0.2,3.4c-0.8,1.8-2.8,2.4-4.6,2.8C273.5,295.9,267,297.1,259.3,297.4L259.3,297.4z"></path><path class="st1" d="M321.1,287.8c-0.3,0-0.5-0.2-0.6-0.5c-0.5-8.9-4.4-17.2-11-23.2c-0.2-0.2-0.2-0.6,0-0.8c0.2-0.2,0.6-0.2,0.8,0
		c6.7,6.2,10.8,14.8,11.3,24C321.7,287.6,321.5,287.8,321.1,287.8L321.1,287.8z"></path><path class="st0" d="M310.5,234.6c-0.3,0-0.5-0.2-0.5-0.5l-2.7-13.7c-0.1-0.3,0.1-0.6,0.4-0.7s0.6,0.1,0.7,0.4l2.7,13.7
		c0.1,0.3-0.1,0.6-0.4,0.7L310.5,234.6z"></path><path class="st1" d="M324.5,320c-6.9,0-13.7-1-20.4-2.1l-38.8-6c-1.5-0.2-3-0.5-3.8-1.7c-0.6-0.8-0.6-1.9,0-2.8
		c0.3-0.6,1.1-1,1.8-0.9c0.3,0,0.5,0.3,0.5,0.6c0,0.3-0.3,0.5-0.6,0.5l0,0c-0.3,0-0.5,0.1-0.6,0.4c-0.3,0.5-0.3,1.1,0,1.5
		c0.6,0.9,1.9,1.1,3.1,1.3l38.8,6c9.1,1.4,18.4,2.8,27.7,1.6c0.3,0,0.6,0.2,0.6,0.5c0,0.3-0.2,0.6-0.5,0.6
		C329.6,319.8,327,320,324.5,320z"></path><path class="st0" d="M339.6,312.1c-0.7,2-1.3,4.2-0.2,6c1.3,2.1,4.2,2.3,6.7,2.2c19.6-0.7,39.3-2.1,58.8-4.2
		c6-0.7,12.3-1.5,17.3-4.9c4.7-3.3,7.7-8.5,10.3-13.6c10.5-20.5,18.2-42.3,22.6-64.9c0.4-1.5,0.4-3.1,0-4.6c-1.2-3.2-5.6-3.7-9-3.6
		l-67.1,1.8c-4.8,0.1-9.2-1.2-11.6,3.1c-2.5,4.7-3.6,10.8-5.3,15.8l-10.5,31.2L339.6,312.1z"></path><path class="st1" d="M345.2,321.1c-2.4,0-5.1-0.4-6.5-2.5s-0.6-4.5,0.1-6.6l22.6-66.9c0.5-1.6,1-3.4,1.5-5.2
		c0.9-3.7,2.2-7.3,3.8-10.7c2-3.8,5.7-3.7,9.3-3.5c1,0,2,0.1,2.9,0l67.1-1.8c5.5-0.1,8.6,1.2,9.8,4.1c0.5,1.6,0.5,3.4,0,5
		c-4.5,22.6-12.1,44.5-22.7,65.1c-2.6,5.1-5.6,10.4-10.5,13.8s-11.2,4.4-17.7,5.1c-19.5,2.1-39.3,3.6-58.9,4.2L345.2,321.1z
		 M374,227c-2.5,0-4.5,0.4-5.8,2.8c-1.6,3.3-2.8,6.8-3.7,10.4c-0.5,1.8-1,3.6-1.6,5.2l-22.6,66.9l0,0c-0.6,1.8-1.2,3.9-0.3,5.4
		c1.1,1.8,3.8,1.9,6,1.8c19.6-0.7,39.3-2.1,58.8-4.2c6.5-0.7,12.3-1.6,17-4.8s7.5-8.3,10.1-13.3c10.5-20.4,18.1-42.2,22.6-64.7
		c0.4-1.4,0.4-2.8,0.1-4.2c-0.9-2.2-3.6-3.2-8.3-3.1l-67.1,1.8c-1,0-2.1,0-3,0C375.4,227,374.7,227,374,227z M339.6,312.1
		L339.6,312.1z"></path><path class="st1" d="M337.9,468c2,3.7,4.7,7,8,9.7c3.3,2.7,7.4,4.2,11.7,4.3c1.3,0.1,2.5-0.3,3.4-1.2c1-1.2,0.7-3,0.2-4.5
		c-2.5-7.5-8-11.6-14.7-15.2c-2.1-1.1-5.1-3.7-7.6-2.7C334.9,460,336.4,465.3,337.9,468z"></path><path class="st1" d="M328.4,427.9l6.8,13.7c0.5,1.2,1.2,2.3,2.1,3.2c0.9,0.9,2.3,1.3,3.6,1c2.1-0.7,2.6-3.3,2.6-5.5
		c0-6.8-0.6-19.7-6.1-24.8c-2.5-2-6-2.1-8.6-0.2C324.5,418.5,326.5,424,328.4,427.9z"></path></g><g id="html"><path class="st2" d="M343.1,168c0.2,4.4,1,9.1,5.2,12c3.9,2.6,9.5,2.9,14.7,3l57,1.6c5,0.1,10.5,0.2,14.5-2.2
		c4.7-2.8,5.5-8,5.8-12.6c0.8-11.6,1-23.2,0.8-34.8c-0.1-4.2-0.4-8.8-4.2-11.8c-4.5-3.7-12.1-3.7-18.7-3.4l-34.4,1.4l-17.2,0.7
		c-4.3,0.2-13.9-0.8-17.6,0.8c-6.1,2.6-4.9,14.2-5.3,19.2C342.8,150.6,342.6,159.3,343.1,168z"></path><path class="st1" d="M353.4,134.2c1-1.6,2.8-2.3,4.6-1.9c1.7,0.5,3.3,1.3,4.7,2.5c5.1,3.8,10.1,7.8,15,11.9
		c1.8,1.6,3.8,3.5,3.8,5.9c0,2-1.5,3.6-2.8,5.1L367.2,170c-1.6,1.7-3.3,3.5-5.5,4.2s-5.2-0.1-5.9-2.3c-0.8-2.4,1.1-4.8,2.9-6.6
		c4.7-4.8,13.1-10.1,8-17.2C364.1,144.7,350.4,140.1,353.4,134.2z"></path><path class="st1" d="M430.4,134.2c-1-1.6-2.8-2.3-4.6-1.9c-1.7,0.5-3.3,1.3-4.7,2.5c-5.1,3.8-10.1,7.8-15,11.9
		c-1.8,1.6-3.8,3.5-3.8,5.9c0,2,1.5,3.6,2.8,5.1l11.4,12.3c1.6,1.7,3.3,3.5,5.5,4.2s5.2-0.1,5.9-2.3c0.8-2.4-1.1-4.8-2.9-6.6
		c-4.7-4.8-13.1-10.1-8-17.2C419.7,144.7,433.4,140.1,430.4,134.2z"></path><path class="st1" d="M387.1,166.2c0,1.9,0.6,3.7,1.5,5.3c1.1,1.5,3.2,2.5,4.9,1.6c4.1-2.3,4.2-41.2-0.7-42.9
		C382.1,126.6,386.7,162.3,387.1,166.2z"></path><path class="st2" d="M385.7,188.9c0.9,1.4,2.1,2.9,3.8,3.1s3.3-1,4.6-2.3c4.6-4.6,8.2-10.2,10.6-16.3c-7.1,0.4-15.2-0.2-22.2,1.3
		C375,176.4,383.1,185.1,385.7,188.9z"></path></g></svg>