<svg transform="scale(1)" version="1.1" id="Layer_1" xmlns="http://www.w3.org/2000/svg" xmlns:xlink="http://www.w3.org/1999/xlink" x="0px" y="0px" viewBox="0 0 500 500" xml:space="preserve" class="show_show__wrapper__graphic__5Waiy "><title>React</title><style type="text/css">
	.st0{fill:#FFFFFF;}
	.st1{fill:#111111;}
	.st2{fill:#6c63ff;}
</style><g id="coding-tab"><g id="presentation"><path class="st0" d="M12.3,112.3c0.3,24.4,0.7,142.5,1,166.9c0,2.6,0.4,5.7,3.2,6.8c1.3,0.4,2.7,0.6,4.1,0.4l20.8-0.8
			c22.2-0.8,193.4,0.2,215.5-0.6c4.6-0.2,10.1-0.7,12.5-4.1c1.4-1.9,1.4-4.2,1.3-6.4c-0.3-22.2,0.4-141.7,0.1-164
			c0-2.4-0.1-5.1-1.9-7c-2.6-2.9-7.7-3-12.1-2.8c-18.5,0.6-187.1,1.7-205.6,1.3c-9.2-0.2-18.4-0.3-27.6-0.7
			C15.5,100.9,12.2,106,12.3,112.3z"></path><path class="st1" d="M19.4,287.1c-1.1,0-2.1-0.1-3.1-0.5c-3.6-1.5-3.7-5.9-3.7-7.5c-0.2-12.2-0.3-48.4-0.5-83.5
			s-0.3-71.2-0.5-83.4c-0.1-3.8,1-6.9,3.2-8.9s5.1-3,8.9-2.8c6.7,0.3,13.5,0.4,20,0.6l7.6,0.2c19.3,0.4,189.2-0.8,205.6-1.3
			c4.6-0.1,9.8,0,12.7,3.1c2,2.2,2.1,5.2,2.1,7.5c0.2,11.2,0.1,47.2,0,82.1s-0.2,70.8,0,82c0,2.1,0.1,4.7-1.5,6.9
			c-2.5,3.5-7.8,4.2-13.1,4.4c-11.1,0.4-60.2,0.4-107.7,0.3s-96.7-0.1-107.8,0.3l-20.8,0.8C20.3,287.1,19.9,287.1,19.4,287.1z
			 M22.8,102c-2.6-0.1-5.1,0.7-7,2.4c-1.8,1.8-2.8,4.5-2.7,7.8c0.2,12.2,0.3,48.4,0.5,83.4s0.3,71.3,0.5,83.4c0,2.4,0.4,5.2,2.8,6.1
			c1.2,0.4,2.5,0.5,3.8,0.4l20.8-0.8c11.1-0.4,60.3-0.4,107.9-0.3s96.6,0.1,107.6-0.3c4.7-0.2,9.8-0.8,11.9-3.8
			c1.2-1.6,1.2-3.6,1.2-6c-0.2-11.1-0.1-47.2,0-82s0.2-70.9,0-82c0-2.6-0.2-4.8-1.7-6.5c-2.4-2.6-7.2-2.7-11.5-2.6
			c-18,0.6-185.9,1.8-205.7,1.3l-7.5-0.2c-6.6-0.1-13.4-0.3-20.1-0.6L22.8,102z"></path></g><path class="st2" d="M271,119.4c0-3,0-6-0.1-8.9c0-2.4-0.1-5.1-1.9-7c-2.6-2.9-7.7-3-12.1-2.8c-18.5,0.6-187.1,1.7-205.6,1.3
		c-9.2-0.2-18.4-0.3-27.6-0.7c-8.2-0.4-11.4,4.7-11.3,11l0.1,7.2L271,119.4z"></path><path class="st0" d="M23.4,109.7c-0.5,1.6,0,3.3,1.2,4.4c1.2,1.1,3,1.4,4.5,0.7c1.5-0.7,2.4-2.3,2.3-3.9
		C31.1,106.3,24.8,105.1,23.4,109.7z"></path><path class="st0" d="M34,109.2c-0.5,2.2,0.7,4.4,2.8,5.1c2.2,0.6,4.5-0.5,5.2-2.7C43.6,106.5,35.5,103.8,34,109.2z"></path><path class="st0" d="M44.8,108.1c-0.3,1-0.4,2.1-0.1,3.1c0.6,2.1,2.7,3.3,4.8,2.7c1.9-0.5,3.1-2.4,2.8-4.3
		C51.8,106,46,103.7,44.8,108.1z"></path><path class="st2" d="M26.4,250.6c-0.6,0-1-0.4-1-1c0-0.6,0.4-1,1-1c10.4-0.7,20.9-1,31.3-1.1c0.6,0,1,0.4,1,1s-0.4,1-1,1
		C47.3,249.5,36.8,249.9,26.4,250.6L26.4,250.6z"></path><path class="st1" d="M62,249.4c-0.6,0-1-0.4-1-1s0.4-1,1-1l30.1-0.7c0.6,0,1,0.4,1,1s-0.4,1-1,1L62,249.4L62,249.4z"></path><path class="st2" d="M26.4,254.4c-0.6,0-1-0.4-1-1s0.4-1,1-1l29.1-0.8c0.6,0,1,0.4,1,1s-0.4,1-1,1L26.4,254.4L26.4,254.4z"></path><path class="st1" d="M62,254.1c-0.6,0-1-0.4-1-1s0.4-1,1-1l29.7-0.4c0.6,0,1,0.4,1,1s-0.4,1-1,1L62,254.1z"></path><path class="st1" d="M62,258.7c-0.6,0-1-0.4-1-1s0.4-1,1-1l30.8-0.1l0,0c0.6,0,1,0.4,1,1s-0.4,1-1,1L62,258.7z"></path><path class="st1" d="M62,263.8c-0.6,0-1-0.4-1-1s0.4-1,1-1l100.1-1.6c0.6,0,1,0.4,1,1s-0.4,1-1,1L62,263.8L62,263.8z"></path><path class="st2" d="M96.5,268.4c-0.6,0-1-0.4-1-1s0.4-1,1-1l60.8-1.1c0.6,0,1,0.4,1,1s-0.4,1-1,1L96.5,268.4L96.5,268.4z"></path><path class="st2" d="M96.5,274c-0.6,0-1-0.4-1-1s0.4-1,1-1l57.1-0.8c0.6,0,1,0.4,1,1s-0.4,1-1,1L96.5,274L96.5,274z"></path><path class="st2" d="M96.5,218.1c-0.6,0-1-0.4-1-1s0.4-1,1-1l72.7-2.1c0.6,0,1,0.4,1,1s-0.4,1-1,1L96.5,218.1L96.5,218.1z"></path><path class="st2" d="M96.5,223c-0.6,0-1-0.4-1-1s0.4-1,1-1l47.9-0.8c0.6,0,1,0.4,1,1s-0.4,1-1,1h-1.3H143L96.5,223L96.5,223z"></path><path class="st2" d="M99.1,227.9h-2.7c-0.6,0-1-0.4-1-1s0.4-1,1-1l0,0c13,0,26.2-0.2,39.2-0.6c0.6,0,1,0.4,1,1s-0.4,1-1,1
		C123.6,227.7,111.2,227.9,99.1,227.9z"></path><path class="st2" d="M57,232.1L57,232.1c-10.1-0.7-20.4-1-30.5-0.7c-0.6,0-1-0.4-1-1s0.4-1,1-1c10.2-0.2,20.5,0,30.6,0.7
		c0.6,0,1,0.5,1,1C58.1,231.7,57.6,232.1,57,232.1L57,232.1z"></path><path class="st1" d="M62,232.7c-0.6,0-1-0.4-1-1s0.4-1,1-1l27.9-0.4c0.6,0,1,0.4,1,1s-0.4,1-1,1L62,232.7z"></path><path class="st2" d="M26.4,236.3c-0.6,0-1-0.4-1-1s0.4-1,1-1l30.2-0.3l0,0c0.6,0,1,0.4,1,1s-0.4,1-1,1L26.4,236.3z"></path><path class="st1" d="M62,236.7c-0.6,0-1-0.4-1-1s0.4-1,1-1l30.9-0.6c0.6,0,1,0.4,1,1s-0.4,1-1,1l-4.5,0.1c-0.1,0-0.2,0-0.3-0.1
		L62,236.7z"></path><path class="st1" d="M84.9,241c-7.7,0-15.3-0.1-22.9-0.3c-0.6,0-1-0.5-1-1c0-0.6,0.5-1,1-1c24.9,0.7,50.1,0.3,75.1-1.4
		c0.6,0,1,0.4,1.1,0.9s-0.4,1-0.9,1.1C119.9,240.4,102.3,241,84.9,241z"></path><path class="st2" d="M114.7,245.4c-6.1,0-12.2-0.1-18.3-0.5c-0.6,0-1-0.5-1-1.1c0-0.6,0.5-1,1.1-0.9c14,0.7,28.1,0.6,42.1-0.3
		c0.6,0,1,0.4,1.1,0.9s-0.4,1-0.9,1.1C130.8,245.1,122.7,245.4,114.7,245.4z"></path><path class="st2" d="M26.4,133.4c-0.6,0-1-0.4-1-1c0-0.6,0.4-1,1-1c10.4-0.7,20.9-1,31.3-1.1l0,0c0.6,0,1,0.4,1,1s-0.4,1-1,1
		C47.3,132.4,36.8,132.7,26.4,133.4L26.4,133.4z"></path><path class="st1" d="M62,132.2c-0.6,0-1-0.4-1-1s0.4-1,1-1l30.1-0.7c0.6,0,1,0.4,1,1s-0.4,1-1,1L62,132.2z"></path><path class="st2" d="M26.4,137.3c-0.6,0-1-0.4-1-1s0.4-1,1-1l29.1-0.8c0.6,0,1,0.4,1,1c0,0.6-0.4,1-1,1L26.4,137.3L26.4,137.3z"></path><path class="st1" d="M62,137c-0.6,0-1-0.4-1-1s0.4-1,1-1l29.7-0.4c0.6,0,1,0.4,1,1s-0.4,1-1,1L62,137z"></path><path class="st1" d="M62,141.5c-0.6,0-1-0.4-1-1s0.4-1,1-1l30.8-0.1l0,0c0.6,0,1,0.4,1,1s-0.4,1-1,1L62,141.5z"></path><path class="st1" d="M62,146.6c-0.6,0-1-0.4-1-1s0.4-1,1-1l100.1-1.6c0.6,0,1,0.4,1,1s-0.4,1-1,1L62,146.6z"></path><path class="st2" d="M96.5,151.2c-0.6,0-1-0.4-1-1s0.4-1,1-1l60.8-1.1c0.6,0,1,0.4,1,1s-0.4,1-1,1
		C157.2,150.2,96.5,151.2,96.5,151.2z"></path><path class="st2" d="M96.5,156.8c-0.6,0-1-0.4-1-1s0.4-1,1-1l57.1-0.8c0.6,0,1,0.4,1,1s-0.4,1-1,1L96.5,156.8z"></path><path class="st2" d="M96.5,163c-0.6,0-1-0.4-1-1s0.4-1,1-1l119.9-1.9c0.6,0,1,0.4,1,1s-0.4,1-1,1L96.5,163L96.5,163z"></path><path class="st2" d="M165.4,166.4c-0.6,0-1-0.4-1-1s0.4-1,1-1c18.7-0.8,37.7-1,56.5-0.7c0.6,0,1,0.4,1,1s-0.4,1-1,1
		c-18.8-0.3-37.8,0-56.4,0.7H165.4z"></path><path class="st2" d="M165.5,172.3c-0.6,0-1-0.4-1-1s0.4-1,1-1l53.4-0.4l0,0c0.6,0,1,0.4,1,1s-0.4,1-1,1L165.5,172.3L165.5,172.3z"></path><path class="st2" d="M165.5,179c-0.6,0-1-0.4-1-1s0.4-1,1-1l43.6-0.1l0,0c0.6,0,1,0.4,1,1s-0.4,1-1,1L165.5,179L165.5,179z"></path><path class="st2" d="M96.5,184.8c-0.6,0-1-0.4-1-1s0.4-1,1-1l72.8-2.1c0.6,0,1,0.4,1,1s-0.4,1-1,1L96.5,184.8L96.5,184.8z"></path><path class="st2" d="M96.5,189.8c-0.6,0-1-0.4-1-1s0.4-1,1-1l47.9-0.8c0.6,0,1,0.4,1,1s-0.4,1-1,1h-1.2l0,0L96.5,189.8L96.5,189.8z
		"></path><path class="st2" d="M99.1,194.6h-2.6c-0.6,0-1-0.4-1-1s0.4-1,1-1l0,0c13,0,26.2-0.2,39.2-0.6c0.6,0,1,0.4,1,1s-0.4,1-1,1
		C123.6,194.4,111.2,194.6,99.1,194.6z"></path><path class="st2" d="M57,198.9L57,198.9c-10.1-0.7-20.4-1-30.5-0.7c-0.6,0-1-0.4-1-1s0.4-1,1-1c10.2-0.2,20.5,0,30.7,0.7
		c0.6,0,1,0.5,1,1C58.1,198.5,57.6,198.9,57,198.9L57,198.9z"></path><path class="st1" d="M62,199.4c-0.6,0-1-0.4-1-1s0.4-1,1-1l27.9-0.4c0.6,0,1,0.4,1,1s-0.4,1-1,1L62,199.4z"></path><path class="st2" d="M26.4,203.1c-0.6,0-1-0.4-1-1s0.4-1,1-1l30.2-0.3l0,0c0.6,0,1,0.4,1,1s-0.4,1-1,1L26.4,203.1z"></path><path class="st1" d="M62,203.4c-0.6,0-1-0.4-1-1s0.4-1,1-1l30.9-0.6c0.6,0,1,0.4,1,1c0,0.6-0.4,1-1,1l-4.5,0.1
		c-0.1,0-0.2,0-0.3-0.1L62,203.4z"></path><path class="st1" d="M84.9,207.7c-7.7,0-15.3-0.1-22.9-0.3c-0.6,0-1-0.5-1-1c0-0.6,0.5-1,1-1c24.9,0.7,50.1,0.3,75.1-1.4
		c0.6,0,1,0.4,1.1,0.9c0,0,0,0,0,0c0,0.5-0.4,1-0.9,1.1C119.9,207.1,102.3,207.7,84.9,207.7z"></path><path class="st2" d="M114.7,212.1c-6.1,0-12.2-0.2-18.3-0.5c-0.6,0-1-0.4-1-1c0-0.5,0.5-1,1-0.9c14,0.7,28.1,0.6,42.1-0.3
		c0.6,0,1,0.4,1.1,0.9s-0.4,1-0.9,1.1C130.8,211.9,122.7,212.1,114.7,212.1z"></path></g><g id="ground"><path class="st2" d="M474,390c-69.3,0.7-138.5,1.5-207.8,2.5h-6.4c-11.1,0-22.3,0-33.4,0.1c-5.8-0.3-11.5-0.3-17.3,0.1
		c-5.3,0-10.5,0.1-15.8,0.1c-43.7,0.5-87.4,1.3-131.1,2.6c-3.2,0.1-7.2,0.8-7.8,3.6c-0.8,3.6,4.9,5.1,8.9,5.1
		c69.3-0.7,138.5-1.5,207.7-2.5c2.2,0,4.3,0,6.5,0c11.3,0,22.5,0,33.8-0.1c5.6,0.3,11.2,0.3,16.7-0.1l16-0.1
		c43.7-0.5,87.4-1.3,131.1-2.6c3.2-0.1,7.2-0.8,7.8-3.6C483.7,391.5,478.1,390,474,390z"></path></g><g id="js"><g id="tab"><g id="presentation-2"><path class="st1" d="M346.4,110.7l1.2,63.4c0,2.2,0.5,4.9,3.8,5.9c1.6,0.4,3.2,0.5,4.8,0.4l24.2-0.7c25.9-0.7,51.7,0.2,77.5-0.5
				c5.4-0.1,11.7-0.6,14.5-3.5c1.6-1.6,1.6-3.6,1.6-5.6c-0.4-19.3,0.5-41.6,0.1-60.9c0-2.1-0.2-4.4-2.2-6c-3.1-2.5-9-2.6-14.1-2.4
				c-21.5,0.5-44.4,1.5-65.9,1.1c-10.7-0.2-21.4-0.3-32.1-0.6C350,100.9,346.2,105.3,346.4,110.7z"></path></g><path class="st0" d="M391.7,111.4c-0.6,1-0.7,2.3-0.2,3.4c0.5,0.8,1.5,1.2,2.4,1l64.5-0.2c0.9,0.1,1.8-0.1,2.5-0.6
			c0.9-0.7,1.3-1.9,1.1-3c-0.3-1.7-1.8-2-3-2l-27.2-0.3l-27.1-0.3l-7.6-0.1C395.2,109.4,393.1,109.1,391.7,111.4z"></path><path class="st0" d="M356.7,112.5c-0.5,1.5,0,3.1,1.1,4.2c1.2,1,2.8,1.3,4.3,0.7c1.4-0.7,2.3-2.2,2.2-3.7
			C364,109.3,358.1,108.2,356.7,112.5z"></path><path class="st0" d="M366.8,112c-0.5,2,0.6,4.1,2.6,4.8c2,0.6,4.1-0.5,4.8-2.5C375.8,109.5,368.2,107,366.8,112z"></path><path class="st0" d="M377,111c-0.3,0.9-0.3,2-0.1,2.9c0.6,1.9,2.7,3,4.6,2.4c1.7-0.5,2.7-2.2,2.5-3.9
			C383.6,109,378.1,106.8,377,111z"></path><path class="st2" d="M376.1,131.1c-0.9-1.5-2.6-2.2-4.3-1.8c-1.6,0.4-3.1,1.2-4.4,2.3c-4.8,3.5-9.4,7.2-13.9,11.1
			c-1.7,1.5-3.6,3.3-3.5,5.5c0,1.9,1.4,3.4,2.6,4.8l10.6,11.5c1.5,1.6,3.1,3.3,5.1,4s4.8-0.1,5.5-2.2c0.8-2.2-1-4.4-2.7-6.1
			c-4.4-4.4-12.2-9.4-7.4-16C366.2,140.9,378.9,136.7,376.1,131.1z"></path><path class="st2" d="M439.3,131.1c0.9-1.5,2.6-2.2,4.3-1.8c1.6,0.4,3.1,1.2,4.4,2.3c4.8,3.5,9.4,7.2,13.9,11.1
			c1.7,1.5,3.6,3.3,3.5,5.5c0,1.9-1.4,3.4-2.6,4.8l-10.6,11.5c-1.5,1.6-3.1,3.3-5.1,4s-4.8-0.1-5.5-2.2c-0.8-2.2,1-4.4,2.7-6.1
			c4.4-4.4,12.2-9.4,7.4-16C449.3,140.9,436.6,136.7,439.3,131.1z"></path></g><path class="st2" d="M397.4,152.3c-0.2,1.4-0.7,2.8-1.4,4c-0.8,1.2-2.1,1.9-3.6,1.9c-1.8-0.2-3-2-4-3.5s-2.5-3.1-4.3-2.8
		c-1.4,0.4-2.4,1.6-2.5,3c0,1.4,0.3,2.8,1.1,4c1.5,2.8,3.8,5.1,6.7,6.4c2.9,1.3,6.3,1.1,9.1-0.5c2.3-1.6,4-3.9,4.7-6.6
		c0.7-2.7,1.1-5.4,1.1-8.2l1-16.4c0.2-1.5,0.1-3-0.3-4.5c-2.4-6.6-6.5-0.6-6.5,3.2C398.4,139.2,398.7,145.6,397.4,152.3z"></path><path class="st2" d="M410.9,135.8c-1.7,3.9-0.5,8.9,3.1,11.1c2.5,1.5,5.7,1.3,8.6,1.7s6.2,1.8,6.9,4.6s-1.5,5.6-4.2,6.4
		s-5.6-0.1-8-1.6c-1-0.7-2.1-1.3-3.3-1.6c-1.2-0.3-2.5,0.4-2.9,1.6c-0.1,0.6,0,1.2,0.3,1.7c2.2,4.7,7.2,7.5,12.5,6.9
		c5.1-0.7,9.5-4.2,11.4-9c1.4-3.4,1.4-7.8-1.2-10.5c-3.3-3.5-9-2.9-13.5-4.6c-1.6-0.6-3.2-1.7-3.7-3.4c-0.7-2.5,1.7-4.9,4.2-5.4
		c3.1-0.5,10.5,4.2,12.7,2c2.1-2-0.9-4.4-2.6-5.6C424.9,125.9,414,128.7,410.9,135.8z"></path></g><g id="character"><path class="st1" d="M298.6,410.8c-2,1.6-4.2,3.7-3.8,6.2c0.5,1.9,2.2,3.3,4.2,3.4c1.9,0.1,3.9-0.2,5.7-0.9c13-4,25.2-10,36.5-17.6
		c2.5-1.8,5.3-4.1,5.2-7.2c-0.1-3.5-3.7-5.7-7-6.6c-2.8-0.7-6.8-2.4-9.6-1.7c-3.2,0.8-7.2,5.6-9.8,7.6L298.6,410.8z"></path><path class="st1" d="M194.4,400c-2.5-0.4-5.6-0.5-7.1,1.6c-1.1,1.6-0.7,3.8,0.4,5.4c1.2,1.5,2.8,2.7,4.5,3.5
		c11.8,6.6,24.6,11.5,37.9,14.4c3,0.6,6.6,1,8.8-1.2c2.4-2.4,1.6-6.6-0.1-9.6c-1.4-2.5-2.9-6.6-5.3-8.1c-2.8-1.8-9-1.4-12.3-1.9
		L194.4,400z"></path><path class="st1" d="M316.4,352c7.8-3.2,17.2-5.8,24.3-2.5c8.2,3.9,8.7,13.6,5.4,21.3c-6.9,16.4-25.1,28.1-43,37.7
		c-11.2,6-23.2,11.7-36.2,13.2c-22,2.5-42.3-7.5-57.5-19.6c-10-8-18.8-17.4-22.8-28.4c-2-5.4-2.7-11.5,0.5-16.7
		c3.5-5.7,11.3-9.3,19-10.2s15.3,0.6,22.4,2.6c15.3,4.2,29.7,11.5,42.1,21.4c4,3.3,4,4.9,9,1.5c3.7-2.6,7.5-5.2,11.4-7.5
		C299.1,359.9,307.6,355.6,316.4,352z"></path><path class="st0" d="M265.3,388.7c-0.1,0-0.2,0-0.2-0.1c-17.1-8.8-33.1-19.7-47.7-32.2c-0.2-0.2-0.2-0.5-0.1-0.7
		c0.2-0.2,0.5-0.2,0.7-0.1c14.5,12.5,30.5,23.3,47.5,32.1c0.2,0.1,0.3,0.4,0.2,0.7C265.7,388.6,265.5,388.7,265.3,388.7z"></path><path class="st0" d="M227.5,413.2c-0.2,0-0.3-0.1-0.4-0.2c-0.2-0.2-0.1-0.5,0.1-0.7c29.1-20.7,60.1-38.6,92.5-53.6
		c0.3-0.1,0.5,0,0.7,0.2c0.1,0.2,0,0.5-0.2,0.7c0,0,0,0,0,0c-32.4,15-63.3,32.9-92.3,53.5C227.7,413.2,227.6,413.2,227.5,413.2z"></path><path class="st1" d="M395.7,308.1c-1.4-9.3-8.4-16.7-15.1-23.5c-18.6-19-36.5-41.3-62.7-51.6c-4.2-1.7-9.7-2.5-13.6-0.7
		c-0.5-0.2-0.9-0.4-1.4-0.5c-4-1.1-8,0.4-11.4,2.3c-2.8,1.5-5.4,3.3-7.8,5.3c-4.7-6.3-16.6,9.9-19.9,13.7
		c-10.3,11.7-23,20.5-36.7,25.1c-23.6,7.9-49.7,2.9-69.7-13.1l-8.6,10.2c17.9,31.2,53.9,45.6,84.7,34.1c12.1-4.5,23.2-13.1,32-24
		c-3,21-4,42.2-3,63.4c0.4,7.9,1.7,16.9,8.9,21.8c4.6,3.1,10.8,3.7,16.2,2.7s10.3-3.5,15-5.9c8.3-4.2,16.6-8.5,23.5-14.4
		s12.3-13.5,13.3-22.3c0.8-7.2-1.3-14.5-3.5-21.6c-5.5-17.9-11.3-35.7-18.1-53.3c20.5,12.6,34.7,23.7,50.9,42.8
		c2.7,3.2,4.3,7,5.9,10.9c3.7,9.1-19.9,24-29.2,22.2c2.2,5,8.6,13.8,10.8,18.8c10.1-3.6,20.1-8.1,27.9-15.2S397.2,318,395.7,308.1z"></path><path class="st0" d="M345.2,354.4c3,0.1,6.1,0.3,8.7,1.7s4.4,4.8,3.2,7.5c-1.3,3-5.2,3.7-8.5,4l-22,1.8c-12.6,1-25.3,2.1-37.9,1.5
		c-13-0.6-25.9-3-38.7-5.3l-51.8-9.5c-2.6-0.5-5.3-1-7.2-2.7s-2.7-5.1-0.9-6.9c1.2-1,2.7-1.5,4.2-1.6c20-2.9,40.2-3.5,60.3-1.6
		c8.7,0.8,16.9,3.1,25.6,4.5c10.3,1.7,20.6,3,31,4.1C322.6,353,333.9,353.9,345.2,354.4z"></path><path class="st1" d="M296.4,371.8c-2.6,0-5.1,0-7.7-0.2c-13.1-0.6-26.1-3-38.8-5.3l-51.8-9.5c-2.4-0.4-5.4-1-7.6-2.9
		c-1.3-1.2-2.1-2.8-2.2-4.6c-0.1-1.3,0.4-2.5,1.2-3.4c1.3-1.1,2.9-1.7,4.6-1.8c20-2.9,40.3-3.5,60.5-1.6c5.3,0.6,10.7,1.5,15.9,2.7
		c3.2,0.6,6.5,1.3,9.7,1.9c10.2,1.7,20.7,3,31,4.1c11.2,1.2,22.6,2,33.9,2.5c2.9,0.1,6.2,0.3,9,1.8s4.9,5.3,3.5,8.4
		c-1.5,3.4-5.6,4.2-9.1,4.4l-22,1.8C316.8,371,306.6,371.8,296.4,371.8z M231.4,342.9c-12.4,0-24.7,0.9-36.9,2.7
		c-1.4,0.1-2.7,0.5-3.8,1.4c-0.6,0.6-0.9,1.5-0.8,2.3c0.1,1.4,0.7,2.6,1.7,3.5c1.9,1.6,4.5,2.1,6.9,2.6l51.8,9.5
		c12.6,2.3,25.6,4.7,38.6,5.3c12.6,0.6,25.4-0.5,37.8-1.5l22-1.8c3.1-0.2,6.7-0.9,7.9-3.5c1-2.4-0.7-5.3-2.9-6.5
		c-2.4-1.4-5.4-1.5-8.3-1.6l0,0c-11.3-0.5-22.7-1.3-34-2.5c-10.3-1.1-20.8-2.5-31-4.1c-3.3-0.5-6.6-1.2-9.8-1.9
		c-5.2-1.2-10.4-2.1-15.7-2.6C246.9,343.2,239.2,342.9,231.4,342.9L231.4,342.9z"></path><path class="st1" d="M295,364.6c-5.9,0.1-11.8-0.5-17.5-1.8c-0.3-0.1-0.5-0.4-0.4-0.7s0.4-0.5,0.7-0.4l0,0
		c9.4,2.3,19.2,1.9,28.8,1.4l40.7-1.8c1.3-0.1,2.6-0.2,3.4-1c0.4-0.5,0.4-1.1,0.2-1.6c-0.1-0.3-0.4-0.5-0.6-0.5
		c-0.3,0-0.6-0.2-0.6-0.5c0-0.3,0.2-0.6,0.5-0.6c0,0,0,0,0,0c0.7,0,1.4,0.4,1.7,1.1c0.4,0.9,0.3,2-0.4,2.9c-1,1.1-2.6,1.3-4.1,1.4
		l-40.7,1.8C302.7,364.4,298.9,364.6,295,364.6z"></path><path class="st0" d="M270.6,354.3c0.5,2.1,0.9,4.5-0.5,6.2c-1.6,2-4.6,1.9-7.1,1.5c-20.2-2.9-40.3-6.5-60.3-10.9
		c-6.1-1.4-12.6-2.9-17.3-7c-4.5-3.9-7-9.6-9.1-15.1c-8.6-22.3-14-45.7-16.1-69.5c-0.3-1.6-0.1-3.2,0.5-4.7c1.6-3.2,6.1-3.2,9.7-2.7
		l69,9.3c4.9,0.7,9.7-0.3,11.6,4.5c2.1,5.1,2.6,11.5,3.8,16.9l7.4,33.3C264.9,328.8,267.7,341.5,270.6,354.3z"></path><path class="st1" d="M265.6,363c-0.9,0-1.8-0.1-2.7-0.2c-20.1-2.9-40.4-6.5-60.3-10.9c-6.6-1.5-12.9-3.1-17.6-7.2
		s-7.2-9.9-9.4-15.4c-8.6-22.4-14.1-45.8-16.2-69.7c-0.3-1.7-0.1-3.5,0.6-5.1c1.4-2.9,4.9-3.9,10.5-3.1l69,9.3c1,0.1,2,0.2,3,0.3
		c3.9,0.2,7.5,0.5,9.1,4.6c1.3,3.7,2.2,7.6,2.8,11.5c0.3,1.9,0.6,3.8,1,5.5l16,71.5c0.5,2.3,0.9,4.9-0.6,6.9
		C269.5,362.5,267.5,363,265.6,363z M167.1,252.5c-3.1,0-5,0.8-5.8,2.5c-0.5,1.4-0.7,2.9-0.4,4.3c2.1,23.7,7.6,47.1,16.1,69.3
		c2.1,5.4,4.5,11,8.9,14.8s10.4,5.4,17,6.9c19.8,4.4,40.1,8,60.2,10.9c2.3,0.3,5.1,0.5,6.5-1.2c1.1-1.4,0.8-3.6,0.3-5.6l0,0
		L254,282.9c-0.4-1.8-0.7-3.6-1-5.6c-0.5-3.8-1.4-7.6-2.7-11.2c-1.3-3.3-4.2-3.5-7.9-3.7c-1-0.1-2.1-0.1-3.1-0.3l-69-9.3
		C169.2,252.6,168.2,252.5,167.1,252.5z"></path><path class="st0" d="M353.5,326.3c-3.6-5.3-8.8-10.3-15.2-10.6c-5.2-0.2-10.1,2.7-14,6.3c-4.5,4.3-8.1,9.5-10.3,15.3
		c-1.4,3.6-2.2,7.5-1.5,11.3s3.5,7.3,7.2,8.2s8.2-1.7,8.6-5.5c-2.2,4.2-3.5,10.2,0.3,13c3.5,2.6,8.7,0.2,11.7-3.1s5.2-7.5,9.2-9.4
		c3.1-1.5,6.8-1.2,10-2.6C369.6,345.2,356.9,331.4,353.5,326.3z"></path><path class="st1" d="M332.1,366.2c-1.4,0-2.8-0.4-3.9-1.3c-2.6-2-3.1-5.2-2.5-8.5c-1.8,1.1-4,1.5-6.1,1c-3.8-0.9-6.9-4.4-7.8-8.8
		c-0.7-3.4-0.2-7.2,1.5-11.7c2.3-5.9,5.9-11.3,10.5-15.6c3.3-3.1,8.6-6.8,14.5-6.5c7.6,0.4,13.2,7,15.8,10.9l0,0
		c0.5,0.8,1.2,1.7,2.1,2.9c3.6,4.8,9.1,12.1,7.7,17.1c-0.6,2-2.1,3.5-4,4.2c-1.6,0.6-3.3,1-4.9,1.2c-1.7,0.2-3.4,0.7-5,1.3
		c-2.7,1.3-4.5,3.6-6.5,6.1c-0.8,1-1.6,2.1-2.5,3C338.5,364.3,335.2,366.2,332.1,366.2z M327.6,354.7c-1.1,3.5-1.1,7.1,1.4,9
		c3.1,2.3,7.8,0.2,10.7-3c0.9-0.9,1.6-2,2.4-2.9c2-2.5,4-5.2,7-6.6c1.7-0.7,3.6-1.2,5.4-1.4c1.6-0.2,3.1-0.6,4.6-1.1
		c1.5-0.5,2.7-1.6,3.2-3.1c1.2-4.3-4-11.3-7.4-15.9c-0.9-1.1-1.6-2.1-2.1-2.9l0,0c-2.5-3.7-7.6-9.9-14.6-10.3
		c-5.5-0.3-10.3,3.2-13.5,6.1c-4.5,4.2-7.9,9.3-10.1,15c-1.6,4.2-2.1,7.8-1.5,10.9c0.8,3.8,3.5,6.9,6.6,7.6c1.9,0.4,3.8,0,5.4-1.1
		c0.4-0.3,0.7-0.6,1-0.9c0.4-1.1,0.8-2.1,1.3-3c0.2-0.3,0.5-0.5,0.9-0.4c0.3,0.1,0.6,0.4,0.5,0.8
		C328.9,352.6,328.4,353.8,327.6,354.7L327.6,354.7z"></path><path class="st1" d="M325.6,354.9h-0.1c-0.3-0.1-0.4-0.3-0.4-0.6c0.7-4.5,1.9-8.8,3.5-13.1c1.6-4.3,4.6-8,8.4-10.7
		c4.2-2.7,9.3-3.2,13.3-1.4c0.3,0.1,0.4,0.4,0.2,0.7s-0.4,0.4-0.7,0.2c-4.1-1.7-8.7-1.2-12.3,1.3c-3.6,2.5-6.4,6.1-8,10.2
		c-1.6,4.2-2.7,8.5-3.4,12.9C326.1,354.7,325.9,354.9,325.6,354.9z"></path><path class="st0" d="M297.4,213c-1.2,3.8-2.6,7.6-5.1,10.6s-6.2,5.4-10.1,5.4c-7.2-0.1-12-7.3-14.9-13.8
		c-10.3-23.1-13.9-48.5-17.4-73.5c-0.6-4-1-8.6,1.7-11.6c2.5-2.9,6.7-3.3,10.5-3.4c9.8-0.3,19.6,0,29.3,0.8c3.2,0.3,6.6,0.7,9.3,2.4
		c5.7,3.5,4.1,10.8,4.1,16.4c0,7.6,0,15.3-0.3,22.9C303.8,184,302,198.9,297.4,213z"></path><path class="st1" d="M282.3,229.8h-0.1c-6-0.1-11.4-5-15.5-14.2c-10.5-23.4-14-49-17.5-73.7c-0.6-4.2-1-8.9,1.9-12.2
		c2.6-3,6.8-3.5,11-3.7c9.8-0.3,19.6,0,29.4,0.8c3.5,0.3,6.8,0.7,9.6,2.5c5,3.1,4.8,8.9,4.6,13.9c0,1.1-0.1,2.1-0.1,3.1
		c0,6.7,0,14.7-0.4,22.9c-0.8,17.4-3,31.4-7.1,44c-1.2,3.8-2.7,7.7-5.3,10.9C290,227.7,286.1,229.8,282.3,229.8z M269.9,127.4
		c-2.6,0-5.2,0-7.8,0.1c-3.9,0.1-7.8,0.6-10,3.2c-2.4,2.8-2,7.1-1.5,11c3.4,24.6,7,50.1,17.3,73.3c2.7,6,7.4,13.3,14.2,13.4
		c3.4,0.1,7-1.9,9.6-5.1c2.4-3,3.8-6.8,5-10.4c4-12.4,6.2-26.3,7-43.6c0.4-8.1,0.4-16.1,0.3-22.8c0-1,0-2,0.1-3.1
		c0.2-4.9,0.4-9.9-3.9-12.6c-2.6-1.6-5.7-2-9-2.3C284.2,127.7,277.1,127.4,269.9,127.4z"></path><path class="st1" d="M233.1,129.4c-14.1-5.5-25-14.7-31.5-26c-2.4-4.2-4.2-9.8-1.2-15c2.1-3.6,5.9-6,9.7-7.5c8.2-3.4,17-3.8,25.5-3
		c24.5,2.3,47.1,14.2,62.9,33.1c9.9-2.7,25.6,7.4,25.4,15.6c1.9,5.9-6.2,39.5-23.3,44.9c-2.6-6.3-4.8-12.8-6.3-19.4
		c-0.8-3.2-1.4-6.5-1.9-9.8c-0.3-2,0.2-5.9-1.7-7.3c-3.3-2.5-14.4,0.3-18.6,0.4c-6.7,0.2-13.4-0.2-20-1.1
		C245.4,133.3,239.1,131.7,233.1,129.4z"></path><path class="st1" d="M276.6,172.2c-0.2,0.5-0.6,0.9-1.1,0.9c-0.8,0-1.2-0.9-1.5-1.6c-0.4-1.2-1.5-6.3,0.8-5.6
		C276.6,166.5,277.1,170.8,276.6,172.2z"></path><path class="st1" d="M266.3,172.8c-0.5,0.3-1.1,0.2-1.6-0.1c-0.5-0.3-0.8-0.8-1.1-1.2c-0.8-1.4-3-6.3,0.3-5.4
		C266,166.5,268.3,171.5,266.3,172.8z"></path><path class="st1" d="M290.6,211.3c-2.2,1.3-4.9,1.6-7.3,0.8c-1.4-0.6-2.5-1.6-3.3-2.9c-0.2-0.3-0.4-0.7-0.3-1
		c0.2-0.5,1.2-0.6,1.9-0.7c2.1-0.2,4.2-0.7,6.2-1.6c1-0.4,3.6-2.4,5-2.1C296.3,204.5,292.3,210.2,290.6,211.3z"></path><path class="st0" d="M298.2,168.1c2.7-1.8,5.6-3.6,8.8-3.2c2.3,0.4,4.3,1.8,5.5,3.9c1.1,2.1,1.4,4.5,0.9,6.7
		c-0.6,3.2-2.8,6-5.7,7.4c-3,1.4-6.5,1-9.2-1"></path><path class="st1" d="M303.9,184.5c-2.1,0-4.2-0.7-5.9-2c-0.3-0.3-0.4-0.7-0.1-1c0,0,0,0,0,0c0.3-0.3,0.7-0.4,1-0.1
		c2.4,1.8,5.7,2.2,8.4,0.9c2.7-1.4,4.7-3.9,5.3-6.9c0.5-2.1,0.2-4.3-0.8-6.2c-1-1.9-2.8-3.1-4.9-3.5c-2.8-0.4-5.5,1.3-8.3,3.1
		c-0.3,0.2-0.8,0.1-1-0.2c-0.2-0.3-0.1-0.8,0.2-1c3-2,6-3.8,9.3-3.4c2.5,0.4,4.8,2,6,4.2c1.2,2.2,1.6,4.8,1,7.3
		c-0.7,3.5-3,6.4-6.1,8C306.7,184.2,305.3,184.5,303.9,184.5z"></path><path class="st1" d="M304.2,179c-0.3-0.1-0.5-0.4-0.4-0.7c0-0.1,0.1-0.3,0.2-0.3c1.6-0.6,3.1-1.7,4-3.1c0.9-1.4,0.7-3.2-0.4-4.5
		c-0.6-0.6-1.5-0.8-2.3-0.6c-0.6,0.1-1.2,0.5-1.5,1.1c-0.1,0.3-0.4,0.5-0.7,0.4c-0.3-0.1-0.5-0.4-0.4-0.7c0-0.1,0-0.1,0.1-0.2
		c0.4-0.9,1.3-1.6,2.3-1.7c1.2-0.2,2.4,0.1,3.3,0.9c1.5,1.6,1.7,4,0.6,5.8c-1,1.7-2.7,3-4.5,3.6C304.4,179,304.3,179,304.2,179z"></path><path class="st0" d="M107.3,266c-4.5-2.3-9.3-6.1-8.9-11.1c0.3-3.4,3-6.1,6.2-7.4s6.6-1.4,9.9-1.5c-9.5-13.6-14.5-29.9-14.3-46.4
		c0-2.2,0.2-4.6,1.5-6.5c2.2-3.2,7.2-3.6,10.6-1.5s5.2,5.9,6.2,9.7c1.3,5.1,1.2,10.5,2.2,15.6s3.4,10.5,8.1,12.9
		c3.5,1.8,7.7,1.7,11.6,2.4c8.7,1.8,16,7.9,19.2,16.2c4.2,11.2,1,25.5-11.9,26.2C133.6,275.3,119.7,272.3,107.3,266z"></path><path class="st1" d="M143.4,275.5c-12.7,0-25.2-3.1-36.5-8.8c-6.4-3.3-9.7-7.5-9.3-11.8c0.3-3.3,2.9-6.5,6.6-8
		c2.8-1,5.8-1.5,8.8-1.5c-9.1-13.5-13.9-29.5-13.7-45.8c0-2.2,0.2-4.8,1.6-6.9c2.6-3.7,8-3.9,11.6-1.7c3.9,2.4,5.7,6.9,6.5,10.1
		c0.6,2.9,1.1,5.8,1.3,8.8c0.2,2.3,0.4,4.6,0.9,6.9c0.7,3.5,2.6,9.7,7.8,12.4c2.4,1.1,5,1.7,7.7,1.8c1.2,0.1,2.5,0.3,3.7,0.5
		c9,1.8,16.5,8.1,19.8,16.6c2.7,7.3,2.2,15.5-1.2,20.8c-2.5,3.9-6.7,6.2-11.3,6.3C146.2,275.5,144.8,275.5,143.4,275.5z
		 M107.5,191.1c-2.1-0.1-4,0.8-5.3,2.5c-1.2,1.7-1.3,4-1.3,6c-0.2,16.4,4.8,32.5,14.2,46c0.2,0.2,0.2,0.5,0.1,0.8
		c-0.1,0.2-0.4,0.4-0.7,0.4c-3.3,0.1-6.7,0.2-9.7,1.4c-3.2,1.3-5.4,4-5.7,6.8c-0.4,5,5.1,8.7,8.5,10.4l0,0
		c12.3,6.3,26.1,9.2,39.9,8.5c4.1-0.1,7.9-2.2,10.2-5.7c3.2-4.9,3.7-12.6,1.1-19.5c-3.1-8.1-10.1-14-18.6-15.7
		c-1.2-0.2-2.4-0.4-3.6-0.5c-2.8-0.2-5.6-0.8-8.2-2c-5.7-2.9-7.8-9.7-8.5-13.4c-0.4-2.3-0.7-4.7-0.9-7.1c-0.2-2.9-0.6-5.7-1.3-8.6
		c-0.8-3-2.4-7.1-5.8-9.2C110.5,191.4,109,191.1,107.5,191.1L107.5,191.1z"></path><path class="st2" d="M279.7,247.8c1.5-1.3,3.1-2.6,5.1-2.9s4.2,1.3,4,3.3c2.2-5.1,8.1-7.5,13.2-5.3c0.7,0.3,1.4,0.7,2.1,1.2
		c1.6-3.8,3.1-7.9,2.1-11.9c-0.5-2.9-3.4-4.9-6.3-4.4c-0.7,0.1-1.3,0.4-1.9,0.7c-1.9,1-3.7,2.4-5.1,4.1c0.5-0.5-4.8-0.9-5.4-0.7
		c-1.3,0.5-2.3,1.4-3.1,2.6C281.4,238.3,279.7,243,279.7,247.8z"></path></g><g id="plant"><path class="st1" d="M425.4,365.8c-0.9,2.2-0.3,4.7,0.3,6.9c1,3.8,2.2,7.5,3.5,11.1c1,2.9,2.4,6,5,7.5c2.1,1.2,4.7,1.2,7.1,1.2
		l12.6-0.1c3.8,0,7.8-0.1,10.8-2.4c2.8-2.1,4.1-5.5,5.2-8.9c1.3-4.1,2.5-8.2,3.5-12.4c0.5-2,0.9-4.4-0.5-6c-1-1.3-2.8-1.6-4.4-1.9
		c-8.6-1.2-17.3-1.3-25.9-0.1C437.3,361.4,428,359.1,425.4,365.8z"></path><path class="st2" d="M439.1,325.1c0.1-2.2,0.8-4.3,1.9-6.2c1.2-1.9,3.4-2.9,5.6-2.6c2.6,0.6,4,3.5,4.8,6.1
		c3.2,10.4,3.6,21.5,1.3,32.1c0.7-4.4,2-8.8,3.8-12.9c1.8-4.1,4.9-7.6,8.8-9.9c2-1.1,4.6-1.6,6.4-0.3c2.5,1.9,1.8,5.8,0.7,8.7
		c-2.8,7.2-6.7,14.1-11.4,20.3c-2.1,2.7-4.5,5.5-7.8,6.5c-5.4,1.7-10.9-1.7-15.5-4.9c-5.3-3.6-10.7-7.4-14.2-12.8
		c-1.5-2.2-2.6-5.1-1.1-7.3c1.2-1.5,3.3-2.2,5.2-1.7c1.9,0.5,3.6,1.5,5,2.8c2.2,1.8,4.3,3.7,6.2,5.8c1.6,1.8,3.2,4.8,5.2,6
		C440.4,345,437.9,335.7,439.1,325.1z"></path><path class="st0" d="M456.1,370.6c-0.7,0-1.3,0-2-0.1c-3.9-0.2-7.9-0.5-11.8-0.9c-3.1-0.3-6.5-1-8.1-3.6c-0.1-0.1-0.1-0.3,0-0.4
		c0-0.1,0.2-0.2,0.3-0.3l3.4-1.4c0.2-0.1,0.5,0,0.6,0.3c0,0,0,0,0,0c0.1,0.3,0,0.5-0.3,0.6l-2.8,1.2c1.5,1.9,4.4,2.4,7,2.7
		c3.9,0.4,7.9,0.7,11.8,0.9c1.8,0.2,3.5,0.1,5.3-0.3c1.4-0.3,2.7-1.2,3.6-2.4l-2.8-0.7c-0.3-0.1-0.4-0.3-0.4-0.6
		c0.1-0.3,0.3-0.4,0.6-0.4c0,0,0,0,0,0l3.5,0.9c0.1,0,0.3,0.1,0.3,0.3c0.1,0.1,0.1,0.3,0,0.4c-0.9,1.8-2.6,3-4.5,3.5
		C458.5,370.5,457.3,370.6,456.1,370.6z"></path><path class="st0" d="M450,362.5c-0.2,0-0.4-0.1-0.5-0.4c-4-13.7-5.6-28-4.5-42.2c0-0.3,0.3-0.5,0.5-0.5s0.5,0.3,0.5,0.5
		c-1,14.1,0.5,28.3,4.5,41.8c0.1,0.3-0.1,0.5-0.3,0.6L450,362.5z"></path><path class="st0" d="M454.7,360.1h-0.1c-0.3-0.1-0.4-0.4-0.3-0.6c2.4-8.1,6.7-15.5,12.5-21.6c0.2-0.2,0.5-0.2,0.7,0c0,0,0,0,0,0
		c0.2,0.2,0.2,0.5,0,0.7c0,0,0,0,0,0c-5.7,6-9.9,13.3-12.3,21.2C455.1,360,454.9,360.1,454.7,360.1z"></path><path class="st0" d="M443.3,359.7c-0.1,0-0.2,0-0.3-0.1c-5.9-3.7-11.1-8.5-15.3-14.1c-0.2-0.2-0.1-0.5,0.1-0.7
		c0.2-0.2,0.5-0.1,0.7,0.1c4.1,5.5,9.2,10.2,15,13.9c0.2,0.1,0.3,0.4,0.2,0.7c0,0,0,0,0,0C443.7,359.7,443.5,359.8,443.3,359.7z"></path></g></svg>