<svg transform="scale(1)" version="1.1" id="Layer_1" xmlns="http://www.w3.org/2000/svg" xmlns:xlink="http://www.w3.org/1999/xlink" x="0px" y="0px" viewBox="0 0 500 500" xml:space="preserve" class="show_show__wrapper__graphic__5Waiy "><title>React</title><style type="text/css">
	.st0{fill:#FFFFFF;}
	.st1{fill:#111111;}
	.st2{fill:#6c63ff;}
</style><g id="shadow"><path class="st0" d="M148.6,418c-17.9-2.3-35.9,2.6-50.2,13.6c-3.3,2.5-6.9,6.6-5.9,11.2c0.8,4,4.6,5.7,7.8,6.7
		c18.3,5.7,37.9,5.8,56.3,0.3c4.7-1.4,9.4-3.2,13.2-6.9C187.3,426.2,159.1,419.4,148.6,418z"></path><path class="st1" d="M129,454.6c-9.8,0-19.6-1.5-28.9-4.4c-1.8-0.5-7.2-2.2-8.3-7.3c-1.2-5.5,3.4-9.9,6.2-12
		c14.9-11.3,32.9-16.2,50.7-13.8l0,0c2.4,0.3,23.9,3.6,27.1,13.4c1.3,3.9-0.5,8.3-5.4,13c-4,3.9-9.1,5.7-13.5,7
		C147.8,453.3,138.4,454.6,129,454.6z M139.6,418.1c-14.8,0.1-29.1,5-40.8,14.1c-2.5,1.9-6.6,5.8-5.6,10.5c0.6,2.9,2.9,4.8,7.3,6.2
		c18.2,5.6,37.6,5.7,55.9,0.3c4.5-1.3,9.1-3,12.9-6.7c4.4-4.2,6.1-8.1,5-11.4c-2.4-7.2-17.4-11.2-25.9-12.3
		C145.6,418.3,142.6,418.1,139.6,418.1L139.6,418.1z"></path><path class="st2" d="M312.7,337.3L223,335c-20.3-0.5-42.4-0.5-58.5,11.9c-6.7,5.2-12.2,14-9,21.8c3,7.4,11.9,10.2,19.8,11.6
		c21.1,3.8,42.7,4.6,64.1,2.3c11.1-1.2,23.9-2.6,31.8,5.2c6.9,6.8,6.8,17.7,7.1,27.4c0.3,10.9,1.5,21.7,3.7,32.3
		c1.4,6.6,4.2,14.3,10.8,15.8s12.9-4.9,14.2-11.6s-0.8-13.5-2.2-20.1s-2.1-14.1,1.7-19.8s13.5-7.4,17.1-1.7
		c5.5,6.1,4.1,15.4,3.1,23.5s-0.5,18.1,6.7,22.1c8.2,4.5,18.7-3.7,20.2-13s-3-18.3-7.4-26.6l-11.9-22.7c-1.9-3.6-3.8-7.5-3.5-11.5
		c0.5-7.1,7.5-11.8,14-14.5s13.9-5.1,17.7-11.1C377.4,332.2,320.5,337.5,312.7,337.3z"></path></g><g id="computer"><path class="st1" d="M240.5,333.2c-16.6,4.6-32.8,10.5-48.4,17.7c-4.5,2.1-9.8,6-8.2,10.7c1.1,3.4,5.2,4.7,8.7,5.4
		c42.6,8.8,86.6,8.8,129.3,0c6.9-1.4,15.5-6,13.6-12.7c-1.2-4.2-6-6.1-10.2-7.3l-48.1-14.5l-3.3-47.1c-9.9-1.4-27.3-8.4-32.7,3.1
		C236,299.5,240.4,321,240.5,333.2z"></path><path class="st1" d="M121.1,40.5c-13.8,1-29,2.8-38.4,12.6c-8.3,8.7-9.8,21.4-10.8,33.4c-4.5,58-3.3,116.3,3.6,174
		c1.4,12,3.6,24.9,12.8,32.7c6.2,5.3,14.8,7.4,23,9.1c92.5,19.4,182.6,15.5,265,6.3c14.4-1.6,29.7-3.9,40.3-14.8
		c14-14.2,14.5-37.5,13.9-57.8c-1.2-43.6-2.4-87.3-3.5-131.1c-0.5-19.8-3.2-39.7-19.4-52.5c-11.7-9.3-29.7-7.9-43.6-9.4
		c-49.8-5-99.8-7.2-149.8-6.5C183.9,36.9,152.9,38.2,121.1,40.5z"></path><path class="st0" d="M81.9,88.7c-1.1,41.9-2.2,100.7-0.7,141.9c0.6,16,1.8,33.3,12.2,45.8c11.2,13.4,296.3,0.3,312.5-3.2
		c11.2-2.5,6.9-41.4,7.5-67.4c0.9-39.1,1.8-81.9-3.4-121.6c-0.9-6.7-2-14-6.5-18.9c-5.7-6.2-14.6-6.8-22.7-6.9
		c-87.3-1-177.3-3.2-269.8-4.3C90.4,53.8,82.4,68.9,81.9,88.7z"></path><path class="st1" d="M171.9,283.1c-41.3,0-75.2-1.5-79.1-6.2c-10.4-12.4-11.8-29.7-12.4-46.2c-1.2-32.6-0.9-80.4,0.7-141.9
		c0.6-22.9,11-35.4,29.4-35.4h0.4c46.7,0.6,93.1,1.4,138.1,2.2c45.5,0.8,88.5,1.6,131.8,2.1c8.6,0.1,17.5,0.7,23.2,7.1
		c4.5,5,5.7,12,6.7,19.3c5.3,40.8,4.2,85.7,3.4,121.7c-0.1,6.2,0,13.3,0.1,20.1c0.5,23.6,0.9,46-8.3,48c-8.4,1.9-84.6,6-158.3,8
		C222.9,282.5,196.1,283.1,171.9,283.1z M81.9,88.7h0.8C81,150.2,80.8,198,81.9,230.6c0.6,16.3,2,33.3,12,45.3
		c10.7,12.8,294.6,0.3,311.8-3.5c8-1.8,7.5-25.5,7.1-46.5c-0.1-6.9-0.3-14-0.1-20.2c0.9-36,1.9-80.8-3.4-121.5
		c-0.9-7.1-2.1-13.8-6.3-18.5c-5.4-5.9-13.9-6.5-22.1-6.6c-43.2-0.5-86.2-1.3-131.7-2.1c-44.9-0.8-91.4-1.7-138-2.2h-0.5
		c-22.3,0-27.5,18.4-27.9,34L81.9,88.7z"></path><path class="st0" d="M241.1,362.4c-8,0-16.1-0.2-24.1-0.7c-7.1-0.4-15.2-1.3-20.5-6.6c-0.3-0.3-0.3-0.8,0-1.2c0,0,0.1-0.1,0.1-0.1
		l3.6-2.5c0.4-0.3,0.9-0.2,1.1,0.2c0.3,0.4,0.2,0.9-0.2,1.1c0,0,0,0,0,0l-2.8,1.9c4.9,4.3,12.2,5.1,18.7,5.5
		c33.2,1.9,66.4-0.1,99.1-6.1c0.4-0.1,0.9,0.2,1,0.6c0.1,0.4-0.2,0.9-0.6,1c0,0-0.1,0-0.1,0C291.6,360.1,266.4,362.4,241.1,362.4z"></path><path class="st0" d="M339.3,287.5c-2.2,3.7-0.9,8.4,2.8,10.6c3.7,2.2,8.4,0.9,10.6-2.8c0.2-0.3,0.3-0.5,0.4-0.8
		C356.9,285.8,344.2,279.1,339.3,287.5z"></path><path class="st0" d="M361.4,285.7c-2.2,3.7-0.9,8.4,2.8,10.6c3.7,2.2,8.4,0.9,10.6-2.8c0.2-0.3,0.3-0.5,0.4-0.8
		C378.9,284,366.3,277.4,361.4,285.7z"></path></g><g id="board"><g id="presentation"><path class="st2" d="M380.4,65.3c-23.9,0.1-252.6,0.1-276.5,0.2c-2.5,0-5.6,0.2-6.8,1.3c-0.4,0.4-0.6,1-0.5,1.6l0.2,8.3
			c0.2,9-1.4,18.2-1.2,27.5c0.1,2,0.4,4.2,3.8,5.3c2.1,0.5,4.3,0.7,6.4,0.6c22.5-0.2,253.4,0.3,276,0.1c2.5,0,5.1-0.1,7-0.8
			c2.9-1.1,3-3.3,2.8-5.1c-0.6-7.7-1.7-15.8-1.3-23.3c0.2-3.7,0.3-7.4,0.7-11.1C391.5,66.6,386.5,65.3,380.4,65.3z"></path></g><g id="presentation-2"><path class="st0" d="M217.2,121.4c-23.9,0.4-89.5,0.2-113.3,0.6c-2.6,0-5.6,0.5-6.8,3.9c-0.4,1.6-0.6,3.3-0.5,5l0.2,25.6
			c0.2,27.7-1.4,55.7-1.2,84c0.1,6,0.5,13,3.8,16.1c1.9,1.8,4.2,1.8,6.4,1.7c22.5-0.5,90.3,1,112.8,0.4c2.5-0.1,5.1-0.2,7-2.5
			c2.9-3.4,3-10,2.8-15.6c-0.6-23.6-1.7-48.4-1.3-71.6c0.2-11.4,0.3-22.7,0.7-34C228.3,125.2,223.3,121.3,217.2,121.4z"></path><path class="st1" d="M205.4,259.7c-12,0-27.8-0.2-43.2-0.3c-22.2-0.2-45.1-0.5-56.4-0.2c-2.2,0-4.8,0.1-7-1.9
			c-3.4-3.2-4-9.9-4-16.7c-0.1-14.2,0.2-28.5,0.6-42.4c0.3-13.7,0.7-27.8,0.6-41.6l-0.2-25.6c-0.1-1.8,0.1-3.5,0.6-5.2
			c1.3-3.9,4.9-4.4,7.5-4.4c12-0.2,34.7-0.2,56.7-0.3s44.7-0.1,56.6-0.3l0,0c3-0.2,5.9,0.9,8,3c2.5,2.5,3.6,6.4,3.4,11.5
			c-0.3,8.2-0.4,16.6-0.6,24.7c0,3.1-0.1,6.2-0.2,9.3c-0.3,17.1,0.2,35.2,0.8,52.7c0.2,6.3,0.4,12.6,0.5,18.8c0.1,5.9,0,12.5-3,16.1
			c-2.2,2.6-5.3,2.7-7.6,2.8C215.2,259.6,210.7,259.7,205.4,259.7z M119,257.5c12,0,27.8,0.2,43.2,0.3c22.2,0.2,45.1,0.5,56.4,0.2
			c2.6-0.1,4.8-0.3,6.5-2.2c2.7-3.2,2.8-9.5,2.7-15.1c-0.1-6.2-0.3-12.5-0.5-18.8c-0.5-17.5-1.1-35.7-0.8-52.8
			c0.1-3.1,0.1-6.2,0.2-9.3c0.1-8.1,0.2-16.5,0.6-24.7c0.2-4.7-0.9-8.2-3-10.4c-1.9-1.8-4.4-2.7-6.9-2.6
			c-11.9,0.2-34.7,0.2-56.7,0.3s-44.8,0.1-56.7,0.3c-2.4,0-5.1,0.5-6.1,3.4c-0.4,1.5-0.6,3.1-0.5,4.7l0.2,25.6
			c0.1,13.8-0.2,28-0.6,41.7c-0.4,13.8-0.7,28.2-0.6,42.3c0.1,6.1,0.5,12.8,3.6,15.6c1.6,1.5,3.5,1.6,5.9,1.5
			C109.3,257.5,113.8,257.5,119,257.5z"></path></g><path class="st0" d="M110.4,85.4c-1.1,3.6-0.1,7.4,2.7,10c2.8,2.5,6.8,3.1,10.2,1.6c3.4-1.6,5.4-5.1,5.2-8.9
		C127.7,77.9,113.7,75.2,110.4,85.4z"></path><path class="st0" d="M134.4,84.3c-1.2,4.8,1.5,9.8,6.2,11.4c4.8,1.3,9.8-1.3,11.5-6C155.9,78.3,137.8,72.3,134.4,84.3z"></path><path class="st0" d="M158.6,81.9c-0.7,2.2-0.8,4.6-0.2,6.9c1.3,4.6,6,7.4,10.7,6.1c4.3-1.2,7-5.3,6.3-9.7
		C174.3,77,161.3,71.9,158.6,81.9z"></path><g id="presentation-3"><path class="st0" d="M385.1,176.1c-29.1,0.1-109.3,0.1-138.5,0.2c-3.1,0-6.8,0.1-8.3,1.1c-0.5,0.3-0.7,0.8-0.6,1.3l0.3,6.9
			c0.3,7.4-1.7,14.9-1.5,22.6c0.1,1.6,0.6,3.5,4.6,4.3c2.6,0.4,5.2,0.6,7.9,0.5c27.5-0.1,110.3,0.2,137.8,0.1
			c2.9,0.1,5.8-0.1,8.6-0.7c3.5-0.9,3.6-2.7,3.5-4.2c-0.7-6.4-2.1-13-1.6-19.2c0.3-3.1,0.4-6.1,0.9-9.1
			C398.6,177.1,392.6,176.1,385.1,176.1z"></path><path class="st1" d="M370.7,213.8c-14.6,0-33.9,0-52.7-0.1c-27.1-0.1-55.1-0.1-68.9-0.1c-2.7,0.1-5.4-0.1-8-0.5
			c-4.5-0.9-5.1-3.2-5.2-5c-0.1-3.8,0.2-7.7,0.7-11.5c0.5-3.7,0.8-7.4,0.7-11.1l-0.3-6.9c-0.1-0.8,0.3-1.6,1-2
			c1.6-1,5.3-1.1,8.7-1.2c14.6-0.1,42.4-0.1,69.3-0.1s54.6,0,69.2-0.1l0,0c5,0,11.4,0.4,13.3,2.6c0.5,0.5,0.7,1.2,0.5,1.9
			c-0.4,2.2-0.5,4.4-0.7,6.6c-0.1,0.8-0.1,1.7-0.2,2.5c-0.4,4.5,0.3,9.3,0.9,14c0.2,1.7,0.5,3.4,0.6,5.1c0.2,1.9-0.1,4-4,5
			c-2.9,0.6-5.8,0.8-8.8,0.7C382.6,213.8,377.1,213.8,370.7,213.8z M265.2,212.1c14.6,0,33.9,0,52.8,0.1c27.1,0.1,55.1,0.1,68.9,0.1
			c2.8,0.1,5.6-0.1,8.4-0.6c3.2-0.8,3-2.2,2.9-3.4c-0.2-1.7-0.4-3.4-0.6-5c-0.6-4.8-1.3-9.7-0.9-14.3c0.1-0.8,0.1-1.7,0.2-2.5
			c0.2-2.2,0.3-4.5,0.7-6.7c0.1-0.3,0-0.5-0.2-0.7c-1.1-1.4-5.7-2.1-12.1-2.1c-14.6,0.1-42.3,0.1-69.2,0.1s-54.7,0-69.3,0.1
			c-1.6,0-6.4,0-7.9,0.9c-0.3,0.2-0.3,0.3-0.3,0.7l0.3,6.9c0.1,3.8-0.2,7.6-0.7,11.3c-0.5,3.7-0.8,7.5-0.7,11.3
			c0.1,1.4,0.4,2.9,4,3.6c2.6,0.4,5.1,0.5,7.7,0.4C253.3,212.1,258.8,212.1,265.2,212.1z"></path></g><g id="presentation-4"><path class="st1" d="M385.1,223.1c-29.1,0.1-109.3,0.1-138.5,0.2c-3.1,0-6.8,0.1-8.3,1.1c-0.5,0.3-0.7,0.8-0.6,1.3l0.3,6.9
			c0.3,7.4-1.7,15-1.5,22.6c0.1,1.6,0.6,3.5,4.6,4.3c2.6,0.4,5.2,0.6,7.9,0.5c27.5-0.1,110.3,0.3,137.8,0.1c2.9,0.1,5.8-0.1,8.6-0.7
			c3.5-0.9,3.6-2.7,3.5-4.2c-0.7-6.3-2.1-13-1.6-19.2c0.3-3.1,0.4-6.1,0.9-9.1C398.6,224.1,392.6,223.1,385.1,223.1z"></path></g></g><g id="stair"><g id="ground"><path class="st0" d="M298.8,448.3c0.4-35,0.7-69.9,0.9-104.9c0-1.1,0.1-2.2,0.1-3.2c0.1-5.6,0.2-11.2,0.3-16.9
			c0.3-2.9,0.3-5.8,0.1-8.7c0-2.6,0.1-5.3,0.1-8c0.2-22.1,0.2-44.1-0.1-66.2c0-1.6-0.5-3.6-2.3-4c-2.3-0.4-3.4,2.4-3.4,4.4
			c-0.4,34.9-0.7,69.9-0.9,104.8c0,1.1-0.1,2.2-0.1,3.3c-0.1,5.7-0.2,11.3-0.3,17c-0.2,2.8-0.3,5.6-0.1,8.4l-0.1,8.1
			c-0.2,22.1-0.2,44.1,0.1,66.2c0,1.6,0.5,3.6,2.3,4C297.7,453.1,298.8,450.3,298.8,448.3z"></path><path class="st1" d="M295.9,453.5c-0.2,0-0.4,0-0.6-0.1c-1.8-0.3-2.9-2-2.9-4.7c-0.3-21.8-0.3-44.1-0.1-66.2c0-2.7,0-5.4,0.1-8.1
			c-0.2-2.8-0.1-5.7,0.1-8.5c0.1-5.6,0.2-11.3,0.3-17l0.1-3.3c0.2-33.5,0.4-69.2,0.9-104.8c0-1.7,0.6-3.3,1.8-4.5
			c0.7-0.6,1.6-0.8,2.5-0.6c1.8,0.3,2.8,2,2.9,4.7c0.3,21.8,0.3,44.1,0.1,66.2c0,2.7-0.1,5.3-0.1,8c0.2,2.9,0.1,5.8-0.1,8.8
			c-0.1,5.6-0.2,11.2-0.3,16.8l-0.1,3.2c-0.2,33.4-0.5,69.1-0.9,104.9c0,1.7-0.6,3.3-1.8,4.5C297.2,453.3,296.5,453.5,295.9,453.5z
			 M297.5,237.1c-0.3,0-0.7,0.1-0.9,0.4c-0.8,0.9-1.3,2.1-1.2,3.4c-0.4,35.6-0.7,71.3-0.9,104.8l-0.1,3.3c-0.1,5.7-0.2,11.3-0.3,17
			c-0.3,2.8-0.3,5.6-0.1,8.4c0,2.8-0.1,5.5-0.1,8.2c-0.2,22.1-0.2,44.4,0.1,66.2c0,1.1,0.2,3,1.6,3.2c0.4,0.1,0.9,0,1.3-0.3
			c0.8-0.9,1.3-2.1,1.2-3.4l0,0c0.4-35.8,0.7-71.4,0.9-104.9l0.1-3.2c0.1-5.6,0.2-11.2,0.3-16.9c0.3-2.9,0.3-5.7,0.1-8.6
			c0-2.8,0.1-5.4,0.1-8.1c0.2-22.1,0.2-44.4-0.1-66.2c0-1.1-0.2-3-1.6-3.3L297.5,237.1z"></path></g><g id="ground-2"><path class="st0" d="M341.6,448.3c0.4-35,0.7-69.9,0.9-104.9c0-1.1,0.1-2.2,0.1-3.2c0.1-5.6,0.2-11.2,0.3-16.9
			c0.3-2.9,0.3-5.8,0.1-8.7c0-2.6,0.1-5.3,0.1-8c0.2-22.1,0.2-44.1-0.1-66.2c0-1.6-0.5-3.6-2.3-4c-2.3-0.4-3.4,2.4-3.4,4.4
			c-0.4,34.9-0.7,69.9-0.9,104.8c0,1.1-0.1,2.2-0.1,3.3c-0.1,5.7-0.2,11.3-0.3,17c-0.3,2.8-0.3,5.6-0.1,8.4c0,2.7-0.1,5.4-0.1,8.1
			c-0.2,22.1-0.2,44.1,0.1,66.2c0,1.6,0.5,3.6,2.3,4C340.6,453.1,341.6,450.3,341.6,448.3z"></path><path class="st1" d="M338.7,453.5c-0.2,0-0.4,0-0.6-0.1c-1.8-0.3-2.8-2-2.9-4.7c-0.3-21.8-0.3-44.1-0.1-66.2c0-2.7,0-5.4,0.1-8.1
			c-0.2-2.8-0.1-5.7,0.1-8.5c0.1-5.6,0.2-11.3,0.3-17l0.1-3.3c0.2-33.3,0.4-68.9,0.9-104.8c0-1.7,0.6-3.3,1.8-4.5
			c0.7-0.6,1.6-0.8,2.5-0.6c1.8,0.3,2.8,2,2.9,4.7c0.3,21.8,0.3,44.1,0.1,66.2c0,2.7-0.1,5.3-0.1,8c0.2,2.9,0.1,5.8-0.1,8.8
			c-0.1,5.6-0.2,11.2-0.3,16.8l-0.1,3.2c-0.2,33.4-0.5,69.1-0.9,104.9c0,1.7-0.6,3.3-1.8,4.5C340,453.3,339.4,453.5,338.7,453.5z
			 M340.3,237.1c-0.3,0-0.7,0.1-0.9,0.4c-0.8,0.9-1.3,2.1-1.2,3.4c-0.4,35.9-0.7,71.5-0.9,104.8l-0.1,3.3c-0.1,5.7-0.2,11.3-0.3,17
			c-0.2,2.8-0.3,5.6-0.1,8.4c0,2.8-0.1,5.5-0.1,8.2c-0.2,22.1-0.2,44.4,0.1,66.2c0,1.1,0.2,3,1.6,3.2c0.4,0.1,0.9,0,1.3-0.3
			c0.8-0.9,1.3-2.1,1.2-3.4l0,0c0.4-35.8,0.7-71.4,0.9-104.9l0.1-3.2c0.1-5.6,0.2-11.2,0.3-16.9c0.3-2.9,0.3-5.7,0.1-8.6
			c0-2.8,0.1-5.4,0.1-8.1c0.2-22.1,0.2-44.4-0.1-66.2c0-1.1-0.2-3-1.6-3.3L340.3,237.1z"></path></g><g id="ground-3"><path class="st0" d="M293.9,268.4c8.4-0.2,16.8-0.6,25.1-1h0.8c1.3,0,2.7,0,4,0c0.7,0.2,1.4,0.2,2.1,0l1.9-0.1
			c5.3-0.2,10.6-0.6,15.9-1.3c0.4,0,0.9-0.5,1-2.3c0.1-2.4-0.5-3.3-1-3.3c-8.4,0.2-16.8,0.6-25.1,1h-0.8c-1.4,0-2.7,0-4.1,0
			c-0.7-0.2-1.3-0.2-2,0l-1.9,0c-5.3,0.2-10.6,0.6-15.9,1.3c-0.4,0-0.9,0.5-1,2.3C292.8,267.4,293.4,268.4,293.9,268.4z"></path><path class="st1" d="M293.9,269.1c-0.4,0-0.7-0.2-0.9-0.4c-0.6-0.6-0.9-2-0.8-3.7s0.7-2.9,1.6-3c5.3-0.7,10.6-1.1,16-1.3l1.8,0
			c0.7-0.2,1.5-0.2,2.3,0c1.3,0,2.7,0,4,0h0.8c8-0.4,16.5-0.8,25.1-1c0.4,0,0.7,0.1,1,0.4c0.6,0.6,0.9,2,0.8,3.7
			c-0.1,1.9-0.7,2.9-1.6,3c-5.3,0.7-10.6,1.1-16,1.3l-1.8,0c-0.8,0.2-1.6,0.2-2.3,0c-1.3,0-2.6,0-4,0h-0.8
			C311.1,268.5,302.5,268.9,293.9,269.1L293.9,269.1L293.9,269.1z M293.9,268.4L293.9,268.4z M294,263.4c-0.2,0.5-0.4,1.1-0.4,1.6
			c-0.1,0.9,0,1.7,0.4,2.5c8.5-0.2,17-0.6,25-1h0.8c1.3,0,2.7,0,4,0h0.2c1,0.2,1.4,0.1,1.6,0c0.1-0.1,0.2-0.1,0.4-0.1l1.9,0
			c5.3-0.2,10.6-0.6,15.8-1.3c0.2-0.5,0.4-1.1,0.4-1.6c0.1-0.9,0-1.7-0.4-2.5c-8.5,0.2-17,0.6-25,1h-0.8c-1.4,0-2.7,0-4.1,0h-0.2
			c-0.5-0.2-1-0.2-1.5,0c-0.1,0.1-0.2,0.1-0.3,0.1l-1.9,0C304.5,262.3,299.2,262.8,294,263.4L294,263.4z"></path></g><g id="ground-4"><path class="st0" d="M293.9,317.8c8.4-0.2,16.8-0.6,25.1-1h0.8c1.3,0,2.7,0,4,0c0.7,0.2,1.4,0.2,2.1,0l1.9,0
			c5.3-0.2,10.6-0.6,15.9-1.3c0.4,0,0.9-0.5,1-2.3c0.1-2.3-0.5-3.3-1-3.3c-8.4,0.2-16.8,0.6-25.1,1h-0.8c-1.4,0-2.7,0-4.1,0
			c-0.7-0.2-1.3-0.2-2,0l-1.9,0c-5.3,0.2-10.6,0.6-15.9,1.3c-0.4,0-0.9,0.5-1,2.3C292.8,316.8,293.4,317.8,293.9,317.8z"></path><path class="st1" d="M293.9,318.5c-0.4,0-0.7-0.2-0.9-0.4c-0.6-0.6-0.9-2-0.8-3.7s0.7-2.9,1.6-3c5.3-0.7,10.6-1.1,16-1.3l1.8,0
			c0.7-0.2,1.5-0.2,2.3,0c1.3,0,2.7,0,4,0h0.8c8-0.4,16.5-0.8,25.1-1c0.4,0,0.7,0.1,1,0.4c0.6,0.6,0.9,2,0.8,3.7
			c-0.1,1.9-0.7,2.9-1.6,3c-5.3,0.7-10.6,1.1-16,1.3h-1.8c-0.8,0.2-1.6,0.2-2.3,0c-1.3,0-2.6,0-4,0h-0.8
			C311.1,317.9,302.5,318.3,293.9,318.5L293.9,318.5L293.9,318.5z M293.9,317.8L293.9,317.8z M294,312.9c-0.2,0.5-0.4,1.1-0.4,1.6
			c-0.1,0.9,0,1.7,0.4,2.5c8.5-0.2,17-0.6,25-1h0.8c1.3,0,2.7,0,4,0h0.2c1,0.2,1.4,0.1,1.6,0c0.1-0.1,0.2-0.1,0.4-0.1l1.9,0
			c5.3-0.2,10.6-0.6,15.8-1.3c0.2-0.5,0.4-1.1,0.4-1.6c0.1-0.9,0-1.7-0.4-2.5c-8.5,0.2-17,0.6-25,1h-0.8c-1.4,0-2.7,0-4.1,0h-0.2
			c-1-0.2-1.4-0.1-1.5,0c-0.1,0.1-0.2,0.1-0.3,0.1l-1.9,0C304.5,311.8,299.2,312.2,294,312.9L294,312.9z"></path></g><g id="ground-5"><path class="st0" d="M293.9,372c8.4-0.2,16.8-0.6,25.1-1h0.8c1.3,0,2.7,0,4,0c0.7,0.2,1.4,0.2,2.1,0l1.9,0
			c5.3-0.2,10.6-0.6,15.9-1.3c0.4,0,0.9-0.5,1-2.3c0.1-2.4-0.5-3.3-1-3.3c-8.4,0.2-16.8,0.6-25.1,1h-0.8c-1.4,0-2.7,0-4.1,0
			c-0.7-0.2-1.3-0.2-2,0l-1.9,0c-5.3,0.2-10.6,0.6-15.9,1.3c-0.4,0-0.9,0.5-1,2.3C292.8,371,293.4,372,293.9,372z"></path><path class="st1" d="M293.9,372.8c-0.4,0-0.7-0.2-0.9-0.4c-0.6-0.6-0.9-2-0.8-3.7c0.1-1.9,0.7-2.9,1.6-3c5.3-0.7,10.6-1.1,16-1.3
			l1.8,0c0.7-0.2,1.5-0.2,2.3,0c1.3,0,2.7,0,4,0h0.8c8-0.4,16.5-0.8,25.1-1c0.4,0,0.7,0.1,1,0.4c0.6,0.7,0.9,2,0.8,3.7
			c-0.1,1.9-0.7,2.9-1.6,3c-5.3,0.7-10.6,1.1-16,1.3l-1.8,0c-0.8,0.2-1.6,0.2-2.3,0c-1.3,0-2.6,0-4,0h-0.8
			C311.1,372.2,302.5,372.6,293.9,372.8L293.9,372.8L293.9,372.8z M293.9,372L293.9,372z M294,367.1c-0.2,0.5-0.4,1.1-0.4,1.6
			c-0.1,0.9,0,1.7,0.4,2.5c8.5-0.2,17-0.6,25-1h0.8c1.3,0,2.7,0,4,0h0.2c1,0.2,1.4,0.1,1.6,0c0.1-0.1,0.2-0.1,0.4-0.1l1.9,0
			c5.3-0.2,10.6-0.6,15.8-1.3c0.3-0.5,0.4-1.1,0.4-1.6c0.1-0.9,0-1.7-0.4-2.5c-8.5,0.2-17,0.6-25,1h-0.8c-1.4,0-2.7,0-4.1,0h-0.2
			c-0.5-0.2-1-0.2-1.5,0c-0.1,0.1-0.2,0.1-0.3,0.1l-1.9,0C304.5,366,299.2,366.4,294,367.1L294,367.1z"></path></g><g id="ground-6"><path class="st0" d="M293.9,422.1c8.4-0.2,16.8-0.6,25.1-1h0.8c1.3,0,2.7,0,4,0c0.7,0.2,1.4,0.2,2.1,0l1.9,0
			c5.3-0.2,10.6-0.6,15.9-1.3c0.4,0,0.9-0.5,1-2.3c0.1-2.4-0.5-3.3-1-3.3c-8.4,0.2-16.8,0.6-25.1,1h-0.8c-1.4,0-2.7,0-4.1,0
			c-0.7-0.2-1.3-0.2-2,0l-1.9,0c-5.3,0.2-10.6,0.6-15.9,1.3c-0.4,0-0.9,0.5-1,2.3C292.8,421.2,293.4,422.2,293.9,422.1z"></path><path class="st1" d="M293.9,422.9c-0.4,0-0.7-0.2-0.9-0.4c-0.6-0.6-0.9-2-0.8-3.7c0.1-1.9,0.7-2.9,1.6-3c5.3-0.7,10.6-1.1,16-1.3
			l1.8,0c0.7-0.2,1.5-0.2,2.3,0c1.3,0,2.7,0,4,0h0.8c8-0.4,16.5-0.8,25.1-1c0.4,0,0.8,0.1,1,0.4c0.6,0.6,0.9,2,0.8,3.7
			s-0.7,2.9-1.6,3c-5.3,0.7-10.6,1.1-16,1.3l-1.8,0c-0.8,0.2-1.6,0.2-2.3,0c-1.3,0-2.6,0-4,0h-0.8
			C311.1,422.3,302.5,422.7,293.9,422.9L293.9,422.9L293.9,422.9z M293.9,422.1L293.9,422.1z M294,417.2c-0.2,0.5-0.4,1.1-0.4,1.6
			c-0.1,0.9,0,1.7,0.4,2.5c8.5-0.2,17-0.6,25-1h0.8c1.3,0,2.7,0,4,0h0.2c1,0.2,1.4,0.1,1.6,0c0.1-0.1,0.2-0.1,0.4-0.1l1.9,0
			c5.3-0.2,10.6-0.6,15.8-1.3c0.2-0.5,0.4-1.1,0.4-1.6c0.1-0.9,0-1.7-0.4-2.5c-8.5,0.2-17,0.6-25,1h-0.8c-1.4,0-2.7,0-4.1,0h-0.2
			c-0.5-0.2-1-0.2-1.5,0c-0.1,0.1-0.2,0.1-0.3,0.1l-1.9,0C304.5,416.1,299.2,416.5,294,417.2L294,417.2z"></path></g></g><g id="character"><path class="st1" d="M104.6,256.9c-0.2,2,0.4,4,1.8,5.4c1.4,1.4,3.1,2.5,5,3.1c4.7,1.7,9.8,1.8,14.5,0.2c2.1-0.7,4.2-1.9,4.9-4
		c0.9-2.7-0.8-5.5-2.9-7.5c-3.1-2.9-8.1-5.9-12.4-4.9C111.5,250.2,105.3,252.4,104.6,256.9z"></path><path class="st0" d="M150.3,259.2c1.5-0.3,2.8-1.2,3.6-2.5c0.8-1.4,0.6-3-0.4-4.3c-1-1.2-2.8-1.4-4.1-0.4c-0.8,0.8-1.2,2-1,3.1
		c0.2,1.1,0.6,2.2,1.1,3.2"></path><path class="st1" d="M150.3,260c-0.4,0-0.7-0.2-0.7-0.6c0.1-0.3,0-0.6-0.3-0.7c-0.1,0-0.2,0-0.3,0c-0.6-1.1-1-2.2-1.2-3.4
		c-0.2-1.4,0.2-2.8,1.2-3.8c1.6-1.2,3.8-1,5.1,0.5c1.2,1.4,1.4,3.5,0.5,5.1c-0.9,1.5-2.4,2.6-4.1,2.9L150.3,260z M151.2,252.2
		c-0.5,0-0.9,0.1-1.3,0.4c-0.6,0.6-0.9,1.5-0.7,2.4c0.2,1,0.6,2,1.1,2.9c0.1,0.2,0.1,0.3,0.1,0.5c1.2-0.3,2.3-1,2.9-2.1
		c0.6-1.1,0.5-2.4-0.3-3.4C152.5,252.4,151.9,252.2,151.2,252.2L151.2,252.2z"></path><path class="st0" d="M151.1,276.8c-0.7,2.9-2.2,6.2-5.1,6.8c-2.5,0.5-4.9-1.2-6.9-2.8c-3.4-2.7-6.6-5.7-9.5-8.9
		c-0.4,0.5-0.9,1-1.5,1.3c-2.2,1.1-4.9,0.3-6-1.9c-1-2-0.4-4.4,1.4-5.7c0.3-0.2,0.6-0.4,1-0.5c-2.6-4.1-4.2-8.8-4.7-13.7
		c-0.5-6,1.4-12.3,5.7-16.6c3.6-3.6,12.9-7.6,17.1-3.1c2.2,2.3,3.1,7.2,4.2,10.1c1.5,3.9,2.7,7.9,3.7,11.9
		C152.2,261.2,152.8,269.2,151.1,276.8z"></path><path class="st1" d="M145,284.4c-2.4,0-4.6-1.5-6.5-3.1c-3.2-2.6-6.2-5.4-9-8.3c-0.3,0.3-0.7,0.6-1.2,0.9c-2.6,1.3-5.7,0.3-7-2.2
		c-1.2-2.3-0.5-5.1,1.6-6.6l0.4-0.2c-2.5-4.1-4-8.6-4.4-13.3c-0.5-6.6,1.7-13,5.9-17.2c2.7-2.7,8.1-5.4,12.6-5.3
		c2.1-0.1,4.1,0.7,5.6,2.2c1.7,1.8,2.7,5,3.5,7.8c0.3,0.9,0.6,1.8,0.8,2.6c1.5,3.9,2.7,7.9,3.7,12c2.1,8.6,2.3,16.5,0.7,23.5l0,0
		c-1,4.2-3,6.8-5.7,7.4C145.7,284.4,145.4,284.4,145,284.4z M129.5,271.1c0.2,0,0.4,0.1,0.6,0.2c2.9,3.2,6.1,6.1,9.4,8.8
		c2,1.6,4.1,3.1,6.3,2.7c2.8-0.6,4-4.2,4.5-6.2c1.6-6.8,1.3-14.4-0.7-22.8c-1-4-2.2-7.9-3.7-11.8c-0.3-0.8-0.6-1.7-0.9-2.6
		c-0.8-2.6-1.7-5.6-3.2-7.2c-1.2-1.2-2.9-1.8-4.6-1.8c-4.1-0.1-9.1,2.4-11.5,4.9c-3.9,3.9-5.9,9.9-5.4,16c0.4,4.7,2,9.3,4.6,13.4
		c0.1,0.2,0.1,0.4,0.1,0.6c-0.1,0.2-0.2,0.4-0.4,0.5c-0.3,0.1-0.6,0.3-0.8,0.4c-1.7,1.2-2,3.5-0.8,5.2c1.1,1.5,3.1,2,4.7,1.1
		c0.5-0.3,0.9-0.6,1.2-1.1C129,271.2,129.2,271.1,129.5,271.1L129.5,271.1z M151.1,276.8L151.1,276.8z"></path><path class="st2" d="M180.1,288c11.5-4,20.9-12.4,26.1-23.5c3.4-0.2,6,3.8,5.6,7.2s-2.8,6.3-5.2,8.8c-8.7,9.1-19.3,17.1-31.7,19.1
		c-5.2,0.9-10.6,0.5-15.6-1.2c-2.6-0.8-13.4-5.2-13.2-8.9c0.3-4.5,11.3,0,13.7,0.4C166.6,290.9,173.5,290.2,180.1,288z"></path><path class="st2" d="M151.7,441.2c0.6,0,1.1-0.1,1.7-0.3c0.5-0.2,0.9-0.7,0.9-1.3c0-0.9-0.9-1.4-1.8-1.7c-3.6-1.5-7.4-2.6-11.2-3.4
		c-1.8-0.4-5.5-1.3-6.7,0.7C131.7,440.2,149.2,441.3,151.7,441.2z"></path><path class="st2" d="M124.8,432c1.4-0.1,2.7,0.5,3.6,1.6c0.8,1.1,1.5,2.2,2,3.5l2.3,5.2c0.3,0.5,0.4,1.1,0.2,1.6
		c-0.3,0.4-0.7,0.6-1.2,0.6c-3.4,0.5-10,0.1-11.8-3.5C118.5,438.2,121.7,432.4,124.8,432z"></path><path class="st1" d="M121.2,435.4l5.7,0.1l9-61.9c0.3-2.2,1-4.7,3-5.4c1.8-0.6,3.7,0.7,4.5,2.3c0.7,1.7,1,3.5,0.8,5.4
		c-0.3,20.2-3,40.3-8.1,59.8l5.4-0.4c4.8-26,9.6-52.3,7.1-78.6c-0.3-3.1-0.8-6.4-2.7-8.9c-3.3-4.2-12.3-5.8-16.7-2.4
		s-1.5,11.4-1.2,15.8c1.3,15.9,0.9,32-1.4,47.8C125.4,417.9,123.6,426.7,121.2,435.4z"></path><path class="st1" d="M138.7,368.5h-0.1c-0.2-0.1-0.4-0.3-0.4-0.5c-0.1-6.4-1.3-12.7-3.6-18.8c-0.1-0.3,0-0.5,0.3-0.6
		c0.3-0.1,0.5,0,0.6,0.3c2,5.5,3.2,11.2,3.5,17.1c2.4-5.3,3.5-11,3.3-16.7c0-0.3,0.2-0.5,0.5-0.5c0,0,0,0,0,0c0.3,0,0.5,0.2,0.5,0.4
		c0,0,0,0,0,0c0.2,6.6-1.3,13.1-4.3,19C139.1,368.4,138.9,368.5,138.7,368.5z"></path><path class="st1" d="M115.1,246.3c0,2.9,0.7,6.4,3.4,7.3c1.6,0.6,3.3,0.1,4.9-0.6c18.7-7.4,28.7-27.7,23.4-47
		c-1-3.6-3.5-10-8.1-9.8c-3.8,0.2-6.9,4.9-9,7.5c-6.1,7.8-10.4,16.8-12.7,26.4C115.6,235.5,115,240.9,115.1,246.3z"></path><path class="st1" d="M136.6,258.6c-0.3-0.7-1-1.4-1.7-1.2c-0.5,0.2-0.8,0.8-0.7,1.4c0.1,0.6,0.3,1.1,0.7,1.5
		c0.2,0.3,0.4,0.6,0.7,0.8c0.4,0.4,1,0.3,1.3,0c0.2-0.2,0.3-0.5,0.2-0.9c-0.1-0.4-0.2-0.9-0.5-1.2"></path><path class="st1" d="M141.8,254.5c-0.1-0.5-0.6-0.9-1.1-0.8c-0.1,0-0.2,0.1-0.3,0.1c-0.4,0.3-0.6,0.9-0.4,1.4
		c0.2,0.5,0.4,0.9,0.8,1.3c0.2,0.3,0.5,0.6,0.9,0.8c0.4,0.2,0.8,0.1,1.1-0.2c0.2-0.4,0.2-0.9-0.1-1.2c-0.3-0.3-0.4-0.8-0.4-1.2"></path><path class="st1" d="M127.6,265.4c-0.1,0-0.2,0-0.3-0.1c-0.7-0.5-1.7-0.6-2.5-0.2c-0.2,0.1-0.5,0-0.7-0.2c-0.1-0.2,0-0.5,0.2-0.7
		l0,0c1.1-0.6,2.5-0.4,3.6,0.3c0.2,0.2,0.3,0.5,0.1,0.7C127.9,265.3,127.8,265.4,127.6,265.4z"></path><path class="st1" d="M151.5,259.7c-0.2,0-0.5-0.2-0.5-0.4l-1-6.3c0-0.3,0.1-0.5,0.4-0.6c0,0,0,0,0,0c0.3,0,0.5,0.1,0.6,0.4l1,6.4
		C152,259.5,151.8,259.7,151.5,259.7L151.5,259.7z"></path><path class="st0" d="M137.9,293.5c-7.2,15.6-11.5,32.4-15.8,49c-0.7,2.7-1.3,5.9,0.5,8c1.6,1.8,4.2,2,6.6,2l14.4,0.4
		c3.3,0.1,6.9,0.1,9.3-2.1c2.8-2.5,3-6.7,2.9-10.4c-0.4-14.1-2.4-28-3.6-42c-0.3-3.3,0.1-9.2-3.1-11.3
		C144.2,283.9,139.6,289.8,137.9,293.5z"></path><path class="st1" d="M145.1,353.8h-1.5l-14.4-0.4c-2.5-0.1-5.4-0.3-7.2-2.3c-2-2.3-1.5-5.5-0.7-8.6c4.2-16.5,8.6-33.5,15.9-49.2
		l0,0c1.3-2.9,4.1-6.6,7.4-7.5c1.7-0.5,3.5-0.1,4.9,0.9c2.9,2,3.1,6.6,3.3,9.9c0,0.7,0.1,1.4,0.1,2c0.4,4.3,0.9,8.6,1.3,12.8
		c1,9.5,2.1,19.4,2.3,29.3c0.1,4.2-0.2,8.4-3.1,11C151.1,353.4,148.1,353.8,145.1,353.8z M138.6,293.8L138.6,293.8
		c-7.2,15.6-11.6,32.5-15.8,48.9c-0.7,2.7-1.1,5.5,0.4,7.3c1.3,1.5,3.7,1.7,6.1,1.8l14.4,0.4c3.4,0.1,6.6,0,8.8-1.9
		c2.5-2.2,2.7-6,2.6-9.8c-0.2-9.8-1.3-19.6-2.3-29.1c-0.4-4.2-0.9-8.5-1.3-12.8c-0.1-0.6-0.1-1.3-0.1-2c-0.1-3.2-0.3-7.2-2.6-8.8
		c-1-0.8-2.4-1-3.6-0.7C142.4,287.8,139.9,291,138.6,293.8L138.6,293.8z"></path><path class="st2" d="M142.3,289.4c1.2,1.9-0.4,4.4-1.9,6c-10.5,12-20.9,24-31.2,36.2c-2,2.4-4.1,6.1-2.1,8.5
		c1.6,1.9,4.7,1.5,7.2,0.8c6.7-1.9,13.1-4.5,19.3-7.7l-0.4,8.9c-6.1,3-12.5,6.1-19.3,5.8s-13.8-5.4-13.9-12.1c0-3.4,1.7-6.6,3.5-9.5
		c5.7-9.1,12.7-17.4,20.8-24.5c3-2.6,6-4.9,8.5-8.1C134.4,291.7,139.5,284.6,142.3,289.4z"></path><path class="st0" d="M137.6,337.3c-1.7,2.8-3.4,6.5-1.7,9.1c1.3,2,3.9,2,6.1,1.8l13.9-1.3c3.9-0.4,7.9-0.8,11.3-3
		c4.5-2.9,7.4-8.2,10-13.3l13.1-25.4c1.1-2.2,2.3-4.8,1.5-7.1c-0.9-2.6-3.8-3.1-6.3-3.2c-5.6-0.3-11.1-0.4-16.7-0.3
		c-2.6,0-4.5-0.4-6.5,1.5s-3.5,5.9-5,8.3C150.8,315.3,144.2,326.3,137.6,337.3z"></path><path class="st1" d="M140.3,349c-1.7,0-3.8-0.4-5-2.2c-1.5-2.3-0.9-5.5,1.7-9.9l0,0l19.8-33c0.4-0.7,0.9-1.7,1.4-2.6
		c1.1-2.1,2.3-4.5,3.7-5.8c1.8-1.7,3.7-1.7,5.6-1.6h1.3c5.6-0.1,11.2,0,16.8,0.3c2.5,0.1,5.9,0.6,7,3.7c0.9,2.5-0.2,5.1-1.6,7.7
		L177.9,331c-2.4,4.7-5.5,10.6-10.3,13.6c-3.7,2.3-7.9,2.7-11.7,3.1l-13.9,1.3C141.5,349,140.9,349,140.3,349z M138.3,337.7
		L138.3,337.7c-2.3,3.8-2.8,6.6-1.7,8.3c1,1.6,3.2,1.6,5.4,1.4l13.9-1.3c3.6-0.3,7.6-0.7,11-2.9c4.5-2.8,7.4-8.5,9.7-13l13.1-25.4
		c1.2-2.3,2.1-4.6,1.5-6.5c-0.6-1.7-2.4-2.5-5.6-2.7c-5.5-0.3-11.1-0.4-16.6-0.3h-1.4c-1.9,0-3.2-0.1-4.6,1.2
		c-1.4,1.6-2.5,3.4-3.4,5.4c-0.5,1-1,1.9-1.4,2.7L138.3,337.7z"></path><path class="st0" d="M138.7,318.9c1.8-1.7,4.4-3.2,6.5-2c1.8,1,2.1,3.7,1.2,5.6s-2.7,3.2-4.4,4.5c5.8-1.4,11.9-0.6,17.1,2.4
		c1.9,1.1,3.8,2.9,3.3,5c-0.4,1.9-2.6,2.8-4.4,2.9s-3.8-0.2-5.6,0.3c-3.3,1-5,4.7-7.9,6.7c-5.5,4-14.5,0.4-15.1-6.6
		C128.9,331.3,134.4,323,138.7,318.9z"></path><path class="st1" d="M139.3,346.7c-1.6,0-3.2-0.3-4.6-1c-3.3-1.4-5.6-4.4-6-8c-0.6-6.9,5.5-15.5,9.5-19.3l0,0
		c2.6-2.5,5.4-3.3,7.4-2.1c2.2,1.3,2.6,4.4,1.5,6.6c-0.5,1.1-1.3,2.1-2.2,2.9c5.1-0.6,10.3,0.5,14.7,3c2.8,1.6,4.1,3.8,3.6,5.8
		c-0.6,2.3-3.1,3.3-5.1,3.5c-0.7,0-1.4,0-2.1,0c-1.1-0.1-2.3,0-3.4,0.3c-1.8,0.5-3.2,2-4.6,3.6c-0.9,1.1-1.9,2.1-3.1,3
		C143.4,346.1,141.4,346.7,139.3,346.7z M139.2,319.5L139.2,319.5c-4.1,3.9-9.6,12.1-9,18.1c0.3,3,2.3,5.6,5.1,6.8
		c2.9,1.4,6.2,1.1,8.8-0.7c1-0.8,2-1.7,2.8-2.8c1.5-1.7,3-3.4,5.3-4.1c1.3-0.3,2.6-0.4,3.9-0.3c0.7,0,1.3,0,1.9,0
		c1.6-0.1,3.4-0.9,3.8-2.3c0.4-1.6-1.3-3.2-2.9-4.2c-5-2.9-11-3.7-16.6-2.3c-0.3,0.1-0.7-0.1-0.9-0.4c-0.1-0.3,0-0.7,0.2-0.9
		c1.5-1.1,3.3-2.4,4.1-4.2c0.7-1.5,0.5-3.8-0.9-4.6C142.8,316.4,140,318.7,139.2,319.5z"></path><path class="st1" d="M137.7,273c-0.4-0.2-0.9-0.1-1.2,0.1c-0.4,0.4-0.2,1.1,0.1,1.6c0.7,1.2,1.7,2.2,2.8,3c0.6,0.5,1.5,0.8,2.3,0.7
		c0.7-0.2,1.3-0.6,1.7-1.1c1.1-1.1,1.6-2.2,0-2.9C141.6,273.8,139.7,273.3,137.7,273z"></path><path class="st0" d="M199,254.2c-1.7-1.6-3.8-3.2-4.3-5.4c-0.8-3.2,2-6.5,5.3-6.8s6.4,1.7,8.1,4.5c1.5,2.9,2.2,6.2,2,9.4
		c1.2-4.1,5.4-6.4,9.5-5.2c3.5,1,5.8,4.4,5.5,8.1c-0.3,2-1,3.8-2.1,5.5c-1.4,2.7-3.1,5.7-6,6.7C206.4,274.7,204.2,259.2,199,254.2z"></path><path class="st1" d="M213.9,272.3c-5.6,0-8.7-5.9-11.2-10.8c-1.4-2.7-2.7-5.2-4.2-6.7l0,0l-0.9-0.8c-1.6-1.4-3.1-2.9-3.7-5
		c-0.4-1.7,0-3.4,1-4.7c1.1-1.7,2.9-2.7,4.9-3c3.3-0.4,6.8,1.6,8.8,4.9c1.2,2.1,1.9,4.5,2.1,6.9c2.7-3.7,8-4.5,11.7-1.8
		c2.4,1.8,3.7,4.7,3.4,7.6c-0.3,2-1.1,4-2.2,5.8c-1.6,3-3.4,6-6.5,7.1C216.2,272.1,215,272.3,213.9,272.3z M200.7,242.7
		c-0.2,0-0.4,0-0.6,0c-1.6,0.2-3,1.1-3.9,2.4c-0.8,1-1,2.3-0.8,3.5c0.4,1.7,1.8,2.9,3.2,4.2l0.9,0.8l0,0c1.7,1.7,3.1,4.3,4.5,7.1
		c3,5.8,6,11.8,12.6,9.5c2.6-0.9,4.2-3.5,5.7-6.4c1-1.6,1.7-3.4,2-5.2c0.4-3.8-2.3-7.2-6.1-7.6c-3.4-0.4-6.5,1.8-7.4,5
		c-0.1,0.4-0.5,0.6-0.9,0.5c-0.3-0.1-0.5-0.4-0.5-0.7c0.1-3.8-0.5-6.7-1.9-9C206.1,244.4,203.5,242.8,200.7,242.7z"></path><path class="st1" d="M217.2,267.7c-0.1,0-0.1,0-0.2,0c-0.9-0.4-1.6-1.1-1.9-2c-0.2-0.6-0.2-1.2-0.2-1.7c-0.7,0.1-1.4,0-2.1-0.3
		c-1.2-0.5-2.2-1.4-2.7-2.7c-0.7-2.2-0.2-4.6,1.3-6.4c1.4-1.6,3.2-2.9,5.2-3.8c0.2-0.1,0.5,0,0.7,0.2c0,0,0,0,0,0
		c0.1,0.2,0,0.5-0.2,0.7c-1.9,0.8-3.5,2-4.9,3.6c-1.3,1.5-1.7,3.5-1.2,5.4c0.4,1,1.1,1.7,2.1,2.1c0.7,0.3,1.6,0.3,2.3,0
		c0.3-0.1,0.6,0,0.7,0.3c0.1,0.1,0.1,0.3,0,0.4c-0.6,1.2-0.1,2.7,1.1,3.3c0,0,0.1,0,0.1,0c0.3,0.1,0.4,0.4,0.3,0.6c0,0,0,0,0,0
		C217.6,267.7,217.4,267.8,217.2,267.7z"></path></g><g id="character-2"><path class="st0" d="M241,201.8c2.1,4.9,4.6,10.3,9.5,12.4s10.3,0.3,15.2-1.4l112.8-40c2.8-1,5.7-2.1,7.5-4.5
		c3.3-4.4,0.8-10.7-1.7-15.6c-2-4-4.6-8.4-9-9.3c-2.3-0.5-4.7,0.1-7,0.7c-21.1,5.5-42,11.5-62.8,18.4c-10.4,3.5-20.8,7.1-31,11
		c-8.8,3.4-17.5,8-26.8,9.7c-2.9,0.5-5.9,1-7.6,3.8C237.1,191.6,239.1,197.2,241,201.8z"></path><path class="st1" d="M255.3,215.9c-1.7,0-3.5-0.3-5.1-1c-5.1-2.2-7.7-7.5-9.9-12.8l0,0c-2.2-5.3-3.9-10.9-0.9-15.6
		c1.9-2.9,4.9-3.5,7.9-4h0.2c6.6-1.2,12.9-3.9,19-6.5c2.5-1,5.1-2.1,7.6-3.1c9.8-3.8,20.3-7.5,31.1-11c18.6-6.1,39.1-12.1,62.8-18.4
		c2.1-0.6,4.8-1.3,7.3-0.7c4.7,1,7.4,5.5,9.5,9.7c2.6,5.1,5.2,11.6,1.6,16.4c-2,2.6-5.2,3.8-7.8,4.7l-112.8,40
		C262.4,214.8,258.8,215.9,255.3,215.9z M241.7,201.5c2.1,5,4.6,10.1,9.1,12s9.4,0.4,14.6-1.4l112.8-40c2.4-0.9,5.5-1.9,7.1-4.2
		c3.1-4.1,0.7-10.1-1.8-14.8c-2-3.9-4.5-8.1-8.5-8.9c-2.2-0.5-4.5,0.1-6.6,0.7c-23.6,6.2-44.2,12.2-62.7,18.3
		c-10.8,3.6-21.2,7.3-31,11c-2.5,1-5.1,2.1-7.6,3.1c-6.2,2.6-12.6,5.4-19.4,6.6h-0.2c-2.8,0.5-5.4,1-6.9,3.4
		C237.9,191.6,239.8,196.9,241.7,201.5L241.7,201.5z"></path><path class="st1" d="M256,210.8c-0.4,0-0.8,0-1.2-0.1c-4.3-0.7-6.8-5-8.7-9.2s-4.6-10.1-3.2-15.7c0.1-0.3,0.3-0.4,0.6-0.4
		c0,0,0,0,0,0c0.3,0.1,0.4,0.3,0.4,0.6c0,0,0,0,0,0c-1.2,5.3,1.3,10.9,3.2,15.1s4.1,8,7.9,8.6c1.9,0.1,3.9-0.2,5.7-0.9
		c39.6-12.9,80.6-26.2,118.9-44.4c0.2-0.1,0.5,0,0.7,0.2c0,0,0,0,0,0c0.1,0.2,0,0.5-0.2,0.7c-38.4,18.2-79.4,31.5-119,44.4
		C259.4,210.4,257.7,210.7,256,210.8z"></path><path class="st0" d="M338.6,191.9l0.2-0.2c0.7,3.1,2.1,6.1,4.1,8.6c2.1,2.4,5.7,3.6,8.4,2.1c2.9-1.7,3.4-5.7,3.5-9.1
		c0-5.8-0.3-11.6-1.1-17.4c-0.3-1.9-0.3-4.4,1.4-5.2c1.4-0.6,3.1,0.4,3.8,1.7c0.5,1.4,0.7,3,0.5,4.5l15.4-3.3
		c0.9-0.3,1.8-0.3,2.6,0.1c1.5,0.9,1,3.1,0.1,4.6c-2.4,4-6.3,6.9-10.8,8.1c-1.6,0.4-3.4,0.7-4.6,1.9c-1.3,1.4-1.4,3.5-1.6,5.4
		c-0.5,3.8-1.8,7.5-3.9,10.8c-1.4,2.2-3.4,4.2-5.9,4.9c-3.1,0.9-6.5-0.5-8.8-2.7s-3.8-5.2-5-8.1c-0.7-1.5-1.2-3-1.4-4.6
		C335.2,192.4,337.4,193,338.6,191.9z"></path><path class="st1" d="M348.7,210.4c-2.8-0.1-5.4-1.2-7.3-3.2c-2.5-2.3-3.9-5.4-5.2-8.4c-0.8-1.5-1.3-3.2-1.5-4.9
		c-0.1-1.6,1.2-1.9,2-2.1c0.5-0.1,1-0.3,1.4-0.6l0,0l0.2-0.2c0.2-0.2,0.5-0.3,0.7-0.2c0.3,0.1,0.5,0.3,0.5,0.5
		c1,3.8,2.2,6.4,3.9,8.3s5.1,3.3,7.5,1.9c2.7-1.6,3.1-5.6,3.1-8.4c0-5.8-0.3-11.6-1.1-17.3c-0.2-1.2-0.7-4.8,1.9-5.9
		c1.8-0.9,3.9,0.4,4.8,2.1c0.5,1.2,0.8,2.6,0.6,3.9l14.5-3.1c1-0.3,2.2-0.3,3.2,0.2c0.6,0.4,1,1,1.2,1.6c0.2,1.4-0.1,2.8-0.9,4
		c-2.5,4.1-6.5,7.2-11.2,8.4l-0.8,0.2c-1.3,0.2-2.5,0.7-3.5,1.5c-1,1-1.2,2.7-1.4,4.3l-0.1,0.6c-0.5,4-1.8,7.7-4,11.1
		c-1.9,2.8-4,4.6-6.3,5.2C350.1,210.4,349.4,210.5,348.7,210.4z M338.4,192.9c-0.4,0.2-0.9,0.4-1.4,0.5c-0.9,0.2-0.9,0.3-0.9,0.5
		c0.2,1.5,0.7,3,1.4,4.4c1.2,2.8,2.6,5.7,4.9,7.9c1.9,1.8,5,3.4,8.1,2.5c2-0.6,3.8-2.1,5.4-4.6c2.1-3.1,3.4-6.7,3.8-10.4l0.1-0.6
		c0.2-1.8,0.4-3.8,1.8-5.2c1.2-1,2.6-1.7,4.2-1.9l0.8-0.2c4.3-1.2,8-3.9,10.3-7.7c0.6-0.8,0.8-1.9,0.7-2.9c-0.1-0.3-0.2-0.6-0.5-0.7
		c-0.7-0.2-1.4-0.2-2.1,0l-15.4,3.3c-0.4,0.1-0.8-0.2-0.9-0.6c0-0.1,0-0.1,0-0.2c0.2-1.4,0.1-2.8-0.4-4.1c-0.5-1-1.8-1.8-2.8-1.4
		s-1.4,2-1,4.4c0.8,5.8,1.2,11.7,1.1,17.5c0,3.2-0.5,7.8-3.8,9.7c-3.2,1.9-7.2,0.2-9.4-2.2C340.4,198.5,339.1,195.8,338.4,192.9
		L338.4,192.9z"></path><path class="st2" d="M337.1,177c2.5,2,5.1,4,7.6,6c1.5,1.2,3.1,2.8,2.9,4.7c-0.3,1.2-1,2.3-2,3.1c-2,1.9-4.2,3.5-6.6,4.9
		c-1.4,0.9-2.9,1.5-4.6,1.8c-1.6,0.3-3.3-0.2-4.6-1.3c-1.2-1.2-1.6-3-2-4.7c-0.7-3-1.1-6-1.1-9.1c0-2.2,0.4-6.9,2.6-8.2
		C331.7,172.9,335.4,175.7,337.1,177z"></path><path class="st1" d="M296.2,144.7c-2.3,2-5.3,3.5-6.3,6.4c-0.9,2.6,0.2,5.6,1.7,8c2.7,4.3,7.2,8,12.2,7.5c3.9-0.4,7-3.1,10.1-5.4
		s6.6-4.8,10.5-4.3s6.5,3.4,9.8,5.2c6.1,3.3,13.6,2.6,19-1.7c3.1-2.5,5.3-6.8,3.9-10.5s-5.9-5.6-8.5-8.8c-4.6-5.7-2.3-14.5-5.6-21
		c-1.7-3-4.3-5.4-7.4-6.8c-3.1-1.4-6.5-2.2-10-2.3c-6.1-0.4-12.5,0.7-17.4,4.3c-3.6,2.6-5.9,6.5-6.6,10.9c-0.2,1.9,0.2,3.8,0.1,5.8
		c0,2.2-0.4,4.4-1.2,6.4C299.7,140.8,298.2,143,296.2,144.7z"></path><path class="st0" d="M296.8,129.9c0.9,11.9,6.1,23.1,13.3,32.6c1,1.4,2.2,2.7,3.6,3.8c1.4,1.1,3.2,1.5,4.9,1.3
		c2.5-0.4,4.2-2.6,5.5-4.7c3.8-6.4,5.2-13.9,7-21.1c0.9-3.1,1.5-6.2,1.6-9.4c0-3.2-1.1-6.6-3.5-8.6c-2-1.5-4.3-2.4-6.8-2.7
		c-3.7-0.7-7.4-0.9-11.1-0.8c-3.3,0.2-6.7,0.8-9.8,1.8C297.6,123.2,296.5,126.2,296.8,129.9z"></path><path class="st1" d="M317.7,168.3c-1.6,0-3.1-0.6-4.4-1.5c-1.4-1.1-2.7-2.4-3.8-3.9c-7.9-10.4-12.6-21.8-13.5-32.9
		c-0.4-4.5,1.4-7.5,5.1-8.7c3.2-1.1,6.6-1.7,10-1.9c3.8-0.1,7.5,0.1,11.2,0.8c2.6,0.3,5,1.3,7.1,2.8c2.5,2.4,3.9,5.7,3.8,9.2
		c-0.1,3-0.6,6-1.4,8.8l-0.2,0.8c-0.3,1-0.5,2.1-0.8,3.2c-1.5,6.2-3,12.6-6.3,18.2c-1.8,3-3.8,4.7-6,5.1
		C318.3,168.3,318,168.4,317.7,168.3z M313,120.9c-0.6,0-1.1,0-1.7,0c-3.3,0.2-6.5,0.8-9.6,1.8c-3,1-4.4,3.3-4.1,7.1l0,0
		c0.8,10.9,5.4,22,13.1,32.2c1,1.4,2.1,2.6,3.4,3.6c1.2,0.9,2.8,1.4,4.3,1.2c1.8-0.3,3.4-1.7,5-4.3c3.2-5.4,4.7-11.7,6.1-17.8
		c0.2-1.1,0.5-2.1,0.8-3.2l0.2-0.8c0.8-2.7,1.3-5.6,1.4-8.4c0.1-3-1.1-5.9-3.3-8c-1.9-1.4-4.1-2.2-6.4-2.5
		C319.2,121.2,316.1,120.9,313,120.9z"></path><path class="st1" d="M307.7,143.8c-0.1-0.2-0.4-0.4-0.6-0.3s-0.2,0.3-0.1,0.5c0,0.7,0.1,4.4,1.5,4.1S308.1,144.3,307.7,143.8z"></path><path class="st1" d="M319.5,143.9c0-0.2-0.1-0.4-0.3-0.6c-1-1.1-1.3,2.6-0.7,3.3C319.5,148,319.6,144.5,319.5,143.9z"></path><path class="st1" d="M319.2,112.6c2.5,1.4,4.8,3,6.8,5c2,2,3.5,4.5,4.1,7.3c0.7,3.5-0.2,7.4,1.1,10.8c0.3,0.9,0.9,1.7,1.8,2
		c0.8,0.1,1.5,0,2.2-0.4c2.7-1.3,5-3.3,6.6-5.9c1.6-2.6,2.3-5.6,2-8.6c-0.5-3.4-2.1-6.6-4.5-9.1c-1.3-1.5-2.8-2.8-4.6-3.7
		c-1.9-0.8-3.9-1.3-6-1.5c-3-0.3-5.8,0.2-8.8,0.3c-0.8,0-2-0.1-2.5,0.8C316.9,110.9,318.2,112,319.2,112.6z"></path><path class="st0" d="M310.8,115c0.5,0.4,1.1,0.6,1.7,0.8c2.7,0.9,5.2,2.2,7.6,3.7c2.4,1.5,4.4,3.6,5.8,6.1c0.9,1.7,1.5,3.6,1.9,5.5
		c0.1,0.5,0.3,1,0.5,1.5c0.3,0.5,0.7,0.8,1.3,0.8c0.9-0.1,1.3-1.1,1.5-2c1.8-8.8-3.2-17.6-11.8-20.5c-2.2-0.7-4.6-0.9-6.9-0.3
		C310.6,111.1,308.7,113.5,310.8,115z"></path><path class="st1" d="M329.6,134.1c-0.8,0-1.5-0.5-1.9-1.1c-0.3-0.5-0.5-1.1-0.6-1.6c-0.4-1.9-1-3.7-1.9-5.4
		c-1.4-2.4-3.3-4.4-5.6-5.8c-2.3-1.5-4.9-2.7-7.5-3.6c-0.7-0.2-1.3-0.5-1.9-0.9c-0.9-0.6-1.4-1.7-1.2-2.8c0.4-1.5,1.6-2.6,3.1-3
		c2.4-0.6,5-0.5,7.4,0.3c8.9,3,14.1,12.1,12.2,21.3c-0.3,1.6-1.1,2.5-2.2,2.6L329.6,134.1z M315.4,111c-0.9,0-1.8,0.1-2.7,0.3
		c-0.9,0.2-1.7,0.9-2,1.8c-0.1,0.5,0.2,1,0.6,1.2l0,0c0.5,0.3,1,0.5,1.5,0.7c2.8,1,5.4,2.2,7.9,3.8c2.5,1.6,4.6,3.8,6,6.4
		c0.9,1.8,1.6,3.7,2,5.7c0.1,0.4,0.2,0.9,0.4,1.2c0.1,0.2,0.3,0.4,0.6,0.4c0.4,0,0.7-0.7,0.8-1.4c1.8-8.4-3.1-16.9-11.2-19.6
		C318,111.2,316.7,111,315.4,111z"></path><path class="st1" d="M321.1,138.5c-3.2,1.8-6.8,2.8-10.4,2.9c-7.3,0.1-14.2-4.1-18.9-9.8c-2.4-2.9-4.4-6.3-4.5-10
		c-0.2-2,0.5-4,1.7-5.5c1.5-1.6,3.7-2.2,5.8-2.6c5.9-1,11.9-0.4,17.9,0.2c2.7,0.1,5.3,0.7,7.8,1.6c3,1.4,5.5,3.8,7,6.8
		c1.3,2.6,2.1,5.4,2.3,8.3c0.2,2.6-2.1,3.7-4,5.1C324.4,136.7,322.8,137.7,321.1,138.5z"></path><path class="st1" d="M318.2,156.9c0.4-0.7,0.8-1.5,1.5-1.6c0.4,0,0.8,0.1,1.1,0.4c0.3,0.3,0.4,0.6,0.5,1c0.5,2-0.7,4.1-2.7,4.6
		c-0.5,0.1-1.1,0.2-1.7,0.1c-0.6-0.1-1.1-0.4-1.4-0.8c-0.6-0.9,0.2-1.2,0.8-1.6C317.1,158.4,317.7,157.7,318.2,156.9z"></path><path class="st0" d="M308.8,184.9c-2.2,3.1-4.3,6.8-3.6,10.6c0.8,4.3,5,7.2,6.4,11.4c1,3,0.6,6.8,2.7,9.1c1.6,1.8,4.3,2.2,6.8,2.4
		c4.1,0.2,8.2-0.1,12.3-0.9c2.5-0.5,5.3-1.4,6.2-3.8c0.5-1.5,0.5-3,0.1-4.5c-1.5-9.9-2.3-20.3-4.5-30.1c-2-8.6-8.8-10.8-15.7-5.7
		C315.4,176.7,311.7,180.6,308.8,184.9z"></path><path class="st1" d="M323.8,219.2c-0.9,0-1.8,0-2.7-0.1c-2.4-0.1-5.4-0.5-7.3-2.6c-1.5-1.7-1.9-3.9-2.2-6.1
		c-0.1-1.1-0.4-2.2-0.7-3.3c-0.7-1.8-1.7-3.5-3-5c-1.5-2-3-4-3.5-6.5c-0.8-4.3,1.7-8.4,3.7-11.1c3.9-5.4,7.3-9.1,10.9-11.7
		s7.4-3.5,10.5-2.3s5.4,4.2,6.4,8.5c1.4,6.8,2.5,13.6,3.3,20.5c0.4,3.2,0.8,6.4,1.3,9.6c0.4,1.6,0.3,3.3-0.2,4.9
		c-0.9,2.1-3.1,3.5-6.8,4.2C330.3,218.9,327.1,219.2,323.8,219.2z M326.7,171.5c-2.4,0.1-4.8,1-6.7,2.5c-3.5,2.5-6.8,6.1-10.6,11.4
		l0,0c-2,2.7-4.1,6.3-3.4,10c0.4,2.2,1.8,4,3.2,5.9c1.3,1.6,2.4,3.4,3.2,5.4c0.4,1.2,0.6,2.4,0.8,3.6c0.3,2,0.6,3.9,1.8,5.3
		c1.5,1.7,4.1,2,6.3,2.1c4.1,0.2,8.1-0.1,12.1-0.9c3.1-0.6,5-1.7,5.7-3.3c0.4-1.3,0.4-2.7,0.1-4.1c-0.5-3.2-0.9-6.5-1.3-9.6
		c-0.7-6.8-1.8-13.7-3.2-20.4c-0.9-3.8-2.8-6.4-5.4-7.4C328.3,171.6,327.5,171.5,326.7,171.5L326.7,171.5z M308.8,184.9L308.8,184.9
		z"></path><path class="st0" d="M313.5,299.7c0.5,3.8,1.3,7.7,3.6,10.7c1.8-3.9,1.3-8.5,1-12.8c-0.7-10.4,0-20.9,2.2-31.1
		c0.4-1.9,0.9-4.1-0.1-5.8c-1.7-3.2-4.7-1.4-5.4,1.2c-0.9,4.1-1.6,8.3-1.9,12.5C312.2,282.7,312.3,291.2,313.5,299.7z"></path><path class="st1" d="M317.1,311.1c-0.2,0-0.4-0.1-0.6-0.3c-2.5-3.1-3.3-7.1-3.8-11l0,0c-1.1-8.5-1.3-17.1-0.5-25.6
		c0.3-4.2,1-8.4,1.9-12.6c0.4-1.7,1.8-3,3.5-3.4c0.8-0.1,2.2,0.1,3.3,2.1s0.5,4.4,0.1,6.3c-2.2,10.2-2.9,20.6-2.2,30.9l0.1,1
		c0.3,4.1,0.6,8.4-1.2,12.1C317.7,310.9,317.4,311.1,317.1,311.1L317.1,311.1z M318,259.7h-0.2c-1.1,0.3-2,1.2-2.2,2.3
		c-1,4.1-1.6,8.2-1.9,12.4c-0.8,8.4-0.7,16.9,0.4,25.2c0.4,3.2,1.1,6.6,2.7,9.2c1-3.1,0.8-6.7,0.5-10.1l-0.1-1
		c-0.7-10.5,0-21.1,2.3-31.4c0.4-1.8,0.8-3.8,0-5.3C319.4,260.3,318.7,259.8,318,259.7L318,259.7z"></path><path class="st0" d="M330,306.6c0.1,0.5,0.4,1,0.9,1.3c0.6,0.2,1.3-0.2,1.5-0.8c0.2-0.6,0.2-1.3,0.1-1.9c-1.8-15.8-2-31.8-0.6-47.7
		c0,0.3-5.3,0.4-5.8,0.7c-1.6,0.9-1.2,3-1.3,4.8C324,277.7,325.8,292.4,330,306.6z"></path><path class="st1" d="M331.2,308.7c-0.2,0-0.4,0-0.6-0.1c-0.7-0.4-1.1-1-1.3-1.8l0,0c-4.2-14.2-6-29.1-5.3-43.9c0-0.3,0-0.7,0-1
		c0-1.5,0-3.4,1.7-4.4c0.4-0.2,1.1-0.3,3.5-0.5c0.8-0.1,2-0.1,2.3-0.2c0.1-0.1,0.3-0.1,0.4-0.1c0.4,0,0.7,0.3,0.7,0.8
		c0,0.1,0,0.2,0,0.2c-1.4,15.8-1.2,31.6,0.6,47.4c0.1,0.8,0.1,1.5-0.2,2.3C332.8,308.2,332,308.7,331.2,308.7z M331,258.4
		c-0.5,0-1,0.1-1.8,0.1c-1,0-1.9,0.1-2.9,0.3c-0.9,0.5-0.9,1.5-0.9,3c0,0.4,0,0.7,0,1.1c-0.7,14.7,1.1,29.3,5.3,43.4l0,0
		c0.1,0.2,0.2,0.7,0.4,0.8s0.4-0.1,0.5-0.4c0.1-0.5,0.2-1,0-1.5C330,289.7,329.8,274,331,258.4z"></path><path class="st2" d="M303.9,311.2c-0.3,0-0.5,0.2-0.7,0.4c-0.3,0.4-0.2,0.9,0.2,1.2c0.4,0.3,0.8,0.4,1.3,0.5
		c3.6,0.5,7.2,0.7,10.9,0.5c1,0.1,2.1-0.3,2.9-1c0.6-0.9,0.7-2,0.1-2.9C316.6,305.8,307.3,310.4,303.9,311.2z"></path><path class="st2" d="M324.4,310.8c-0.6,0.4-1.2,1-1.1,1.6c0.1,0.9,1.1,1.3,2,1.4c2.2,0.3,4.5,0.3,6.7-0.2c1.4-0.3,2.9-0.9,3.4-2.2
		c0.4-1.2,0.1-2.5-0.9-3.4C330.9,304.1,327.5,308.4,324.4,310.8z"></path><path class="st2" d="M313.2,172.4c-1.2,1.1-2.1,2.4-3.3,3.4c-1.8,1.6-4,2.5-6.1,3.6s-4.1,2.7-4.9,4.9c-0.7,2.3-0.3,4.7,1.1,6.7
		c1.4,1.9,3.2,3.4,5.3,4.5c2.1,1.2,4.5,2,6.9,2.2c2.5,0.2,4.9-0.6,6.8-2.2c2.6-2.5,3.1-6.5,2.9-10.1c-0.2-2.5-0.6-5-0.7-7.5
		c0-1.5,0.3-3.2-0.1-4.7C320,169.5,315.5,170.2,313.2,172.4z"></path><path class="st2" d="M297,252.3c-0.9,1.4-1.5,3-1.8,4.7c-0.3,3.5,2.3,6.6,5.2,8.5c4.9,3.2,10.8,4.3,16.6,4.6
		c11.8,0.5,23.6-2.4,33.9-8.3c1.5-0.7,2.7-1.8,3.5-3.3c0.8-1.8,0-3.9-0.7-5.8c-4.4-11.1-8.8-22.3-13.2-33.4c-0.8-2-1.6-4.1-3.4-5.3
		c-3.4-2.5-7.8-0.7-11.4,0.3c-2.5,0.7-5.6,0.7-7.7,2.2c-2.9,2-4.6,6.4-6.3,9.4c-2.4,4.1-4.8,8.2-7.1,12.3
		C302,242.9,299.5,247.6,297,252.3z"></path><path class="st0" d="M293.9,211.8c-3,2.9-6.5,5.6-10.6,6.1c-5.5,0.7-10.7-2.8-14.4-7s-6.3-9.2-10.1-13.2c-1.4-1.5-3.7-3-5.5-1.8
		c-1.2,1-1.5,2.8-0.7,4.1c0.8,1.3,1.9,2.4,3.2,3.2c-3.3,0.9-6.8,1.9-9.2,4.2s-3.6,6.5-1.5,9.2s6.2,2.7,9.6,1.7s6.6-2.4,10-1.9
		s6,3.1,9.1,4.6c7,3.4,15.8,0.9,21.8-4.1s9.8-12.1,13.5-19c0.6-1.2,2.5-6.9-0.9-6.3c-1.4,0.2-3,5.1-3.6,6.2
		C301.6,203.2,298,207.8,293.9,211.8z"></path><path class="st1" d="M280.8,223.6c-2.5,0-5.1-0.5-7.4-1.6c-1.1-0.6-2.2-1.2-3.2-1.9c-1.7-1.3-3.6-2.2-5.7-2.7
		c-2.5-0.4-4.9,0.4-7.5,1.2c-0.8,0.2-1.5,0.5-2.3,0.7c-4.5,1.2-8.4,0.5-10.4-2c-2.4-3.1-1.1-7.7,1.6-10.2c2.3-2.2,5.3-3.2,8.1-4
		c-0.9-0.7-1.7-1.6-2.2-2.6c-0.8-1.6-0.7-4,1-5.1c2.1-1.4,4.7,0,6.4,1.9c2,2.2,3.9,4.6,5.5,7.1c1.4,2.1,2.9,4.1,4.6,6.1
		c2,2.3,7.3,7.5,13.7,6.7c4.1-0.5,7.6-3.4,10.2-5.9c4.1-4,7.7-8.6,10.6-13.5c0.2-0.3,0.4-0.9,0.7-1.5c1.2-2.8,2.2-4.8,3.4-5.1
		c0.9-0.2,1.8,0,2.3,0.8c1.4,1.8-0.4,6.1-0.7,6.6c-3.5,6.6-7.5,14-13.7,19.2C291.8,221.4,286.4,223.5,280.8,223.6z M263.2,215.8
		c0.6,0,1.1,0,1.7,0.1c2.2,0.5,4.4,1.5,6.2,2.9c1,0.7,2,1.3,3.1,1.8c7.1,3.4,15.6,0.5,21-4c6-5,9.9-12.3,13.3-18.8
		c0.5-1,1.4-4.1,0.8-5c0-0.1-0.2-0.3-0.9-0.2s-1.9,3.1-2.3,4.2c-0.3,0.7-0.6,1.3-0.8,1.7c-3,5.1-6.6,9.7-10.9,13.9l0,0
		c-2.7,2.7-6.5,5.8-11,6.3c-5,0.6-10.5-2-15-7.2c-1.7-2-3.2-4-4.7-6.2c-1.6-2.5-3.4-4.8-5.4-7c-1.2-1.3-3.2-2.6-4.5-1.7
		c-0.9,0.8-1.1,2.1-0.5,3.2c0.7,1.2,1.8,2.3,3,3c0.2,0.2,0.3,0.5,0.3,0.8c-0.1,0.3-0.3,0.5-0.5,0.6c-3.1,0.8-6.5,1.8-8.9,4
		c-2.2,2.1-3.3,5.9-1.4,8.2c2.3,3,7.3,1.9,8.8,1.5c0.7-0.2,1.5-0.4,2.2-0.7C258.8,216.4,261,215.9,263.2,215.8L263.2,215.8z
		 M293.8,211.8L293.8,211.8z"></path><path class="st1" d="M249.4,215.6c-1.8,0-3.6-0.3-5.3-1c-0.3-0.1-0.4-0.4-0.3-0.6c0,0,0,0,0,0c0.1-0.3,0.4-0.4,0.6-0.3
		c4.5,1.7,9.5,1,13.3-1.9c0.2-0.2,0.5-0.1,0.7,0.1c0.2,0.2,0.1,0.5-0.1,0.7C255.9,214.6,252.7,215.6,249.4,215.6z"></path><path class="st1" d="M364.4,184.6c-0.2,0-0.5-0.2-0.5-0.4c-0.1-0.3,0.1-0.5,0.4-0.6c0,0,0,0,0,0c5.1-1,9.8-3.6,13.3-7.5
		c0.2-0.2,0.5-0.2,0.7,0c0,0,0,0,0,0c0.2,0.2,0.2,0.5,0,0.7C374.7,180.9,369.8,183.6,364.4,184.6L364.4,184.6z"></path></g></svg>