<svg transform="scale(1)" version="1.1" id="Layer_1" xmlns="http://www.w3.org/2000/svg" xmlns:xlink="http://www.w3.org/1999/xlink" x="0px" y="0px" viewBox="0 0 500 500" xml:space="preserve" class="show_show__wrapper__graphic__5Waiy "><title>React</title><style type="text/css">
	.st0{fill:#6c63ff;}
	.st1{fill:#FFFFFF;}
	.st2{fill:#111111;}
</style><g id="phone-with-money"><path class="st0" d="M182.5,411.6c3,4.5,9.1,5.1,14.5,5.4c31.6,1.5,63.2,2.4,94.8,2.8c28.7,0.4,57.8,0.2,85.7-6.6
		c4.5-1.1,9.7-3.1,10.7-7.5c0.9-3.7-1.8-7.6-5.3-9.3s-7.4-1.8-11.2-1.9l-47.5-0.9c-31-0.6-62-1.1-93.1-1.6
		C221.9,391.9,168.4,390.6,182.5,411.6z"></path><path class="st1" d="M369.2,89.7c-4.5-3.7-11.4-4.2-17.8-4.7c-21.1-1.3-112-1.8-133.1-0.6c-6.4,0.3-13.4,0.9-17.8,4.5
		c-5,4.1-5.3,10.8-5.2,16.8c1,73.2,2,148.6,3,226.1c0.1,10.3,0.7,21.7,9,29.1c8.9,8.1,23.4,8.6,36.3,8.6l41.6-0.1l41.6,0.5
		c12.9,0.2,27.3-0.2,36.3-8.2c8.3-7.4,8.9-18.8,9-29.1c0.8-77.6,1.6-153,2.4-226.2C374.5,100.5,374.3,93.8,369.2,89.7z"></path><path class="st2" d="M330.5,370.7h-3.7l-41.6-0.5l-41.6,0.1c-13.6,0-27.8-0.6-36.8-8.8c-8.3-7.5-9.1-18.8-9.3-29.7l-3-226.1
		c-0.1-6.5,0.3-13.2,5.5-17.4c4.5-3.6,11.2-4.3,18.2-4.6c21.1-1.1,112-0.7,133.2,0.6c7.1,0.4,13.8,1.2,18.2,4.8
		c5.2,4.2,5.6,10.9,5.5,17.4l-2.4,226.2c-0.1,10.9-0.9,22.2-9.2,29.6S343,370.7,330.5,370.7z M285.2,368.7l41.6,0.5
		c13.4,0.2,27.2-0.3,35.8-8c7.8-7,8.6-17.5,8.7-28.5l2.4-226.2c0.1-6.4-0.3-12.4-4.9-16.3c-4.1-3.4-10.6-4-17.4-4.5
		c-21.1-1.3-111.9-1.8-133-0.6c-6.8,0.4-13.2,1-17.4,4.3c-4.7,3.8-5,9.8-4.9,16.2l3,226.1c0.1,11,0.9,21.5,8.8,28.6
		c8.6,7.8,22.4,8.4,35.8,8.4L285.2,368.7z"></path><path class="st1" d="M307.4,60.5c-3.5-0.6-7.5-1.2-10.7,0.8c-2.8,1.7-4.1,4.8-5.1,7.6c-14.6,38.1-25.7,77.5-33.2,117.6
		c-0.6,3.1-1.1,6.6,0.7,9c1.9,2.7,5.9,3.4,9.5,3.9l46.8,6.3c2.9,0.4,6,0.7,8.6-0.8c3-1.8,4.1-5.3,4.9-8.4l17.9-72.7l9-36.7
		c2.5-10,6.2-16.6-5.6-19.2C336.2,64.9,321.7,62.9,307.4,60.5z"></path><path class="st2" d="M319.2,206.8c-1.3,0-2.6-0.1-3.9-0.3l-46.8-6.3c-3.9-0.5-8-1.3-10-4.2c-1.9-2.7-1.5-6.2-0.8-9.6
		c7.5-40.2,18.6-79.6,33.2-117.7c1.2-3,2.5-6.2,5.4-8c3.4-2.1,7.4-1.6,11.3-0.9c4.7,0.8,9.6,1.6,14.3,2.4c9.4,1.5,19.2,3.1,28.6,5.1
		c4.1,0.9,6.6,2.2,7.8,4.3c1.8,3,0.8,7-0.6,11.9c-0.3,1.2-0.7,2.5-1,3.8l-27,109.4c-0.8,3.3-2,7-5.2,8.9
		C322.8,206.4,321,206.9,319.2,206.8z M302.2,60.6c-1.8-0.1-3.6,0.4-5.2,1.3c-2.5,1.5-3.7,4.3-4.8,7.2
		c-14.6,38.1-25.7,77.4-33.2,117.4c-0.6,3.2-1,6.3,0.6,8.5c1.7,2.4,5.4,3.1,9,3.6l46.9,6.4c3,0.4,5.8,0.6,8.2-0.7
		c2.8-1.6,3.8-4.9,4.5-8l27-109.4c0.3-1.4,0.7-2.7,1-3.9c1.3-4.6,2.3-8.3,0.8-10.7c-1-1.7-3.3-2.9-6.9-3.6c-9.4-2-19.1-3.6-28.5-5.1
		c-4.7-0.8-9.6-1.5-14.3-2.4C305.6,60.8,303.9,60.7,302.2,60.6L302.2,60.6z"></path><path class="st1" d="M337,71.8l-27.4-5.2c-0.3,6.5-7.5,12.7-14.5,12.4c-12.3,32.7-20.1,67-23.1,101.8c6.4,1.9,10.8,7.8,10.9,14.4
		l28.7,2.7c2.3-5.6,8.5-10,14.9-10.6c4.9-33.5,12.7-67.7,25-100.4c-4.4-0.3-7.9-0.3-11.2-3.7C339.3,82.3,335.4,71.4,337,71.8z"></path><path class="st2" d="M311.7,198.7L311.7,198.7l-28.8-2.7c-0.4,0-0.7-0.4-0.7-0.8c-0.1-6.3-4.3-11.9-10.4-13.7
		c-0.3-0.1-0.5-0.4-0.5-0.8c3-34.9,10.7-69.2,23.1-102c0.1-0.3,0.4-0.5,0.7-0.5c6.6,0.2,13.5-5.6,13.7-11.7c0-0.2,0.1-0.4,0.3-0.6
		c0.2-0.1,0.4-0.2,0.6-0.2l27.4,5.2l0,0c0.4,0.1,0.7,0.5,0.6,0.9c0,0.2-0.2,0.4-0.4,0.5c-0.1,1.7,2.6,9.5,3.4,10.4
		c2.8,2.9,5.9,3.1,9.7,3.4l1,0.1c0.2,0,0.4,0.2,0.6,0.3c0.1,0.2,0.2,0.4,0.1,0.7c-11.2,29.7-19.6,63.4-25,100.2
		c0,0.3-0.3,0.6-0.7,0.6c-6,0.5-12,4.8-14.2,10.1C312.2,198.5,312,198.7,311.7,198.7z M283.7,194.6l27.5,2.6
		c2.8-5.7,8.3-9.6,14.7-10.4c5.3-36.3,13.6-69.7,24.6-99l0,0c-4-0.3-7.5-0.5-10.7-3.8c-0.8-0.8-4-8.7-3.8-11.6l-25.6-4.9
		c-0.8,6.4-7.7,12.2-14.6,12.3c-12.1,32.3-19.8,66.1-22.8,100.5C279,182.5,283.3,188.1,283.7,194.6L283.7,194.6z"></path><path class="st1" d="M322.5,104.6c-1.5-1.1-3.3-1.6-5.2-1.4c-1.6,0.1-3.2,0.7-4.4,1.7c-1.2,0.9-1.9,2.5-1.8,4
		c0.3,1.2,1.1,2.3,2.2,2.9C318.2,114.5,327.8,109.4,322.5,104.6z"></path><path class="st2" d="M316.6,113.2c-1.2,0-2.5-0.3-3.6-0.9c-1.3-0.7-2.3-1.9-2.6-3.4c-0.2-1.8,0.6-3.6,2-4.7
		c1.4-1.1,3.1-1.8,4.8-1.9c2.1-0.3,4.1,0.3,5.7,1.6l0,0c2,1.8,2.4,4,0.9,5.9C322.1,112,319.4,113.3,316.6,113.2z M318.2,103.9
		c-0.3,0-0.5,0-0.8,0c-1.5,0.1-2.8,0.6-4,1.6c-1,0.8-1.6,2-1.5,3.3c0.3,1,0.9,1.9,1.9,2.3c2.7,1.6,7.3,0.2,9-2
		c1-1.3,0.7-2.6-0.7-3.9l0,0C321,104.2,319.6,103.8,318.2,103.9L318.2,103.9z"></path><path class="st1" d="M326,124.6c-3.9-5.5-10.8-8.9-18.2-9.1c-4.4-0.1-9.1,0.9-12.6,3.7c-2.9,2.5-5,5.8-6,9.5
		c-1.9,6-1.9,12.5,1,17.6c4,6.9,13.2,10.3,22.2,9.3c3.4-0.3,6.7-1.5,9.7-3.3c7.4-4.8,8.7-14.8,6.7-21.6
		C328.2,128.4,327.3,126.4,326,124.6z"></path><path class="st2" d="M309.2,156.4c-8.4,0-16-3.7-19.5-9.8c-2.8-4.9-3.2-11.4-1.1-18.2c2.1-8.8,10.3-14.6,19.3-13.7
		c7.7,0.2,14.8,3.8,18.8,9.4l0,0c1.4,1.9,2.4,4,3,6.3c2.1,7.5,0.4,17.7-7.1,22.5c-3,1.9-6.5,3-10,3.4
		C311.5,156.4,310.3,156.4,309.2,156.4z M307.1,116.2c-2.9,0-7.6,0.5-11.4,3.5c-2.8,2.4-4.8,5.6-5.7,9.1c-2,6.4-1.6,12.5,1,17
		c3.7,6.4,12.3,10,21.4,8.9c3.3-0.3,6.5-1.4,9.4-3.1c6.9-4.4,8.4-13.8,6.4-20.8c-0.6-2.1-1.5-4-2.8-5.8l0,0
		c-3.8-5.3-10.4-8.6-17.6-8.8L307.1,116.2z"></path><path class="st2" d="M315.9,142.3c-0.1,0-0.1,0-0.2,0c-0.2-0.1-0.4-0.4-0.2-0.7c0,0,0,0,0,0c1.2-2.2,1.7-4.7,1.5-7.1
		c-0.3-2.4-2.1-4.3-4.4-4.8c-2.5-0.5-5.5,1-6.2,3.1c-0.2,0.8-0.3,1.7-0.2,2.6c0,0.4,0,0.9,0,1.3c0.1,1.7-0.8,3.2-2.3,4
		c-1.4,0.6-3,0.2-4-0.9c-0.8-1-1.2-2.3-1.2-3.5c-0.1-3.4,0.8-6.7,2.6-9.5c0.1-0.2,0.5-0.3,0.7-0.2c0.2,0.1,0.3,0.5,0.2,0.7
		c-1.7,2.6-2.6,5.7-2.5,8.9c0,1.1,0.3,2.1,0.9,2.9c0.7,0.8,1.8,1,2.8,0.7c1.1-0.6,1.8-1.8,1.7-3.1c0-0.4,0-0.8,0-1.2
		c-0.1-1,0-2,0.2-2.9c0.9-2.6,4.4-4.4,7.3-3.8c2.7,0.6,4.8,2.9,5.2,5.6c0.3,2.7-0.2,5.4-1.5,7.7C316.2,142.2,316,142.3,315.9,142.3z
		"></path><path class="st2" d="M322.8,140.4c-0.1,0-0.1,0-0.2,0c-9.2-3.5-18.6-6.4-28.1-8.8c-0.3-0.1-0.4-0.3-0.4-0.6
		c0.1-0.3,0.3-0.4,0.6-0.4c0,0,0,0,0,0c9.6,2.4,19,5.3,28.2,8.8c0.3,0,0.5,0.3,0.4,0.6S323.1,140.4,322.8,140.4L322.8,140.4z"></path><path class="st1" d="M304.6,162.2c-1.4-0.3-2.8-0.2-4.2,0.1c-1.4,0.3-2.6,1.2-3.4,2.4c-0.9,1.7-0.7,3.8,0.6,5.3
		c1,1.5,2.4,2.5,4.1,3c3.7,1,7.5-1.2,8.5-4.9c0,0,0,0,0,0C311,164.9,307.5,162.7,304.6,162.2z"></path><path class="st2" d="M303.5,174c-0.7,0-1.3-0.1-2-0.3c-1.8-0.6-3.4-1.8-4.5-3.4c-1.4-1.7-1.6-4.1-0.6-6.1c0.9-1.4,2.3-2.3,3.9-2.7
		c1.5-0.3,3-0.4,4.5-0.1l0,0c2.2,0.3,4.2,1.5,5.6,3.3c0.7,1,0.9,2.3,0.6,3.6c-0.6,2-1.9,3.7-3.7,4.7
		C306.1,173.7,304.8,174,303.5,174z M302.6,162.8c-0.7,0-1.3,0.1-2,0.2c-1.2,0.3-2.3,1-3,2c-1.1,1.9,0.1,3.9,0.5,4.5
		c0.9,1.3,2.2,2.3,3.7,2.8c1.5,0.4,3.1,0.2,4.5-0.5c1.5-0.8,2.6-2.2,3-3.8c0.2-0.8,0.1-1.7-0.4-2.4c-1.1-1.4-2.8-2.4-4.6-2.6l0,0
		C303.8,162.8,303.2,162.8,302.6,162.8L302.6,162.8z"></path><path class="st1" d="M250.5,20.4c-4.1,0-8.6,0.3-11.7,3.2c-2.7,2.5-3.5,6.1-4.1,9.5c-8.3,45.3-12.4,91.3-12.3,137.4
		c0,3.6,0.2,7.5,2.7,9.9c2.7,2.6,7.3,2.5,11.4,2.3l53.3-2.7c3.2-0.2,6.8-0.5,9.4-2.7c3-2.6,3.5-6.7,3.7-10.4l4.7-84.4l2.4-42.6
		c0.6-11.6,3.5-19.8-10.2-20.1C283.3,19.4,266.8,20.2,250.5,20.4z"></path><path class="st2" d="M233.5,183.5c-3.4,0-6.7-0.5-9-2.6c-2.7-2.5-2.9-6.6-2.9-10.4c-0.1-46.1,4.1-92.1,12.3-137.5
		c0.6-3.6,1.5-7.3,4.3-9.9c3.3-3,7.8-3.3,12.2-3.4l0,0c5.4-0.1,11-0.2,16.3-0.4c10.8-0.3,21.9-0.6,32.8-0.3c4.7,0.1,7.7,1.1,9.5,3.1
		c2.6,2.9,2.3,7.5,1.8,13.3c-0.1,1.4-0.2,2.9-0.3,4.5l-7,127.1c-0.2,3.8-0.7,8.1-3.9,10.9c-2.7,2.3-6.4,2.7-9.9,2.9l-53.3,2.7
		C235.5,183.5,234.5,183.5,233.5,183.5z M250.5,21.2c-4.1,0-8.3,0.3-11.2,3c-2.5,2.3-3.2,5.6-3.9,9.1
		c-8.2,45.3-12.3,91.2-12.2,137.2c0,3.6,0.2,7.2,2.4,9.4c2.4,2.3,6.7,2.3,10.8,2.1l53.2-2.7c3.4-0.2,6.6-0.5,9-2.5
		c2.8-2.4,3.2-6.3,3.4-9.8l7-127c0.1-1.6,0.2-3.1,0.3-4.5c0.5-5.4,0.8-9.7-1.4-12.1c-1.5-1.7-4.3-2.5-8.5-2.6
		c-10.8-0.3-21.9,0-32.7,0.3C261.5,21,255.9,21.1,250.5,21.2L250.5,21.2z M250.5,20.4L250.5,20.4z"></path><path class="st1" d="M285.7,26.8h-31.5c1.1,7.2-5.6,15.6-13.5,16.8c-6.9,38.9-8.3,78.5-4.3,117.7c7.5,0.8,13.6,6.4,15.1,13.7
		l32.4-3c1.4-6.7,7.3-12.9,14.2-14.8c-1.6-38.3-0.1-77.8,6.8-116.6c-5,0.6-8.9,1.3-13.2-1.7C290.4,38,283.8,26.8,285.7,26.8z"></path><path class="st2" d="M251.5,175.9c-0.4,0-0.7-0.3-0.7-0.6c-1.5-7-7.3-12.3-14.4-13.1c-0.4,0-0.6-0.3-0.7-0.7
		c-4-39.3-2.5-79,4.4-117.9c0.1-0.3,0.3-0.6,0.6-0.6c7.5-1.2,13.9-9.1,12.8-16c-0.1-0.4,0.2-0.8,0.6-0.9c0,0,0.1,0,0.1,0h31.5
		c0.4,0,0.7,0.3,0.8,0.7c0,0.3-0.1,0.5-0.4,0.7c0.2,1.9,4.9,10.1,6,10.9c3.8,2.6,7.2,2.2,11.6,1.7l1.1-0.1c0.4-0.1,0.8,0.2,0.8,0.6
		c0,0.1,0,0.2,0,0.2c-6.2,35.2-8.5,74.4-6.8,116.4c0,0.3-0.2,0.7-0.5,0.8c-6.6,1.9-12.4,7.9-13.7,14.2c-0.1,0.3-0.3,0.6-0.7,0.6
		L251.5,175.9L251.5,175.9z M237.1,160.7c7.3,1.1,13.2,6.4,15,13.6l31.2-2.9c1.9-7,7.2-12.5,14.1-14.7c-1.7-41.5,0.6-80.2,6.6-115.2
		h-0.1c-4.5,0.5-8.4,1-12.6-2c-0.9-0.7-3-4.2-4-5.9c-2-3.6-2.5-5.3-2.6-6.1H255c0.5,7.2-6,15.2-13.6,16.7
		C234.6,82.7,233.2,121.9,237.1,160.7z"></path><path class="st1" d="M276.4,66.2c-1.9-1-4-1.1-6-0.5c-1.8,0.5-3.3,1.5-4.5,2.8c-1.2,1.3-1.6,3.1-1.1,4.8c0.6,1.3,1.7,2.3,3.1,2.7
		C273.7,78.1,283.3,70.4,276.4,66.2z"></path><path class="st2" d="M270,77.1c-0.8,0-1.6-0.1-2.4-0.4c-1.6-0.5-2.9-1.6-3.6-3.2c-0.6-1.9-0.1-4,1.2-5.5c1.3-1.5,3-2.6,5-3.1
		c2.2-0.7,4.6-0.5,6.6,0.6l0,0c2.6,1.6,3.4,3.8,2.2,6.2C277.7,74.6,273.7,77.1,270,77.1z M273.1,66.1c-0.8,0-1.7,0.1-2.5,0.4
		c-1.6,0.4-3.1,1.3-4.2,2.5c-1,1.1-1.4,2.6-1,4c0.5,1.1,1.5,1.9,2.6,2.2c3.4,1.2,8.3-1.3,9.6-4.2c0.8-1.7,0.2-3.2-1.7-4.3
		C275.1,66.3,274.1,66,273.1,66.1L273.1,66.1z"></path><path class="st1" d="M284.5,87.7c-5.5-5.2-13.8-7.7-22.1-6.3c-4.9,0.8-9.9,2.9-13.2,6.7c-2.9,3.4-4.2,7.7-4.6,11.8
		c-0.8,7,0.5,14.2,4.8,19.3c5.9,6.8,16.8,8.7,26.5,5.7c3.7-1.1,7.1-3,10-5.6c7.2-6.8,6.5-18.3,3-25.4
		C287.8,91.5,286.3,89.4,284.5,87.7z"></path><path class="st2" d="M266.7,127c-7.2,0-13.8-2.6-17.9-7.3s-6-11.9-5-19.9c0.6-5.1,2.2-9.2,4.8-12.2c3.1-3.6,7.9-6.1,13.6-7
		c8.6-1.3,17.1,1.1,22.8,6.5l0,0c1.9,1.8,3.5,4,4.6,6.3c3.9,7.9,4.1,19.5-3.1,26.3c-3,2.7-6.5,4.7-10.3,5.8
		C273.1,126.5,270,127,266.7,127z M267,81.7c-1.5,0-3,0.1-4.4,0.3c-3.1,0.5-8.9,2-12.7,6.5c-2.4,2.8-3.9,6.6-4.4,11.4
		c-0.9,7.6,0.8,14.2,4.7,18.8c5.5,6.4,15.8,8.6,25.7,5.4c3.6-1.1,7-2.9,9.8-5.5c5.1-4.8,7.7-14.8,2.8-24.5c-1.1-2.2-2.6-4.2-4.4-5.9
		l0,0C279.4,83.9,273.3,81.6,267,81.7z"></path><path class="st2" d="M261.1,110.7c-0.9,0-1.7-0.3-2.5-0.8c-1-1-1.8-2.2-2-3.7c-0.8-3.7-0.5-7.5,0.9-11c0.1-0.3,0.4-0.4,0.6-0.3
		c0,0,0,0,0,0c0.3,0.1,0.4,0.4,0.3,0.6c0,0,0,0,0,0c-1.3,3.3-1.6,6.9-0.9,10.4c0.2,1.2,0.8,2.3,1.7,3.1c1,0.8,2.3,0.8,3.3,0.2
		c1.1-1,1.6-2.4,1.3-3.8c-0.1-0.5-0.2-0.9-0.3-1.4c-0.3-1.1-0.4-2.2-0.3-3.3c0.4-3,3.9-5.8,7.3-5.7c3.1,0.1,5.8,2.1,6.9,5.1
		c0.9,2.4,0.9,5.4-0.1,8.9c-0.1,0.3-0.4,0.4-0.6,0.4c-0.3-0.1-0.4-0.4-0.4-0.6c0.9-3.3,0.9-6.1,0.1-8.3c-0.9-2.6-3.2-4.4-5.9-4.5
		c-2.9-0.1-5.9,2.3-6.3,4.8c-0.1,1,0,2,0.3,2.9c0.1,0.5,0.2,1,0.3,1.4c0.4,1.8-0.3,3.6-1.7,4.8C262.5,110.4,261.8,110.7,261.1,110.7
		z"></path><path class="st2" d="M284.1,105.8H284c-10.9-2-21.9-3.3-33-3.9c-0.3,0-0.5-0.3-0.5-0.5c0-0.3,0.3-0.5,0.5-0.5c0,0,0,0,0,0
		c11.1,0.6,22.2,2,33.2,3.9c0.3,0,0.5,0.3,0.4,0.6c0,0,0,0,0,0C284.6,105.6,284.4,105.8,284.1,105.8z"></path><path class="st1" d="M268.6,133.9c-1.6,0-3.2,0.4-4.6,1c-1.5,0.7-2.7,1.8-3.3,3.3c-0.8,2.1,0.2,4.3,1.7,5.8
		c1.4,1.4,3.2,2.3,5.2,2.5c4.3,0.3,8-2.9,8.4-7.2c0,0,0,0,0,0C276.3,135.6,271.9,133.8,268.6,133.9z"></path><path class="st2" d="M268.4,147.3c-0.3,0-0.5,0-0.8,0c-2.1-0.2-4.1-1.2-5.7-2.8c-2-2-2.7-4.4-1.9-6.6c0.7-1.7,2-3,3.7-3.8
		c1.5-0.7,3.2-1,4.9-1l0,0c2.5-0.1,5,0.8,6.8,2.4c1,1,1.5,2.4,1.4,3.8c-0.2,2.3-1.3,4.5-3.1,6C272.2,146.6,270.3,147.3,268.4,147.3z
		 M268.6,134.6L268.6,134.6c-1.5,0-2.9,0.3-4.3,0.9c-1.3,0.6-2.4,1.6-2.9,2.9c-0.9,2.3,1,4.4,1.6,5c1.3,1.3,2.9,2.1,4.7,2.3
		c1.8,0.2,3.6-0.4,5-1.6c1.5-1.2,2.4-3.1,2.6-5c0.1-1-0.3-1.9-0.9-2.6C272.8,135.2,270.7,134.5,268.6,134.6L268.6,134.6z"></path><path class="st2" d="M377.6,84.8c-4.9-4.2-12.6-4.8-19.6-5.3c-23.2-1.5-123.2-2-146.4-0.7c-7,0.4-14.7,1-19.6,5.1
		c-5.6,4.7-5.8,12.3-5.8,19.2c0.8,83.9,1.6,170.7,2.4,260.5c0.1,12,0.7,25.2,9.9,33.9c9.9,9.4,26,10,40.3,10l46.2-0.1l46.3,0.6
		c14.3,0.2,30.4-0.2,40.3-9.5c9.2-8.6,9.8-21.8,9.9-33.8c0.7-89.8,1.3-176.7,1.9-260.6C383.5,97.1,383.2,89.5,377.6,84.8z
		 M374.5,106.5c-0.8,73.3-1.6,148.7-2.5,226.2c-0.1,10.3-0.7,21.7-9,29.1c-8.9,8-23.4,8.3-36.3,8.2l-41.6-0.5l-41.6,0.1
		c-12.9,0-27.3-0.5-36.3-8.6c-8.3-7.5-8.9-18.9-9-29.1c-1-77.6-2-152.9-3-226.1c-0.1-6,0.1-12.7,5.2-16.8c4.4-3.6,11.4-4.1,17.8-4.5
		c21-1.1,112-0.7,133.1,0.6c6.4,0.4,13.4,1,17.8,4.7C374.3,93.8,374.5,100.5,374.5,106.5z"></path><path class="st2" d="M326.8,82.3c-2.2-0.2-5.7-0.2-8.9-0.3c-10.5-0.1-56.1-0.3-66.6-0.3c-3.2,0-6.7,0-8.9,0.2
		c-2.5,0.2-2.5,0.5-2.4,0.8l3.6,10.9c0.1,0.5,0.5,1,4.5,1.3c4.2,0.4,11,0.4,17,0.5l19.5,0.1l19.5,0.1c6,0,12.8,0,17-0.3
		c4-0.3,4.3-0.8,4.5-1.3l3.6-10.9C329.3,82.9,329.3,82.5,326.8,82.3z"></path><path class="st1" d="M276.4,383.8c-2.2,6.6,1.3,13.8,7.9,16c6,2,12.6-0.7,15.4-6.4C307.4,377.2,282.1,367.1,276.4,383.8z"></path><path class="st0" d="M273.9,236.7c-6.5,0.9-12.9,3.3-17.7,7.8c-6.1,5.8-8.8,14.4-10.3,22.7c-2.3,12.2-2.4,25.5,3.6,36.4
		c7,12.7,22,20.1,36.4,18.9s27.6-10.7,34.2-23.6s6.7-28.7,1.1-42c-2.3-5.5-5.6-10.7-10.4-14.2C301.9,236.1,284.4,235.2,273.9,236.7z
		"></path><path class="st2" d="M262.1,266c-2.3,2-4.7,4.5-4.5,7.6c0.2,2.8,2.7,5,5.4,5.8s5.6,0.4,8.4,0c1.4,3.7,0.4,7.9,0,11.8
		s0.1,8.6,3.4,10.9c1.8,1.1,4,1.7,6.1,1.7c4,0.3,8.1,0.3,12.1,0.3c2.5,0,5.5-0.2,7-2.3c0.8-1.5,1.2-3.2,1-4.8
		c0-5.9-0.5-11.8-1.3-17.7c2.3,0.4,4.6,0.4,6.8,0c3.6-0.4,6.3-3.6,5.9-7.2c-0.1-1.1-0.5-2.2-1.1-3.1c-1.2-1.9-2.6-3.6-4.3-5.1
		l-8.7-8.3c-2.6-2.5-5.4-5.1-8.9-6.1c-4.8-1.3-8.8,2.1-12.5,4.7C271.8,257.8,266.9,261.8,262.1,266z"></path></g><g id="wise"><g id="presentation"><path class="st0" d="M352.3,200.8c0.1,11.7,0.2,68.5,0.3,80.2c0,1.2,0.1,2.7,1,3.3c0.4,0.2,0.9,0.3,1.3,0.2l6.6-0.4
			c7.1-0.4,61.5,0.1,68.5-0.3c1.5-0.1,3.2-0.3,4-2c0.4-1,0.5-2,0.4-3.1c-0.1-10.7,0.1-68.1,0-78.8c0.1-1.1-0.1-2.3-0.6-3.4
			c-0.8-1.4-2.5-1.4-3.9-1.4c-5.9,0.3-59.5,0.8-65.4,0.6c-2.9-0.1-5.9-0.1-8.8-0.3C353.3,195.3,352.3,197.7,352.3,200.8z"></path></g><path class="st1" d="M390.9,267.9c1.6-0.1,2.9-1.1,3.4-2.6c0.5-1.4,1.1-2.8,1.7-4.1c7.8-16.7,16.1-33.3,24.7-49.6
		c-1.3,0.2-52.9,0.5-52.9,0.5c3.5,4.6,7.1,9.1,10.7,13.6c-5.9,4.7-11.6,9.5-17.2,14.5c10-0.3,20.2,0.7,30.2,0.2c0,0,3.6-4.3,1.9-6.1
		c-3.8,0-14,0.5-17.8-0.1l11.7-10.4l-8-7.4c10.3,1.8,20.9,1.2,31.4,0.6c-0.5,0-2.8,5-3.1,5.6l-3.2,5.8l-6.4,11.7l-13,23.3
		c-1.1,1.9-1.8,3.6,1,4.1C387.6,268,389.2,268,390.9,267.9z"></path></g><g id="character"><path class="st1" d="M236.4,264.8c7.6-7.5,18.2-11.4,28.9-10.6c4.1,0.3,8.4,1.5,11.3,4.4c2.9,2.9,4.1,7.9,1.6,11.3
		c-2.8,3.9-8.5,3.9-13.4,3.4s-10.5-0.5-13.4,3.3c3.3,2.2,6.7,4.6,8.7,8.1s2.1,8.3-0.8,11c-1.4,1.1-3.1,2-4.8,2.5l-14.2,4.9
		c-7.6,2.6-24.2,3.4-19.7-9c1.5-4.1,4.5-7.6,6-11.8C229.1,275.7,231.3,269.9,236.4,264.8z"></path><path class="st2" d="M230.5,305.4c-3.8,0-7.5-0.8-9.6-2.9s-2.3-5-1-8.7c0.8-2.1,1.9-4.1,3.1-6c1.2-1.8,2.2-3.8,3-5.8l0.1-0.2
		c2.5-6.7,4.6-12.4,9.8-17.6l0,0c7.8-7.7,18.5-11.7,29.5-10.8c5.2,0.4,9.1,2,11.8,4.6c3,3,4.5,8.4,1.7,12.2c-3,4.2-8.8,4.2-14,3.7
		c-4.5-0.4-9.5-0.5-12.2,2.4c3,2.1,6.2,4.4,8.2,7.8s2.4,8.9-1,12c-1.5,1.2-3.2,2.1-5.1,2.6l-14.2,4.9
		C237.3,304.9,233.9,305.4,230.5,305.4z M262.4,254.8c-9.5,0-18.7,3.8-25.5,10.5l0,0c-5,5-7.1,10.6-9.5,17.1l-0.1,0.2
		c-0.9,2.1-1.9,4.1-3.1,6c-1.2,1.8-2.2,3.8-3,5.8c-1.1,3.1-0.9,5.5,0.6,7.1c3.4,3.5,12.7,2.8,18.1,0.9l14.2-4.9
		c1.7-0.5,3.2-1.2,4.6-2.3c2.8-2.5,2.4-7.1,0.7-10.1c-1.9-3.4-5.4-5.7-8.4-7.8c-0.2-0.1-0.3-0.3-0.3-0.5c0-0.2,0-0.4,0.1-0.6
		c3-4.1,8.8-4.1,14.1-3.6c4.8,0.5,10.1,0.4,12.7-3.1c2.3-3.1,1-7.8-1.6-10.3s-6.1-3.8-10.9-4.2C264.2,254.9,263.3,254.8,262.4,254.8
		z M236.4,264.8L236.4,264.8z"></path><path class="st2" d="M253.5,277.8c-0.1,0-0.2,0-0.2-0.1c-3.8-2-8.3-2.5-12.5-1.2c-0.3,0.1-0.6-0.1-0.6-0.4
		c-0.1-0.3,0.1-0.6,0.4-0.6c4.4-1.3,9.2-0.8,13.2,1.3c0.2,0.1,0.3,0.4,0.2,0.7c0,0,0,0,0,0C253.8,277.6,253.7,277.8,253.5,277.8z"></path><path class="st0" d="M175.3,288.4c16.3,4.8,34.8,0.6,50-11.5l2.5,35.8c-20.1,9.3-42.5,7.7-60.1-4.3c-8.9-6.1-16.6-14.9-22.4-25.4
		c-3.6-6.5-8.6-16.5-10.3-25.8c-0.6-3.2,2.8-5.7,4.4-3.3c3.6,5.3,6.6,13,10.1,17.1C156.3,279.2,165.2,285.2,175.3,288.4z"></path><path class="st0" d="M68.6,455c-3,1.4-6.2,3-8.4,5.6s-3.4,6.3-2,9.4c1.4,3.3,5.1,4.9,8.5,6c29.9,9.8,64.7,3.2,88.9-17
		c6-5,11.6-14.7,3.1-20.6c-5.4-3.8-16.5-1.2-22.6-0.8C112.7,439.1,89.8,445,68.6,455z"></path><path class="st2" d="M83.3,461.3c-0.9,0.8-1.8,1.8-1.7,3c0.1,1.7,2.2,2.5,3.9,2.8c4,0.7,8.1,0.9,12.1,0.6c2-0.1,4.2-0.5,5.3-2.2
		c1.3-1.9,0.5-4.5-0.1-6.8c-0.7-2.8-1-5.7-0.8-8.6c0.2-1.1,0.1-2.3-0.3-3.3c-1.8-3.1-6.8,3.7-8.2,5L83.3,461.3z"></path><path class="st2" d="M125.8,448.4c-0.4,0.8-0.8,2-0.1,2.6c0.4,0.3,1,0.4,1.5,0.3l20.8-1.2c0.6,0,1.3-0.1,1.9-0.4
		c0.6-0.3,1-0.9,1-1.5c-0.1-1-1.2-1.5-2.1-1.8c-5.1-1.5-10.3-3.1-15.4-4.5C128.4,440.5,128.1,444.9,125.8,448.4z"></path><path class="st2" d="M95.5,449.2l8.1,1l13.3-44.5c3.7-12.4,7.4-24.8,13.3-36.3c0.7-1.4,2.1-2.9,3.4-2.2c0.9,0.5,0.9,1.9,0.8,2.9
		c-2.4,24.4-4.9,48.9-7.3,73.4l7-1.4c3.3-32,8-63.7,14.1-95.3l-21.2,3.1c-4.3,0.6-13.6,1.4-15.3,6.4c-1.1,3-0.7,7-1,10.2
		c-0.3,3.9-0.7,7.7-1.2,11.6c-1.8,15.5-4.4,30.8-7.8,46C101.4,426.3,96.3,449.3,95.5,449.2z"></path><path class="st1" d="M102.8,152.5c6.7-2.7,14.9-3.9,20.9,0.2c7.1,4.8,8.2,14.6,8.8,23.1c1,16.3,2,32.7,3,49
		c0.2,3.6,0.4,7.3-0.7,10.7s-3.9,6.6-7.5,7c-4.1,0.5-7.8-2.5-10.7-5.4c-13.2-13.2-23.9-28.7-31.4-45.8c-2.8-6.4-8.6-15.9-4.3-22.4
		C85.7,161.6,94.9,155.7,102.8,152.5z"></path><path class="st2" d="M126.4,243.4c-4,0-7.4-2.8-10.3-5.7c-13.3-13.2-24-28.8-31.6-46c-0.4-1-0.9-2-1.4-3c-3-6.3-6.8-14.2-2.9-20.1
		c5.1-7.8,14.8-13.7,22.2-16.8l0,0c5-2,14.4-4.6,21.6,0.3s8.5,14.9,9.1,23.7l3,49c0.2,3.5,0.5,7.4-0.7,11c-1.3,4.1-4.5,7.1-8.1,7.5
		C127.1,243.4,126.8,243.4,126.4,243.4z M103.1,153.2c-7.2,2.9-16.7,8.7-21.5,16.2c-3.4,5.2,0.1,12.7,3,18.7c0.5,1.1,1,2.1,1.4,3
		c7.5,17,18.1,32.5,31.3,45.6c2.9,2.8,6.3,5.7,10.1,5.2c3.4-0.4,5.9-3.6,6.8-6.5c1.1-3.3,0.9-7,0.6-10.5l-3-49
		c-0.5-8.5-1.6-17.9-8.4-22.5C118.5,149.9,111.2,149.9,103.1,153.2L103.1,153.2z M102.8,152.5L102.8,152.5z"></path><path class="st2" d="M135.8,161.7c10.7-14.3,14.7-32.6,11-50.1c-1.1-5.1-3.3-10.6-8-13c-6.3-3.2-13.8,0.5-19.3,5
		c-16.9,13.7-26.8,34.2-34.8,54.5c-7.3,3.6-14.8,7.4-20.1,13.5s-7.9,15.4-4.1,22.6c2.7,5.1,8.2,8.3,13.8,9.7s11.5,1,17.3,0.7
		c0-4.2-1.8-13.9,0.8-17.6c2.4-3.3,11.2-3.4,15-4.8c5.6-2,10.9-4.9,15.8-8.4C128.1,170.4,131.4,165.1,135.8,161.7z"></path><path class="st2" d="M112.6,255c-1,3-0.9,6.3-0.9,9.5c-0.2,25.2-5.8,50-16.4,72.8c-1.5,3.1-3.1,6.3-3.7,9.7s-0.3,7.2,1.8,9.9
		c3.1,4,8.9,4.6,13.9,4.6c16.2,0,32.9-2.7,46.6-11.3c3-1.9,6-4.2,7.4-7.5s0.8-7,0.3-10.5c-2-13.8-4.1-27.7-8.1-41.1
		c-3.5-11.8-8.6-25.2-17.2-34.4C130.4,250.3,116.4,242.9,112.6,255z"></path><path class="st1" d="M94.4,196c-2.6-3-7.2-3.2-10.2-0.6c-0.5,0.5-1,1-1.3,1.6c-1.2,2.1-1.6,4.7-1,7.1c0.3,1.6,1,3.1,2.2,4.2
		c1.9,1.6,4.5,2.1,6.8,1.4c2.3-0.7,4.5-1.7,6.5-3.1"></path><path class="st2" d="M88.8,210.7c-1.9,0.1-3.8-0.6-5.2-1.9c-1.3-1.3-2.1-2.9-2.4-4.6c-0.7-2.6-0.3-5.3,1.1-7.6
		c2.3-3.7,7.2-4.8,10.9-2.5c0.6,0.4,1.2,0.9,1.7,1.5c0.3,0.3,0.2,0.8-0.1,1.1c-0.3,0.3-0.8,0.2-1.1-0.1c-2.4-2.7-6.5-2.9-9.1-0.5
		c-0.5,0.4-0.8,0.9-1.2,1.4c-1.1,2-1.4,4.3-0.8,6.5c0.2,1.5,0.9,2.8,1.9,3.9c1.7,1.6,4.3,1.7,6.1,1.2c2.2-0.7,4.4-1.7,6.3-3
		c0.3-0.2,0.8-0.2,1,0.2c0.2,0.3,0.2,0.8-0.2,1c0,0-0.1,0-0.1,0.1c-2.1,1.4-4.3,2.5-6.7,3.2C90.3,210.6,89.5,210.7,88.8,210.7z"></path><path class="st2" d="M88.8,210.4c-1.8,0.1-3.6-0.6-5-1.8c-1.2-1.2-2-2.8-2.3-4.5c-0.6-2.5-0.3-5.2,1-7.4c2.3-3.6,7-4.7,10.6-2.4
		c0.6,0.4,1.2,0.9,1.7,1.4c0.2,0.2,0.2,0.5,0,0.7c0,0,0,0,0,0c-0.2,0.2-0.5,0.2-0.7,0c-2.4-2.8-6.7-3-9.4-0.6
		c-0.5,0.4-0.9,0.9-1.2,1.5c-1.2,2-1.5,4.4-0.9,6.7c0.2,1.5,0.9,2.9,2,4c1.8,1.4,4.2,1.9,6.4,1.3c2.3-0.7,4.4-1.7,6.4-3.1
		c0.2-0.1,0.5-0.1,0.7,0.2s0.1,0.5-0.2,0.7c-2,1.4-4.3,2.5-6.7,3.1C90.3,210.3,89.5,210.4,88.8,210.4z"></path><path class="st2" d="M115.4,193.1c-0.1-0.5-0.6-0.9-1.2-0.8c0,0-0.1,0-0.1,0c-0.5,0.2-0.9,0.7-1,1.3c-0.1,0.6,0,1.2,0.1,1.7
		c0.2,0.8,0.3,1.6,0.5,2.3c0.1,0.6,0.3,1.2,0.7,1.6c1.2,1.1,1.9-0.6,1.8-1.5C115.9,196.3,115.5,194.7,115.4,193.1z"></path><path class="st2" d="M116.7,228.3c0.9,1.4,2.4,2.2,4.1,2.2c1.7-0.1,2.9-1.6,2.8-3.2c0,0,0,0,0,0c-0.1-0.4-0.3-0.7-0.7-0.9
		c-0.3-0.1-0.6-0.1-0.9,0c-2.1,0.4-3.4-0.6-5.3-0.9C114.4,225.2,115.8,227.1,116.7,228.3z"></path><path class="st2" d="M125.2,192.3c-0.1-0.5-0.6-0.9-1.1-0.8c-0.1,0-0.1,0-0.2,0c-0.5,0.2-0.9,0.7-1,1.3c-0.1,0.6,0,1.2,0.1,1.7
		c0.2,0.8,0.3,1.6,0.5,2.3c0.1,0.6,0.3,1.2,0.7,1.6c1.2,1.1,1.9-0.6,1.8-1.5C125.8,195.5,125.4,193.9,125.2,192.3z"></path><path class="st2" d="M89.8,205.2c-1,0-1.9-0.5-2.4-1.3c-0.6-1-0.8-2.1-0.6-3.2c0.2-1,0.5-2,1-2.9c0.1-0.3,0.4-0.4,0.7-0.3
		c0.3,0.1,0.4,0.4,0.2,0.7c-0.4,0.9-0.7,1.8-0.9,2.7c-0.2,0.9,0,1.7,0.4,2.5c0.4,0.7,1.2,1,2,0.8c0.2-0.1,0.5,0,0.7,0.2
		c0.1,0.2,0,0.5-0.2,0.7c0,0-0.1,0-0.1,0C90.3,205.1,90,205.2,89.8,205.2z"></path><path class="st0" d="M104.8,254.7c4.2-1.9,10.4-2.9,12.4,1.3c1.8,3.8-1.8,7.8-5.3,10.1c-6.7,4.5-14.2,7.7-20.9,12.3
		s-12.5,11.2-13.7,19.2c-1,6.9,1.7,14,5.8,19.6s9.7,10.1,15.2,14.4c-1.1,3.7-2.3,7.5-4.5,10.7s-6,5.6-9.8,5.3
		c-3.6-0.2-6.6-2.7-9.2-5.2c-11.7-11.6-24.1-36-17.8-52.9c2.8-7.4,12.1-13.2,18.1-17.6C84.3,265.1,94.3,259.3,104.8,254.7z"></path><path class="st1" d="M108,314.4c8.9-3.2,20.4-0.9,25.2,7.3c2,3.5,2.6,8.1,0.4,11.5s-7.7,4.5-10.4,1.6c3.4,2.9,3.8,7.9,0.9,11.3
		c-1.3,1.5-3,2.4-4.9,2.7c-3.6,0.5-7.2-1.4-10.8-1c-4.9,0.5-8.8,5.1-13.7,5c-4.2,0-7.7-3.7-9-7.8C81.6,332,96.8,318.4,108,314.4z"></path><path class="st2" d="M94.7,353.6L94.7,353.6c-5,0-8.5-4.3-9.8-8.3c-4-13,10.6-27.2,22.8-31.6l0,0c8.8-3.2,20.9-1.2,26.1,7.6
		c2.4,4.1,2.5,9,0.4,12.3c-1.4,2.1-3.7,3.4-6.2,3.6c-0.8,0.1-1.5,0-2.3-0.1c2.1,4.3,0.3,9.5-4,11.7c-0.8,0.4-1.7,0.7-2.6,0.8
		c-2,0.2-3.9,0-5.8-0.5c-1.6-0.4-3.3-0.6-5-0.5c-2.2,0.4-4.3,1.2-6.2,2.4C99.8,352.2,97.4,353.6,94.7,353.6z M108.2,315.1
		c-11.7,4.2-25.6,17.6-21.9,29.8c1.1,3.6,4.3,7.2,8.2,7.2c2.4,0,4.6-1.2,6.8-2.4c2-1.3,4.3-2.2,6.7-2.6c1.8-0.1,3.7,0.1,5.5,0.5
		c1.7,0.5,3.5,0.6,5.3,0.5c4-0.6,6.7-4.3,6.1-8.2c-0.2-1.5-0.9-3-2-4.1c-0.2-0.1-0.3-0.3-0.5-0.5c-0.2-0.3-0.2-0.7,0-1
		c0.3-0.3,0.7-0.3,1,0c0.2,0.1,0.3,0.3,0.5,0.4c1.1,0.8,2.5,1.2,3.8,1c2-0.2,3.9-1.2,5.1-2.9c1.9-2.9,1.7-7.1-0.4-10.8
		C127.7,313.9,116.4,312.1,108.2,315.1L108.2,315.1z M108,314.4L108,314.4z"></path><path class="st2" d="M97,337.8c-0.1,0-0.3-0.1-0.3-0.1c-0.2-0.2-0.2-0.5,0-0.7c0,0,0,0,0,0c7.5-7.4,19.4-8.1,27.7-1.5
		c0.2,0.2,0.2,0.5,0.1,0.7c-0.2,0.2-0.5,0.3-0.7,0.1c-7.9-6.2-19.2-5.6-26.4,1.4C97.3,337.8,97.1,337.8,97,337.8z"></path></g><g id="plant"><path class="st0" d="M361.2,458.5c-0.3,6.4,6.1,11,12.1,13.4c16.6,6.6,35.3,6.5,52.7,2.4c3.9-0.9,7.9-2.1,11.1-4.6
		s5.4-6.6,4.5-10.6c-1.2-5.6-7.6-8.3-13.3-9.6C417.4,447,362.1,437.4,361.2,458.5z"></path><path class="st2" d="M400.7,422.6h-0.4c-0.3,0-0.5-0.2-0.5-0.5s0.2-0.5,0.5-0.5h0.4c0.3,0,0.5,0.2,0.5,0.5S400.9,422.6,400.7,422.6
		z"></path><path class="st2" d="M372.1,425c-1.3,3.3-0.4,7,0.5,10.4c1.5,5.6,3.3,11.2,5.3,16.6c1.6,4.3,3.5,8.9,7.5,11.2
		c3.1,1.8,7,1.8,10.6,1.8l18.9-0.1c5.6,0,11.7-0.2,16.2-3.6c4.2-3.1,6.2-8.3,7.8-13.3c2-6.1,3.7-12.3,5.2-18.5c0.7-3,1.3-6.5-0.7-9
		c-1.5-1.9-4.1-2.5-6.5-2.9c-13-2.1-25.8-1.6-38.8-0.1C389.8,418.5,376,415,372.1,425z"></path><path class="st1" d="M392.6,364.1c0.4-3.2,1-6.5,2.8-9.2s5.2-4.6,8.3-3.9c4,0.9,6,5.3,7.1,9.1c4.8,15.6,5.5,32.2,2,48.1
		c1.3-6.6,2.8-13.2,5.7-19.3s7.3-11.6,13.2-14.8c3-1.6,6.9-2.5,9.6-0.5c3.8,2.8,2.7,8.6,1,13c-4.3,10.8-10.1,21-17.2,30.2
		c-3.1,4.1-6.8,8.2-11.7,9.7c-8,2.5-16.3-2.5-23.2-7.3c-7.9-5.5-16-11.1-21.3-19.1c-2.2-3.2-3.8-7.6-1.6-10.9
		c1.6-2.4,4.9-3.2,7.8-2.6s5.3,2.4,7.5,4.2c3.3,2.6,6.4,5.5,9.2,8.6c2.5,2.7,4.8,7.2,7.9,9C394.5,394,390.7,380,392.6,364.1z"></path><path class="st2" d="M409.1,428.2c-6.8,0-13.4-4.1-19.2-8.1c-7.5-5.2-16-11.1-21.5-19.3c-1.4-2.1-4.5-7.5-1.6-11.7
		c1.9-2.9,5.7-3.5,8.5-2.9s5.5,2.5,7.8,4.3c3.3,2.7,6.4,5.6,9.3,8.7c1,1.1,1.8,2.2,2.7,3.4c0.9,1.3,1.9,2.6,3,3.8
		c-5.1-14.7-8-27.7-6.3-42.5c0.4-3.3,1-6.7,3-9.6c2.2-3.2,5.9-4.9,9.1-4.2c3.4,0.8,6,4,7.7,9.6c3.4,11.1,4.8,22.8,4,34.4
		c0.7-1.9,1.4-3.8,2.3-5.7c2.3-4.8,6.5-11.4,13.5-15.1c4-2.1,7.9-2.3,10.4-0.4c4.5,3.3,2.7,10.1,1.2,13.9
		c-4.3,10.9-10.1,21.2-17.2,30.5c-3.2,4.2-7,8.4-12.1,10C412.3,428,410.7,428.2,409.1,428.2z M373.3,387.5c-2.1-0.1-4,0.8-5.3,2.4
		c-2.3,3.4,0.4,8.1,1.6,10c5.4,8,13.7,13.8,21.1,18.9c6.9,4.8,14.9,9.6,22.6,7.2c4.7-1.5,8.3-5.4,11.4-9.5c7-9.2,12.8-19.3,17-30.1
		c1.1-2.7,3.1-9.3-0.7-12.1c-3.1-2.2-7.5-0.2-8.8,0.5c-6.7,3.6-10.7,9.8-12.9,14.4c-2.3,5.2-4.1,10.7-5.1,16.4
		c-0.2,0.9-0.4,1.8-0.6,2.8c-0.1,0.4-0.5,0.7-0.9,0.6c-0.4-0.1-0.7-0.5-0.6-0.9c0.2-0.9,0.4-1.8,0.5-2.7c2.8-15,2-30.4-2.5-45
		c-1.6-5.1-3.7-8-6.6-8.6c-3-0.7-6,1.3-7.5,3.5c-1.8,2.6-2.3,5.8-2.7,8.9l0,0c-1.8,15.2,1.6,28.7,7.1,44.3c0.1,0.3,0,0.6-0.2,0.8
		c-0.2,0.2-0.6,0.2-0.9,0.1c-2.1-1.2-3.8-3.6-5.5-5.9c-0.8-1.1-1.6-2.2-2.6-3.3c-2.8-3.1-5.9-5.9-9.1-8.6c-2.2-1.7-4.5-3.4-7.2-4
		C374.4,387.6,373.9,387.5,373.3,387.5z M392.6,364.1L392.6,364.1z"></path><path class="st1" d="M418,432c-1,0-2,0-3-0.1c-5.9-0.3-11.9-0.7-17.7-1.3c-4.6-0.5-9.6-1.5-11.9-5.3c-0.1-0.1-0.1-0.3,0-0.4
		c0-0.1,0.2-0.3,0.3-0.3l5-2.1c0.3-0.1,0.5,0,0.7,0.3c0.1,0.3,0,0.5-0.3,0.6l-4.5,1.9c2.2,3.1,6.7,3.9,10.9,4.4
		c5.8,0.6,11.8,1,17.6,1.3c2.7,0.3,5.3,0.1,8-0.5c2.3-0.5,4.4-2,5.7-4l-4.5-1.1c-0.3-0.1-0.4-0.3-0.4-0.6s0.3-0.4,0.6-0.4l5.2,1.3
		c0.1,0,0.3,0.1,0.3,0.3c0.1,0.1,0.1,0.3,0,0.4c-1.4,2.6-3.8,4.4-6.6,5C421.5,431.8,419.8,432,418,432z"></path><path class="st2" d="M408.8,419.8c-0.2,0-0.4-0.1-0.5-0.4c-6-20.4-8.3-41.8-6.8-63c0-0.3,0.3-0.5,0.5-0.5c0.3,0,0.5,0.3,0.5,0.5
		c0,0,0,0,0,0c-1.5,21.1,0.7,42.4,6.7,62.7c0.1,0.3-0.1,0.5-0.3,0.6L408.8,419.8z"></path><path class="st2" d="M416,416.2c0,0-0.1,0-0.1,0c-0.3-0.1-0.4-0.3-0.3-0.6c0,0,0,0,0,0c3.5-12.1,9.9-23.2,18.7-32.3
		c0.2-0.2,0.5-0.2,0.7,0c0.2,0.2,0.2,0.5,0,0.7c-8.6,9-14.9,19.9-18.4,31.9C416.4,416.1,416.2,416.2,416,416.2z"></path><path class="st2" d="M398.8,415.7c-0.1,0-0.2,0-0.3-0.1c-8.9-5.5-16.6-12.6-22.8-21.1c-0.2-0.2-0.1-0.5,0.1-0.7c0,0,0,0,0,0
		c0.2-0.2,0.5-0.1,0.7,0.1c6.1,8.3,13.7,15.4,22.5,20.8c0.2,0.1,0.3,0.5,0.2,0.7C399.2,415.6,399,415.7,398.8,415.7z"></path></g></svg>